{
.appVersion = "3310";
copyright = "Copyright 2010 Google Inc. All Rights Reserved.";
customParameters = (
{
name = glyphOrder;
value = (
.notdef,
null,
nonmarkingreturn,
space,
exclam,
quotedbl,
numbersign,
dollar,
percent,
ampersand,
quotesingle,
parenleft,
parenright,
asterisk,
plus,
comma,
hyphen,
period,
slash,
zero,
one,
two,
three,
four,
five,
six,
seven,
eight,
nine,
colon,
semicolon,
less,
equal,
greater,
question,
at,
A,
B,
C,
D,
E,
F,
G,
H,
I,
J,
K,
L,
M,
N,
O,
P,
Q,
R,
S,
T,
U,
V,
W,
X,
Y,
Z,
bracketleft,
backslash,
bracketright,
asciicircum,
underscore,
grave,
a,
b,
c,
d,
e,
f,
g,
h,
i,
j,
k,
l,
m,
n,
o,
p,
q,
r,
s,
t,
u,
v,
w,
x,
y,
z,
braceleft,
bar,
braceright,
asciitilde,
Adieresis,
Aring,
Ccedilla,
Eacute,
Ntilde,
Odieresis,
Udieresis,
aacute,
agrave,
acircumflex,
adieresis,
atilde,
aring,
ccedilla,
eacute,
egrave,
ecircumflex,
edieresis,
iacute,
igrave,
icircumflex,
idieresis,
ntilde,
oacute,
ograve,
ocircumflex,
odieresis,
otilde,
uacute,
ugrave,
ucircumflex,
udieresis,
dagger,
degree,
cent,
sterling,
section,
bullet,
paragraph,
germandbls,
registered,
copyright,
trademark,
acute,
dieresis,
notequal,
AE,
Oslash,
infinity,
plusminus,
lessequal,
greaterequal,
yen,
uni00B5,
partialdiff,
summation,
product,
integral,
ordfeminine,
ordmasculine,
uni2126,
ae,
oslash,
questiondown,
exclamdown,
logicalnot,
radical,
florin,
approxequal,
uni2206,
guillemotleft,
guillemotright,
ellipsis,
Agrave,
Atilde,
Otilde,
OE,
oe,
endash,
emdash,
quotedblleft,
quotedblright,
quoteleft,
quoteright,
divide,
lozenge,
ydieresis,
Ydieresis,
fraction,
Euro,
guilsinglleft,
guilsinglright,
uniFB01,
uniFB02,
daggerdbl,
periodcentered,
quotesinglbase,
quotedblbase,
perthousand,
Acircumflex,
Ecircumflex,
Aacute,
Edieresis,
Egrave,
Iacute,
Icircumflex,
Idieresis,
Igrave,
Oacute,
Ocircumflex,
Ograve,
Uacute,
Ucircumflex,
Ugrave,
dotlessi,
circumflex,
tilde,
uni02C9,
breve,
dotaccent,
ring,
cedilla,
hungarumlaut,
ogonek,
caron,
Lslash,
lslash,
Scaron,
scaron,
Zcaron,
zcaron,

glyphs = (
{
glyphname = .notdef;
lastChange = "2025-02-05 21:35:02 +0000";
layers = (
{
layerId = "9CB754D2-AD8E-43A2-9483-C1400C56EABF";
paths = (
{
closed = 1;
nodes = (
"234 0 LINE",
"1359 0 LINE",
"1359 1409 LINE",
"234 1409 LINE"
);
},
{
closed = 1;
nodes = (
"1283 1333 LINE",
"1283 76 LINE",
"310 76 LINE",
"310 1333 LINE"
);
}
);
width = 1593;
}
);
note = .notdef;
},
{
glyphname = exclam;
lastChange = "2025-02-05 21:35:02 +0000";
layers = (
{
layerId = "9CB754D2-AD8E-43A2-9483-C1400C56EABF";
paths = (
{
closed = 1;
nodes = (
"489 1341 LINE",
"190 1341 LINE",
"282 420 LINE",
"397 420 LINE"
);
},
{
closed = 1;
nodes = (
"433 -29 OFFCURVE",
"506 45 OFFCURVE",
"506 137 CURVE SMOOTH",
"506 230 OFFCURVE",
"432 303 OFFCURVE",
"340 303 CURVE SMOOTH",
"247 303 OFFCURVE",
"174 229 OFFCURVE",
"174 137 CURVE SMOOTH",
"174 44 OFFCURVE",
"248 -29 OFFCURVE",
"340 -29 CURVE SMOOTH"
);
}
);
width = 682;
}
);
note = exclam;
unicode = 0021;
},
{
glyphname = quotedbl;
lastChange = "2025-02-05 21:35:02 +0000";
layers = (
{
layerId = "9CB754D2-AD8E-43A2-9483-C1400C56EABF";
paths = (
{
closed = 1;
nodes = (
"729 860 LINE",
"833 860 LINE",
"911 1341 LINE",
"653 1341 LINE"
);
},
{
closed = 1;
nodes = (
"303 860 LINE",
"407 860 LINE",
"485 1341 LINE",
"227 1341 LINE"
);
}
);
width = 1137;
}
);
note = quotedbl;
unicode = 0022;
},
{
glyphname = numbersign;
lastChange = "2025-02-05 21:35:02 +0000";
layers = (
{
layerId = "9CB754D2-AD8E-43A2-9483-C1400C56EABF";
paths = (
{
closed = 1;
nodes = (
"997 411 LINE",
"997 534 LINE",
"768 534 LINE",
"819 821 LINE",
"997 821 LINE",
"997 944 LINE",
"841 944 LINE",
"915 1341 LINE",
"772 1341 LINE",
"698 944 LINE",
"428 944 LINE",
"502 1341 LINE",
"358 1341 LINE",
"285 944 LINE",
"27 944 LINE",
"27 821 LINE",
"262 821 LINE",
"209 534 LINE",
"27 534 LINE",
"27 411 LINE",
"184 411 LINE",
"108 0 LINE",
"254 0 LINE",
"328 411 LINE",
"598 411 LINE",
"522 0 LINE",
"665 0 LINE",
"741 411 LINE"
);
},
{
closed = 1;
nodes = (
"676 821 LINE",
"622 534 LINE",
"352 534 LINE",
"405 821 LINE"
);
}
);
width = 1024;
}
);
note = numbersign;
unicode = 0023;
},
{
glyphname = dollar;
lastChange = "2025-02-05 21:35:02 +0000";
layers = (
{
layerId = "9CB754D2-AD8E-43A2-9483-C1400C56EABF";
paths = (
{
closed = 1;
nodes = (
"466 -156 LINE",
"568 -156 LINE",
"568 -16 LINE",
"812 1 OFFCURVE",
"966 154 OFFCURVE",
"966 387 CURVE SMOOTH",
"966 488 OFFCURVE",
"943 566 OFFCURVE",
"904 625 CURVE SMOOTH",
"885 654 OFFCURVE",
"862 680 OFFCURVE",
"835 703 CURVE SMOOTH",
"808 725 OFFCURVE",
"778 745 OFFCURVE",
"744 764 CURVE SMOOTH",
"710 782 OFFCURVE",
"651 808 OFFCURVE",
"568 841 CURVE",
"568 1256 LINE",
"640 1249 OFFCURVE",
"712 1216 OFFCURVE",
"751 1177 CURVE",
"783 1034 LINE",
"874 1034 LINE",
"874 1313 LINE",
"771 1338 OFFCURVE",
"669 1352 OFFCURVE",
"568 1356 CURVE",
"568 1483 LINE",
"466 1483 LINE",
"466 1354 LINE",
"238 1335 OFFCURVE",
"89 1206 OFFCURVE",
"89 1014 CURVE SMOOTH",
"89 855 OFFCURVE",
"142 757 OFFCURVE",
"231 686 CURVE SMOOTH",
"276 650 OFFCURVE",
"354 610 OFFCURVE",
"466 566 CURVE",
"466 78 LINE",
"379 81 OFFCURVE",
"242 130 OFFCURVE",
"202 185 CURVE",
"166 371 LINE",
"73 371 LINE",
"73 51 LINE",
"146 18 OFFCURVE",
"323 -17 OFFCURVE",
"466 -20 CURVE"
);
},
{
closed = 1;
nodes = (
"752 183 OFFCURVE",
"687 98 OFFCURVE",
"568 77 CURVE",
"568 528 LINE",
"673 489 OFFCURVE",
"710 461 OFFCURVE",
"734 414 CURVE SMOOTH",
"746 391 OFFCURVE",
"752 363 OFFCURVE",
"752 330 CURVE SMOOTH"
);
},
{
closed = 1;
nodes = (
"303 1168 OFFCURVE",
"361 1238 OFFCURVE",
"466 1254 CURVE",
"466 879 LINE",
"369 919 OFFCURVE",
"338 945 OFFCURVE",
"318 989 CURVE SMOOTH",
"308 1010 OFFCURVE",
"303 1036 OFFCURVE",
"303 1067 CURVE SMOOTH"
);
}
);
width = 1024;
}
);
note = dollar;
unicode = 0024;
},
{
glyphname = percent;
lastChange = "2025-02-05 21:35:02 +0000";
layers = (
{
layerId = "9CB754D2-AD8E-43A2-9483-C1400C56EABF";
paths = (
{
closed = 1;
nodes = (
"1589 1362 LINE",
"1438 1362 LINE",
"490 -20 LINE",
"640 -20 LINE"
);
},
{
closed = 1;
nodes = (
"861 1239 OFFCURVE",
"749 1362 OFFCURVE",
"537 1362 CURVE SMOOTH",
"319 1362 OFFCURVE",
"210 1240 OFFCURVE",
"210 995 CURVE SMOOTH",
"210 752 OFFCURVE",
"316 623 OFFCURVE",
"531 623 CURVE SMOOTH",
"751 623 OFFCURVE",
"861 747 OFFCURVE",
"861 995 CURVE SMOOTH"
);
},
{
closed = 1;
nodes = (
"645 896 OFFCURVE",
"636 824 OFFCURVE",
"617 781 CURVE SMOOTH",
"598 738 OFFCURVE",
"570 716 OFFCURVE",
"531 716 CURVE SMOOTH",
"494 716 OFFCURVE",
"468 737 OFFCURVE",
"451 778 CURVE SMOOTH",
"434 819 OFFCURVE",
"425 892 OFFCURVE",
"425 995 CURVE SMOOTH",
"425 1096 OFFCURVE",
"433 1166 OFFCURVE",
"450 1207 CURVE SMOOTH",
"467 1248 OFFCURVE",
"494 1268 OFFCURVE",
"531 1268 CURVE SMOOTH",
"570 1268 OFFCURVE",
"599 1247 OFFCURVE",
"618 1205 CURVE SMOOTH",
"636 1162 OFFCURVE",
"645 1092 OFFCURVE",
"645 995 CURVE SMOOTH"
);
},
{
closed = 1;
nodes = (
"1856 590 OFFCURVE",
"1745 713 OFFCURVE",
"1533 713 CURVE SMOOTH",
"1312 713 OFFCURVE",
"1205 583 OFFCURVE",
"1205 346 CURVE SMOOTH",
"1205 102 OFFCURVE",
"1312 -27 OFFCURVE",
"1527 -27 CURVE SMOOTH",
"1746 -27 OFFCURVE",
"1856 97 OFFCURVE",
"1856 346 CURVE SMOOTH"
);
},
{
closed = 1;
nodes = (
"1641 247 OFFCURVE",
"1632 175 OFFCURVE",
"1613 132 CURVE SMOOTH",
"1594 89 OFFCURVE",
"1566 67 OFFCURVE",
"1527 67 CURVE SMOOTH",
"1490 67 OFFCURVE",
"1464 88 OFFCURVE",
"1447 129 CURVE SMOOTH",
"1430 170 OFFCURVE",
"1421 243 OFFCURVE",
"1421 346 CURVE SMOOTH",
"1421 447 OFFCURVE",
"1429 517 OFFCURVE",
"1446 558 CURVE SMOOTH",
"1463 599 OFFCURVE",
"1490 619 OFFCURVE",
"1527 619 CURVE SMOOTH",
"1566 619 OFFCURVE",
"1595 598 OFFCURVE",
"1614 556 CURVE SMOOTH",
"1632 513 OFFCURVE",
"1641 443 OFFCURVE",
"1641 346 CURVE SMOOTH"
);
}
);
width = 2048;
}
);
note = percent;
unicode = 0025;
},
{
glyphname = ampersand;
lastChange = "2025-02-05 21:35:02 +0000";
layers = (
{
layerId = "9CB754D2-AD8E-43A2-9483-C1400C56EABF";
paths = (
{
closed = 1;
nodes = (
"1043 1261 OFFCURVE",
"914 1362 OFFCURVE",
"681 1362 CURVE SMOOTH",
"440 1362 OFFCURVE",
"304 1252 OFFCURVE",
"304 1067 CURVE SMOOTH",
"304 949 OFFCURVE",
"346 842 OFFCURVE",
"430 745 CURVE",
"228 665 OFFCURVE",
"118 555 OFFCURVE",
"118 356 CURVE SMOOTH",
"118 105 OFFCURVE",
"293 -20 OFFCURVE",
"660 -20 CURVE SMOOTH",
"838 -20 OFFCURVE",
"986 23 OFFCURVE",
"1103 110 CURVE",
"1222 0 LINE",
"1606 0 LINE",
"1606 63 LINE",
"1490 88 LINE",
"1270 286 LINE",
"1329 375 OFFCURVE",
"1379 489 OFFCURVE",
"1420 626 CURVE SMOOTH",
"1447 717 LINE",
"1557 743 LINE",
"1557 807 LINE",
"1080 807 LINE",
"1080 743 LINE",
"1191 717 LINE",
"1186 600 OFFCURVE",
"1166 497 OFFCURVE",
"1132 410 CURVE",
"752 753 LINE",
"909 816 OFFCURVE",
"973 866 OFFCURVE",
"1013 941 CURVE SMOOTH",
"1033 978 OFFCURVE",
"1043 1022 OFFCURVE",
"1043 1073 CURVE SMOOTH"
);
},
{
closed = 1;
nodes = (
"495 86 OFFCURVE",
"394 176 OFFCURVE",
"394 367 CURVE SMOOTH",
"394 499 OFFCURVE",
"431 589 OFFCURVE",
"522 650 CURVE",
"999 206 LINE",
"912 126 OFFCURVE",
"799 86 OFFCURVE",
"660 86 CURVE SMOOTH"
);
},
{
closed = 1;
nodes = (
"554 1204 OFFCURVE",
"590 1262 OFFCURVE",
"681 1262 CURVE SMOOTH",
"756 1262 OFFCURVE",
"793 1204 OFFCURVE",
"793 1089 CURVE SMOOTH",
"793 964 OFFCURVE",
"762 899 OFFCURVE",
"661 844 CURVE",
"576 937 OFFCURVE",
"554 1004 OFFCURVE",
"554 1089 CURVE SMOOTH"
);
}
);
width = 1706;
}
);
note = ampersand;
unicode = 0026;
},
{
glyphname = quotesingle;
lastChange = "2025-02-05 21:35:02 +0000";
layers = (
{
layerId = "9CB754D2-AD8E-43A2-9483-C1400C56EABF";
paths = (
{
closed = 1;
nodes = (
"232 860 LINE",
"336 860 LINE",
"414 1341 LINE",
"156 1341 LINE"
);
}
);
width = 569;
}
);
note = quotesingle;
unicode = 0027;
},
{
glyphname = parenleft;
lastChange = "2025-02-05 21:35:02 +0000";
layers = (
{
layerId = "9CB754D2-AD8E-43A2-9483-C1400C56EABF";
paths = (
{
closed = 1;
nodes = (
"363 809 OFFCURVE",
"397 984 OFFCURVE",
"470 1129 CURVE SMOOTH",
"507 1202 OFFCURVE",
"555 1261 OFFCURVE",
"616 1307 CURVE",
"616 1421 LINE",
"352 1282 OFFCURVE",
"213 1125 OFFCURVE",
"143 901 CURVE SMOOTH",
"108 789 OFFCURVE",
"90 654 OFFCURVE",
"90 495 CURVE SMOOTH",
"90 175 OFFCURVE",
"158 -40 OFFCURVE",
"307 -206 CURVE SMOOTH",
"381 -289 OFFCURVE",
"484 -366 OFFCURVE",
"616 -436 CURVE",
"616 -322 LINE",
"495 -230 OFFCURVE",
"423 -81 OFFCURVE",
"389 112 CURVE SMOOTH",
"372 209 OFFCURVE",
"363 336 OFFCURVE",
"363 494 CURVE SMOOTH"
);
}
);
width = 682;
}
);
note = parenleft;
unicode = 0028;
},
{
glyphname = parenright;
lastChange = "2025-02-05 21:35:02 +0000";
layers = (
{
layerId = "9CB754D2-AD8E-43A2-9483-C1400C56EABF";
paths = (
{
closed = 1;
nodes = (
"331 -295 OFFCURVE",
"471 -137 OFFCURVE",
"540 88 CURVE SMOOTH",
"575 200 OFFCURVE",
"592 336 OFFCURVE",
"592 495 CURVE SMOOTH",
"592 811 OFFCURVE",
"525 1026 OFFCURVE",
"377 1191 CURVE SMOOTH",
"303 1273 OFFCURVE",
"199 1350 OFFCURVE",
"66 1421 CURVE",
"66 1307 LINE",
"187 1214 OFFCURVE",
"258 1069 OFFCURVE",
"293 876 CURVE SMOOTH",
"310 779 OFFCURVE",
"319 652 OFFCURVE",
"319 494 CURVE SMOOTH",
"319 183 OFFCURVE",
"287 5 OFFCURVE",
"213 -142 CURVE SMOOTH",
"176 -215 OFFCURVE",
"127 -275 OFFCURVE",
"66 -322 CURVE",
"66 -436 LINE"
);
}
);
width = 682;
}
);
note = parenright;
unicode = 0029;
},
{
glyphname = asterisk;
lastChange = "2025-02-05 21:35:02 +0000";
layers = (
{
layerId = "9CB754D2-AD8E-43A2-9483-C1400C56EABF";
paths = (
{
closed = 1;
nodes = (
"844 667 LINE",
"939 878 LINE",
"627 964 LINE",
"939 1052 LINE",
"844 1261 LINE",
"556 1034 LINE",
"629 1351 LINE",
"396 1351 LINE",
"466 1034 LINE",
"179 1267 LINE",
"85 1054 LINE",
"392 964 LINE",
"85 876 LINE",
"179 663 LINE",
"466 899 LINE",
"396 579 LINE",
"629 579 LINE",
"556 895 LINE"
);
}
);
width = 1024;
}
);
note = asterisk;
unicode = 002A;
},
{
glyphname = plus;
lastChange = "2025-02-05 21:35:02 +0000";
layers = (
{
layerId = "9CB754D2-AD8E-43A2-9483-C1400C56EABF";
paths = (
{
closed = 1;
nodes = (
"1060 608 LINE",
"1060 751 LINE",
"655 751 LINE",
"655 1157 LINE",
"512 1157 LINE",
"512 751 LINE",
"108 751 LINE",
"108 608 LINE",
"512 608 LINE",
"512 203 LINE",
"655 203 LINE",
"655 608 LINE"
);
}
);
width = 1167;
}
);
note = plus;
unicode = 002B;
},
{
glyphname = comma;
lastChange = "2025-02-05 21:35:02 +0000";
layers = (
{
layerId = "9CB754D2-AD8E-43A2-9483-C1400C56EABF";
paths = (
{
closed = 1;
nodes = (
"434 221 OFFCURVE",
"350 301 OFFCURVE",
"237 301 CURVE SMOOTH",
"145 301 OFFCURVE",
"78 255 OFFCURVE",
"78 168 CURVE SMOOTH",
"78 112 OFFCURVE",
"103 71 OFFCURVE",
"154 44 CURVE SMOOTH",
"184 27 OFFCURVE",
"204 14 OFFCURVE",
"214 3 CURVE SMOOTH",
"224 -8 OFFCURVE",
"229 -20 OFFCURVE",
"229 -35 CURVE SMOOTH",
"229 -104 OFFCURVE",
"153 -187 OFFCURVE",
"27 -225 CURVE",
"27 -317 LINE",
"292 -248 OFFCURVE",
"434 -102 OFFCURVE",
"434 106 CURVE SMOOTH"
);
}
);
width = 512;
}
);
note = comma;
unicode = 002C;
},
{
glyphname = hyphen;
lastChange = "2025-02-05 21:35:02 +0000";
layers = (
{
layerId = "9CB754D2-AD8E-43A2-9483-C1400C56EABF";
paths = (
{
closed = 1;
nodes = (
"607 395 LINE",
"607 569 LINE",
"75 569 LINE",
"75 395 LINE"
);
}
);
width = 682;
}
);
note = hyphen;
unicode = "002D,00AD";
},
{
glyphname = period;
lastChange = "2025-02-05 21:35:02 +0000";
layers = (
{
layerId = "9CB754D2-AD8E-43A2-9483-C1400C56EABF";
paths = (
{
closed = 1;
nodes = (
"349 -29 OFFCURVE",
"422 45 OFFCURVE",
"422 137 CURVE SMOOTH",
"422 230 OFFCURVE",
"348 303 OFFCURVE",
"256 303 CURVE SMOOTH",
"163 303 OFFCURVE",
"90 229 OFFCURVE",
"90 137 CURVE SMOOTH",
"90 44 OFFCURVE",
"164 -29 OFFCURVE",
"256 -29 CURVE SMOOTH"
);
}
);
width = 512;
}
);
note = period;
unicode = 002E;
},
{
glyphname = slash;
lastChange = "2025-02-05 21:35:02 +0000";
layers = (
{
layerId = "9CB754D2-AD8E-43A2-9483-C1400C56EABF";
paths = (
{
closed = 1;
nodes = (
"590 1349 LINE",
"450 1349 LINE",
"-20 -20 LINE",
"121 -20 LINE"
);
}
);
width = 569;
}
);
note = slash;
unicode = 002F;
},
{
glyphname = zero;
lastChange = "2025-02-05 21:35:02 +0000";
layers = (
{
layerId = "9CB754D2-AD8E-43A2-9483-C1400C56EABF";
paths = (
{
closed = 1;
nodes = (
"946 1125 OFFCURVE",
"797 1362 OFFCURVE",
"514 1362 CURVE SMOOTH",
"221 1362 OFFCURVE",
"78 1120 OFFCURVE",
"78 676 CURVE SMOOTH",
"78 223 OFFCURVE",
"223 -20 OFFCURVE",
"506 -20 CURVE SMOOTH",
"799 -20 OFFCURVE",
"946 212 OFFCURVE",
"946 676 CURVE SMOOTH"
);
},
{
closed = 1;
nodes = (
"653 463 OFFCURVE",
"641 311 OFFCURVE",
"618 219 CURVE SMOOTH",
"594 126 OFFCURVE",
"557 80 OFFCURVE",
"508 80 CURVE SMOOTH",
"459 80 OFFCURVE",
"424 125 OFFCURVE",
"403 215 CURVE SMOOTH",
"382 305 OFFCURVE",
"371 459 OFFCURVE",
"371 676 CURVE SMOOTH",
"371 890 OFFCURVE",
"382 1041 OFFCURVE",
"403 1129 CURVE SMOOTH",
"424 1217 OFFCURVE",
"459 1261 OFFCURVE",
"508 1261 CURVE SMOOTH",
"558 1261 OFFCURVE",
"595 1216 OFFCURVE",
"618 1125 CURVE SMOOTH",
"641 1034 OFFCURVE",
"653 884 OFFCURVE",
"653 676 CURVE SMOOTH"
);
}
);
width = 1024;
}
);
note = zero;
unicode = 0030;
},
{
glyphname = one;
lastChange = "2025-02-05 21:35:02 +0000";
layers = (
{
layerId = "9CB754D2-AD8E-43A2-9483-C1400C56EABF";
paths = (
{
closed = 1;
nodes = (
"685 1352 LINE",
"543 1352 LINE",
"165 1130 LINE",
"165 1045 LINE",
"396 1121 LINE",
"396 110 LINE",
"164 86 LINE",
"164 0 LINE",
"918 0 LINE",
"918 86 LINE",
"685 110 LINE"
);
}
);
width = 1024;
}
);
note = one;
unicode = 0031;
},
{
glyphname = two;
lastChange = "2025-02-05 21:35:02 +0000";
layers = (
{
layerId = "9CB754D2-AD8E-43A2-9483-C1400C56EABF";
paths = (
{
closed = 1;
nodes = (
"936 226 LINE",
"278 226 LINE",
"345 285 OFFCURVE",
"407 338 OFFCURVE",
"464 385 CURVE SMOOTH",
"614 507 OFFCURVE",
"714 595 OFFCURVE",
"765 649 CURVE SMOOTH",
"865 757 OFFCURVE",
"910 866 OFFCURVE",
"910 1006 CURVE SMOOTH",
"910 1230 OFFCURVE",
"749 1356 OFFCURVE",
"454 1356 CURVE SMOOTH",
"334 1356 OFFCURVE",
"238 1337 OFFCURVE",
"131 1313 CURVE",
"131 1008 LINE",
"218 1008 LINE",
"261 1202 LINE",
"302 1237 OFFCURVE",
"345 1254 OFFCURVE",
"428 1254 CURVE SMOOTH",
"545 1254 OFFCURVE",
"622 1156 OFFCURVE",
"622 1011 CURVE SMOOTH",
"622 846 OFFCURVE",
"578 723 OFFCURVE",
"479 603 CURVE SMOOTH",
"430 542 OFFCURVE",
"352 459 OFFCURVE",
"245 354 CURVE SMOOTH",
"196 305 OFFCURVE",
"143 250 OFFCURVE",
"86 189 CURVE",
"86 0 LINE",
"936 0 LINE"
);
}
);
width = 1024;
}
);
note = two;
unicode = 0032;
},
{
glyphname = three;
lastChange = "2025-02-05 21:35:02 +0000";
layers = (
{
layerId = "9CB754D2-AD8E-43A2-9483-C1400C56EABF";
paths = (
{
closed = 1;
nodes = (
"954 562 OFFCURVE",
"841 675 OFFCURVE",
"616 702 CURVE",
"795 729 OFFCURVE",
"894 845 OFFCURVE",
"894 1026 CURVE SMOOTH",
"894 1246 OFFCURVE",
"744 1356 OFFCURVE",
"443 1356 CURVE SMOOTH",
"347 1356 OFFCURVE",
"257 1348 OFFCURVE",
"121 1313 CURVE",
"121 1008 LINE",
"208 1008 LINE",
"251 1202 LINE",
"292 1227 OFFCURVE",
"333 1254 OFFCURVE",
"405 1254 CURVE SMOOTH",
"529 1254 OFFCURVE",
"599 1163 OFFCURVE",
"599 1014 CURVE SMOOTH",
"599 854 OFFCURVE",
"544 777 OFFCURVE",
"425 769 CURVE SMOOTH",
"313 761 LINE",
"313 640 LINE",
"429 633 LINE SMOOTH",
"592 622 OFFCURVE",
"660 536 OFFCURVE",
"660 375 CURVE SMOOTH",
"660 190 OFFCURVE",
"564 81 OFFCURVE",
"403 81 CURVE SMOOTH",
"340 81 OFFCURVE",
"279 97 OFFCURVE",
"221 130 CURVE",
"169 345 LINE",
"77 345 LINE",
"89 20 LINE",
"212 -7 OFFCURVE",
"335 -20 OFFCURVE",
"459 -20 CURVE SMOOTH",
"770 -20 OFFCURVE",
"954 121 OFFCURVE",
"954 365 CURVE SMOOTH"
);
}
);
width = 1024;
}
);
note = three;
unicode = 0033;
},
{
glyphname = four;
lastChange = "2025-02-05 21:35:02 +0000";
layers = (
{
layerId = "9CB754D2-AD8E-43A2-9483-C1400C56EABF";
paths = (
{
closed = 1;
nodes = (
"986 265 LINE",
"986 470 LINE",
"852 470 LINE",
"852 1348 LINE",
"632 1348 LINE",
"28 428 LINE",
"28 265 LINE",
"583 265 LINE",
"583 0 LINE",
"852 0 LINE",
"852 265 LINE"
);
},
{
closed = 1;
nodes = (
"583 470 LINE",
"194 470 LINE",
"593 1079 LINE",
"586 1012 OFFCURVE",
"583 942 OFFCURVE",
"583 867 CURVE SMOOTH"
);
}
);
width = 1024;
}
);
note = four;
unicode = 0034;
},
{
glyphname = five;
lastChange = "2025-02-05 21:35:02 +0000";
layers = (
{
layerId = "9CB754D2-AD8E-43A2-9483-C1400C56EABF";
paths = (
{
closed = 1;
nodes = (
"415 793 OFFCURVE",
"341 784 OFFCURVE",
"260 766 CURVE",
"260 1118 LINE",
"849 1118 LINE",
"849 1341 LINE",
"149 1341 LINE",
"149 653 LINE",
"249 653 LINE",
"280 666 LINE SMOOTH",
"319 683 OFFCURVE",
"363 692 OFFCURVE",
"410 692 CURVE SMOOTH",
"581 692 OFFCURVE",
"655 602 OFFCURVE",
"655 389 CURVE SMOOTH",
"655 184 OFFCURVE",
"578 81 OFFCURVE",
"425 81 CURVE SMOOTH",
"364 81 OFFCURVE",
"278 101 OFFCURVE",
"226 130 CURVE",
"174 345 LINE",
"82 345 LINE",
"94 20 LINE",
"217 -7 OFFCURVE",
"340 -20 OFFCURVE",
"464 -20 CURVE SMOOTH",
"776 -20 OFFCURVE",
"949 130 OFFCURVE",
"949 399 CURVE SMOOTH",
"949 663 OFFCURVE",
"797 793 OFFCURVE",
"480 793 CURVE SMOOTH"
);
}
);
width = 1024;
}
);
note = five;
unicode = 0035;
},
{
glyphname = six;
lastChange = "2025-02-05 21:35:02 +0000";
layers = (
{
layerId = "9CB754D2-AD8E-43A2-9483-C1400C56EABF";
paths = (
{
closed = 1;
nodes = (
"964 673 OFFCURVE",
"826 815 OFFCURVE",
"582 815 CURVE SMOOTH",
"511 815 OFFCURVE",
"439 799 OFFCURVE",
"366 768 CURVE",
"373 921 OFFCURVE",
"398 1041 OFFCURVE",
"440 1126 CURVE SMOOTH",
"481 1211 OFFCURVE",
"535 1254 OFFCURVE",
"602 1254 CURVE SMOOTH",
"657 1254 OFFCURVE",
"707 1237 OFFCURVE",
"753 1202 CURVE",
"796 1008 LINE",
"883 1008 LINE",
"883 1313 LINE",
"786 1342 OFFCURVE",
"686 1356 OFFCURVE",
"582 1356 CURVE SMOOTH",
"381 1356 OFFCURVE",
"221 1244 OFFCURVE",
"135 1035 CURVE SMOOTH",
"92 930 OFFCURVE",
"70 806 OFFCURVE",
"70 662 CURVE SMOOTH",
"70 219 OFFCURVE",
"238 -20 OFFCURVE",
"545 -20 CURVE SMOOTH",
"813 -20 OFFCURVE",
"964 135 OFFCURVE",
"964 416 CURVE SMOOTH"
);
},
{
closed = 1;
nodes = (
"423 81 OFFCURVE",
"364 275 OFFCURVE",
"364 662 CURVE SMOOTH",
"364 667 LINE",
"415 682 OFFCURVE",
"466 690 OFFCURVE",
"515 690 CURVE SMOOTH",
"618 690 OFFCURVE",
"670 585 OFFCURVE",
"670 397 CURVE SMOOTH",
"670 292 OFFCURVE",
"661 213 OFFCURVE",
"642 160 CURVE SMOOTH",
"623 107 OFFCURVE",
"590 81 OFFCURVE",
"541 81 CURVE SMOOTH"
);
}
);
width = 1024;
}
);
note = six;
unicode = 0036;
},
{
glyphname = seven;
lastChange = "2025-02-05 21:35:02 +0000";
layers = (
{
layerId = "9CB754D2-AD8E-43A2-9483-C1400C56EABF";
paths = (
{
closed = 1;
nodes = (
"250 1118 LINE",
"779 1118 LINE",
"214 0 LINE",
"453 0 LINE",
"974 1262 LINE",
"974 1341 LINE",
"117 1341 LINE",
"117 958 LINE",
"204 958 LINE"
);
}
);
width = 1024;
}
);
note = seven;
unicode = 0037;
},
{
glyphname = eight;
lastChange = "2025-02-05 21:35:02 +0000";
layers = (
{
layerId = "9CB754D2-AD8E-43A2-9483-C1400C56EABF";
paths = (
{
closed = 1;
nodes = (
"925 1230 OFFCURVE",
"773 1362 OFFCURVE",
"514 1362 CURVE SMOOTH",
"250 1362 OFFCURVE",
"99 1233 OFFCURVE",
"99 1014 CURVE SMOOTH",
"99 865 OFFCURVE",
"173 760 OFFCURVE",
"302 711 CURVE",
"155 656 OFFCURVE",
"68 533 OFFCURVE",
"68 362 CURVE SMOOTH",
"68 107 OFFCURVE",
"214 -20 OFFCURVE",
"506 -20 CURVE SMOOTH",
"814 -20 OFFCURVE",
"956 109 OFFCURVE",
"956 362 CURVE SMOOTH",
"956 530 OFFCURVE",
"872 654 OFFCURVE",
"719 711 CURVE",
"850 758 OFFCURVE",
"925 864 OFFCURVE",
"925 1011 CURVE SMOOTH"
);
},
{
closed = 1;
nodes = (
"672 163 OFFCURVE",
"621 81 OFFCURVE",
"506 81 CURVE SMOOTH",
"398 81 OFFCURVE",
"352 155 OFFCURVE",
"352 362 CURVE SMOOTH",
"352 573 OFFCURVE",
"397 656 OFFCURVE",
"506 656 CURVE SMOOTH",
"621 656 OFFCURVE",
"672 567 OFFCURVE",
"672 362 CURVE SMOOTH"
);
},
{
closed = 1;
nodes = (
"641 834 OFFCURVE",
"600 763 OFFCURVE",
"508 763 CURVE SMOOTH",
"465 763 OFFCURVE",
"433 782 OFFCURVE",
"413 819 CURVE SMOOTH",
"393 856 OFFCURVE",
"383 920 OFFCURVE",
"383 1011 CURVE SMOOTH",
"383 1099 OFFCURVE",
"393 1163 OFFCURVE",
"414 1202 CURVE SMOOTH",
"434 1241 OFFCURVE",
"465 1261 OFFCURVE",
"508 1261 CURVE SMOOTH",
"597 1261 OFFCURVE",
"641 1186 OFFCURVE",
"641 1011 CURVE SMOOTH"
);
}
);
width = 1024;
}
);
note = eight;
unicode = 0038;
},
{
glyphname = nine;
lastChange = "2025-02-05 21:35:02 +0000";
layers = (
{
layerId = "9CB754D2-AD8E-43A2-9483-C1400C56EABF";
paths = (
{
closed = 1;
nodes = (
"56 672 OFFCURVE",
"205 521 OFFCURVE",
"446 521 CURVE SMOOTH",
"515 521 OFFCURVE",
"584 533 OFFCURVE",
"653 558 CURVE",
"646 403 OFFCURVE",
"623 285 OFFCURVE",
"583 204 CURVE SMOOTH",
"542 122 OFFCURVE",
"486 81 OFFCURVE",
"414 81 CURVE SMOOTH",
"354 81 OFFCURVE",
"284 101 OFFCURVE",
"237 134 CURVE",
"194 328 LINE",
"107 328 LINE",
"107 23 LINE",
"204 -6 OFFCURVE",
"307 -20 OFFCURVE",
"418 -20 CURVE SMOOTH",
"641 -20 OFFCURVE",
"802 86 OFFCURVE",
"887 293 CURVE SMOOTH",
"929 396 OFFCURVE",
"950 523 OFFCURVE",
"950 674 CURVE SMOOTH",
"950 1143 OFFCURVE",
"811 1356 OFFCURVE",
"498 1356 CURVE SMOOTH",
"221 1356 OFFCURVE",
"56 1204 OFFCURVE",
"56 932 CURVE SMOOTH"
);
},
{
closed = 1;
nodes = (
"350 1146 OFFCURVE",
"400 1255 OFFCURVE",
"500 1255 CURVE SMOOTH",
"558 1255 OFFCURVE",
"599 1206 OFFCURVE",
"622 1109 CURVE SMOOTH",
"645 1012 OFFCURVE",
"656 867 OFFCURVE",
"656 674 CURVE SMOOTH",
"656 660 LINE",
"607 648 OFFCURVE",
"557 642 OFFCURVE",
"506 642 CURVE SMOOTH",
"402 642 OFFCURVE",
"350 737 OFFCURVE",
"350 928 CURVE SMOOTH"
);
}
);
width = 1024;
}
);
note = nine;
unicode = 0039;
},
{
glyphname = colon;
lastChange = "2025-02-05 21:35:02 +0000";
layers = (
{
layerId = "9CB754D2-AD8E-43A2-9483-C1400C56EABF";
paths = (
{
closed = 1;
nodes = (
"426 -29 OFFCURVE",
"499 45 OFFCURVE",
"499 137 CURVE SMOOTH",
"499 230 OFFCURVE",
"425 303 OFFCURVE",
"333 303 CURVE SMOOTH",
"240 303 OFFCURVE",
"168 230 OFFCURVE",
"168 137 CURVE SMOOTH",
"168 44 OFFCURVE",
"240 -29 OFFCURVE",
"333 -29 CURVE SMOOTH"
);
},
{
closed = 1;
nodes = (
"426 628 OFFCURVE",
"499 702 OFFCURVE",
"499 794 CURVE SMOOTH",
"499 886 OFFCURVE",
"428 960 OFFCURVE",
"333 960 CURVE SMOOTH",
"237 960 OFFCURVE",
"168 887 OFFCURVE",
"168 794 CURVE SMOOTH",
"168 701 OFFCURVE",
"240 628 OFFCURVE",
"333 628 CURVE SMOOTH"
);
}
);
width = 682;
}
);
note = colon;
unicode = 003A;
},
{
glyphname = semicolon;
lastChange = "2025-02-05 21:35:02 +0000";
layers = (
{
layerId = "9CB754D2-AD8E-43A2-9483-C1400C56EABF";
paths = (
{
closed = 1;
nodes = (
"428 628 OFFCURVE",
"501 702 OFFCURVE",
"501 794 CURVE SMOOTH",
"501 886 OFFCURVE",
"430 960 OFFCURVE",
"335 960 CURVE SMOOTH",
"239 960 OFFCURVE",
"170 887 OFFCURVE",
"170 794 CURVE SMOOTH",
"170 701 OFFCURVE",
"242 628 OFFCURVE",
"335 628 CURVE SMOOTH"
);
},
{
closed = 1;
nodes = (
"514 221 OFFCURVE",
"428 301 OFFCURVE",
"317 301 CURVE SMOOTH",
"217 301 OFFCURVE",
"155 248 OFFCURVE",
"155 168 CURVE SMOOTH",
"155 112 OFFCURVE",
"181 71 OFFCURVE",
"232 44 CURVE SMOOTH",
"262 28 OFFCURVE",
"282 15 OFFCURVE",
"293 4 CURVE SMOOTH",
"304 -7 OFFCURVE",
"309 -20 OFFCURVE",
"309 -35 CURVE SMOOTH",
"309 -102 OFFCURVE",
"234 -186 OFFCURVE",
"106 -225 CURVE",
"106 -317 LINE",
"373 -246 OFFCURVE",
"514 -102 OFFCURVE",
"514 106 CURVE SMOOTH"
);
}
);
width = 682;
}
);
note = semicolon;
unicode = "003B,037E";
},
{
glyphname = less;
lastChange = "2025-02-05 21:35:02 +0000";
layers = (
{
layerId = "9CB754D2-AD8E-43A2-9483-C1400C56EABF";
paths = (
{
closed = 1;
nodes = (
"1054 166 LINE",
"1054 309 LINE",
"287 680 LINE",
"1054 1050 LINE",
"1054 1193 LINE",
"102 725 LINE",
"102 635 LINE"
);
}
);
width = 1167;
}
);
note = less;
unicode = 003C;
},
{
glyphname = equal;
lastChange = "2025-02-05 21:35:02 +0000";
layers = (
{
layerId = "9CB754D2-AD8E-43A2-9483-C1400C56EABF";
paths = (
{
closed = 1;
nodes = (
"102 547 LINE",
"102 403 LINE",
"1054 403 LINE",
"1054 547 LINE"
);
},
{
closed = 1;
nodes = (
"102 956 LINE",
"102 813 LINE",
"1054 813 LINE",
"1054 956 LINE"
);
}
);
width = 1167;
}
);
note = equal;
unicode = 003D;
},
{
glyphname = greater;
lastChange = "2025-02-05 21:35:02 +0000";
layers = (
{
layerId = "9CB754D2-AD8E-43A2-9483-C1400C56EABF";
paths = (
{
closed = 1;
nodes = (
"1056 635 LINE",
"1056 725 LINE",
"104 1193 LINE",
"104 1050 LINE",
"872 680 LINE",
"104 309 LINE",
"104 166 LINE"
);
}
);
width = 1167;
}
);
note = greater;
unicode = 003E;
},
{
glyphname = question;
lastChange = "2025-02-05 21:35:02 +0000";
layers = (
{
layerId = "9CB754D2-AD8E-43A2-9483-C1400C56EABF";
paths = (
{
closed = 1;
nodes = (
"538 -29 OFFCURVE",
"611 45 OFFCURVE",
"611 137 CURVE SMOOTH",
"611 230 OFFCURVE",
"537 303 OFFCURVE",
"445 303 CURVE SMOOTH",
"352 303 OFFCURVE",
"280 230 OFFCURVE",
"280 137 CURVE SMOOTH",
"280 44 OFFCURVE",
"352 -29 OFFCURVE",
"445 -29 CURVE SMOOTH"
);
},
{
closed = 1;
nodes = (
"518 592 LINE",
"605 616 LINE SMOOTH",
"794 669 OFFCURVE",
"902 808 OFFCURVE",
"902 1001 CURVE SMOOTH",
"902 1238 OFFCURVE",
"751 1356 OFFCURVE",
"448 1356 CURVE SMOOTH",
"343 1356 OFFCURVE",
"235 1342 OFFCURVE",
"124 1313 CURVE",
"124 1018 LINE",
"213 1018 LINE",
"256 1212 LINE",
"299 1240 OFFCURVE",
"349 1254 OFFCURVE",
"405 1254 CURVE SMOOTH",
"554 1254 OFFCURVE",
"613 1177 OFFCURVE",
"613 994 CURVE SMOOTH",
"613 847 OFFCURVE",
"565 764 OFFCURVE",
"426 728 CURVE SMOOTH",
"331 703 LINE",
"388 390 LINE",
"491 390 LINE"
);
}
);
width = 1024;
}
);
note = question;
unicode = 003F;
},
{
glyphname = at;
lastChange = "2025-02-05 21:35:02 +0000";
layers = (
{
layerId = "9CB754D2-AD8E-43A2-9483-C1400C56EABF";
paths = (
{
closed = 1;
nodes = (
"1798 1140 OFFCURVE",
"1538 1364 OFFCURVE",
"1083 1364 CURVE SMOOTH",
"720 1364 OFFCURVE",
"408 1187 OFFCURVE",
"236 879 CURVE SMOOTH",
"150 725 OFFCURVE",
"107 553 OFFCURVE",
"107 362 CURVE SMOOTH",
"107 -83 OFFCURVE",
"398 -389 OFFCURVE",
"864 -389 CURVE SMOOTH",
"1099 -389 OFFCURVE",
"1291 -325 OFFCURVE",
"1480 -173 CURVE",
"1436 -109 LINE",
"1255 -236 OFFCURVE",
"1091 -284 OFFCURVE",
"895 -284 CURVE SMOOTH",
"648 -284 OFFCURVE",
"461 -170 OFFCURVE",
"364 27 CURVE SMOOTH",
"315 125 OFFCURVE",
"291 237 OFFCURVE",
"291 363 CURVE SMOOTH",
"291 707 OFFCURVE",
"437 1001 OFFCURVE",
"675 1151 CURVE SMOOTH",
"794 1226 OFFCURVE",
"928 1263 OFFCURVE",
"1079 1263 CURVE SMOOTH",
"1412 1263 OFFCURVE",
"1614 1075 OFFCURVE",
"1614 751 CURVE SMOOTH",
"1614 548 OFFCURVE",
"1549 346 OFFCURVE",
"1445 239 CURVE SMOOTH",
"1393 186 OFFCURVE",
"1336 159 OFFCURVE",
"1273 159 CURVE SMOOTH",
"1229 159 OFFCURVE",
"1223 184 OFFCURVE",
"1223 215 CURVE SMOOTH",
"1223 242 OFFCURVE",
"1234 323 OFFCURVE",
"1246 372 CURVE SMOOTH",
"1367 913 LINE",
"1303 920 OFFCURVE",
"1242 924 OFFCURVE",
"1184 924 CURVE SMOOTH",
"948 924 OFFCURVE",
"813 864 OFFCURVE",
"693 746 CURVE SMOOTH",
"572 628 OFFCURVE",
"500 455 OFFCURVE",
"500 283 CURVE SMOOTH",
"500 126 OFFCURVE",
"571 25 OFFCURVE",
"686 25 CURVE SMOOTH",
"765 25 OFFCURVE",
"838 52 OFFCURVE",
"905 107 CURVE SMOOTH",
"957 150 LINE",
"960 67 OFFCURVE",
"1002 25 OFFCURVE",
"1085 25 CURVE SMOOTH",
"1332 25 OFFCURVE",
"1572 173 OFFCURVE",
"1701 397 CURVE SMOOTH",
"1766 508 OFFCURVE",
"1798 627 OFFCURVE",
"1798 752 CURVE SMOOTH"
);
},
{
closed = 1;
nodes = (
"740 487 OFFCURVE",
"796 681 OFFCURVE",
"868 751 CURVE SMOOTH",
"904 786 OFFCURVE",
"956 803 OFFCURVE",
"1024 803 CURVE SMOOTH",
"1053 803 OFFCURVE",
"1074 801 OFFCURVE",
"1085 798 CURVE",
"965 237 LINE",
"924 200 OFFCURVE",
"856 169 OFFCURVE",
"811 169 CURVE SMOOTH",
"792 169 OFFCURVE",
"776 182 OFFCURVE",
"762 207 CURVE SMOOTH",
"747 232 OFFCURVE",
"740 268 OFFCURVE",
"740 316 CURVE SMOOTH"
);
}
);
width = 1905;
}
);
note = at;
unicode = 0040;
},
{
glyphname = A;
lastChange = "2025-02-05 21:35:02 +0000";
layers = (
{
layerId = "9CB754D2-AD8E-43A2-9483-C1400C56EABF";
paths = (
{
closed = 1;
nodes = (
"256 100 LINE",
"379 447 LINE",
"894 447 LINE",
"1022 100 LINE",
"867 73 LINE",
"867 0 LINE",
"1464 0 LINE",
"1464 73 LINE",
"1362 100 LINE",
"887 1352 LINE",
"597 1352 LINE",
"120 100 LINE",
"20 73 LINE",
"20 0 LINE",
"428 0 LINE",
"428 73 LINE"
);
},
{
closed = 1;
nodes = (
"856 557 LINE",
"420 557 LINE",
"641 1150 LINE"
);
}
);
width = 1479;
}
);
note = A;
unicode = 0041;
},
{
glyphname = B;
lastChange = "2025-02-05 21:35:02 +0000";
layers = (
{
layerId = "9CB754D2-AD8E-43A2-9483-C1400C56EABF";
paths = (
{
closed = 1;
nodes = (
"878 831 OFFCURVE",
"812 764 OFFCURVE",
"669 764 CURVE SMOOTH",
"522 764 LINE",
"522 1231 LINE",
"661 1231 LINE SMOOTH",
"816 1231 OFFCURVE",
"878 1166 OFFCURVE",
"878 1010 CURVE SMOOTH"
);
},
{
closed = 1;
nodes = (
"979 198 OFFCURVE",
"905 104 OFFCURVE",
"749 104 CURVE SMOOTH",
"694 104 OFFCURVE",
"618 106 OFFCURVE",
"522 110 CURVE",
"522 654 LINE",
"695 654 LINE SMOOTH",
"896 654 OFFCURVE",
"979 568 OFFCURVE",
"979 391 CURVE SMOOTH"
);
},
{
closed = 1;
nodes = (
"296 0 LINE",
"752 -6 LINE SMOOTH",
"1111 -6 OFFCURVE",
"1309 131 OFFCURVE",
"1309 391 CURVE SMOOTH",
"1309 580 OFFCURVE",
"1179 692 OFFCURVE",
"930 717 CURVE",
"1098 753 OFFCURVE",
"1206 878 OFFCURVE",
"1206 1038 CURVE SMOOTH",
"1206 1251 OFFCURVE",
"1041 1341 OFFCURVE",
"685 1341 CURVE SMOOTH",
"34 1341 LINE",
"34 1268 LINE",
"207 1242 LINE",
"207 100 LINE",
"34 73 LINE",
"34 0 LINE"
);
}
);
width = 1366;
}
);
note = B;
unicode = 0042;
},
{
glyphname = C;
lastChange = "2025-02-05 21:35:02 +0000";
layers = (
{
layerId = "9CB754D2-AD8E-43A2-9483-C1400C56EABF";
paths = (
{
closed = 1;
nodes = (
"980 -20 OFFCURVE",
"1197 17 OFFCURVE",
"1317 64 CURVE",
"1323 404 LINE",
"1232 404 LINE",
"1200 184 LINE",
"1136 129 OFFCURVE",
"1021 83 OFFCURVE",
"870 83 CURVE SMOOTH",
"585 83 OFFCURVE",
"432 283 OFFCURVE",
"432 658 CURVE SMOOTH",
"432 1063 OFFCURVE",
"569 1251 OFFCURVE",
"878 1251 CURVE SMOOTH",
"995 1251 OFFCURVE",
"1097 1221 OFFCURVE",
"1185 1161 CURVE",
"1213 967 LINE",
"1303 967 LINE",
"1297 1289 LINE",
"1130 1334 OFFCURVE",
"969 1356 OFFCURVE",
"814 1356 CURVE SMOOTH",
"343 1356 OFFCURVE",
"100 1114 OFFCURVE",
"100 655 CURVE SMOOTH",
"100 232 OFFCURVE",
"366 -20 OFFCURVE",
"815 -20 CURVE SMOOTH"
);
}
);
width = 1479;
}
);
note = C;
unicode = 0043;
},
{
glyphname = D;
lastChange = "2025-02-05 21:35:02 +0000";
layers = (
{
layerId = "9CB754D2-AD8E-43A2-9483-C1400C56EABF";
paths = (
{
closed = 1;
nodes = (
"1047 386 OFFCURVE",
"1002 237 OFFCURVE",
"902 162 CURVE SMOOTH",
"851 125 OFFCURVE",
"783 106 OFFCURVE",
"696 106 CURVE SMOOTH",
"644 106 OFFCURVE",
"586 109 OFFCURVE",
"522 114 CURVE",
"522 1231 LINE",
"596 1231 LINE SMOOTH",
"915 1231 OFFCURVE",
"1047 1057 OFFCURVE",
"1047 670 CURVE SMOOTH"
);
},
{
closed = 1;
nodes = (
"36 1341 LINE",
"36 1268 LINE",
"208 1242 LINE",
"208 100 LINE",
"36 73 LINE",
"36 0 LINE",
"715 -4 LINE SMOOTH",
"1160 -4 OFFCURVE",
"1379 218 OFFCURVE",
"1379 678 CURVE SMOOTH",
"1379 1126 OFFCURVE",
"1154 1341 OFFCURVE",
"673 1341 CURVE SMOOTH"
);
}
);
width = 1479;
}
);
note = D;
unicode = 0044;
},
{
glyphname = E;
lastChange = "2025-02-05 21:35:02 +0000";
layers = (
{
layerId = "9CB754D2-AD8E-43A2-9483-C1400C56EABF";
paths = (
{
closed = 1;
nodes = (
"35 0 LINE",
"1242 0 LINE",
"1261 374 LINE",
"1170 374 LINE",
"1113 126 LINE",
"1060 115 OFFCURVE",
"947 110 OFFCURVE",
"775 110 CURVE SMOOTH",
"522 110 LINE",
"522 627 LINE",
"873 627 LINE",
"904 475 LINE",
"993 475 LINE",
"993 887 LINE",
"904 887 LINE",
"873 739 LINE",
"522 739 LINE",
"522 1231 LINE",
"730 1231 LINE SMOOTH",
"871 1231 OFFCURVE",
"979 1226 OFFCURVE",
"1054 1217 CURVE",
"1086 1000 LINE",
"1177 1000 LINE",
"1177 1341 LINE",
"35 1341 LINE",
"35 1268 LINE",
"207 1242 LINE",
"207 100 LINE",
"35 73 LINE"
);
}
);
width = 1366;
}
);
note = E;
unicode = 0045;
},
{
glyphname = F;
lastChange = "2025-02-05 21:35:02 +0000";
layers = (
{
layerId = "9CB754D2-AD8E-43A2-9483-C1400C56EABF";
paths = (
{
closed = 1;
nodes = (
"849 572 LINE",
"880 400 LINE",
"969 400 LINE",
"969 852 LINE",
"880 852 LINE",
"849 682 LINE",
"522 682 LINE",
"522 1231 LINE",
"687 1231 LINE SMOOTH",
"774 1231 OFFCURVE",
"962 1226 OFFCURVE",
"1027 1217 CURVE",
"1059 980 LINE",
"1153 980 LINE",
"1153 1341 LINE",
"35 1341 LINE",
"35 1268 LINE",
"207 1242 LINE",
"207 100 LINE",
"48 73 LINE",
"48 0 LINE",
"745 0 LINE",
"745 73 LINE",
"522 100 LINE",
"522 572 LINE"
);
}
);
width = 1251;
}
);
note = F;
unicode = 0046;
},
{
glyphname = G;
lastChange = "2025-02-05 21:35:02 +0000";
layers = (
{
layerId = "9CB754D2-AD8E-43A2-9483-C1400C56EABF";
paths = (
{
closed = 1;
nodes = (
"1406 506 LINE",
"1537 532 LINE",
"1537 606 LINE",
"919 606 LINE",
"919 532 LINE",
"1091 506 LINE",
"1091 118 LINE",
"1021 95 OFFCURVE",
"947 83 OFFCURVE",
"870 83 CURVE SMOOTH",
"586 83 OFFCURVE",
"432 280 OFFCURVE",
"432 657 CURVE SMOOTH",
"432 1062 OFFCURVE",
"567 1251 OFFCURVE",
"878 1251 CURVE SMOOTH",
"1013 1251 OFFCURVE",
"1143 1209 OFFCURVE",
"1248 1137 CURVE",
"1272 963 LINE",
"1362 963 LINE",
"1362 1271 LINE",
"1251 1302 OFFCURVE",
"1175 1322 OFFCURVE",
"1134 1330 CURVE SMOOTH",
"1051 1346 OFFCURVE",
"958 1356 OFFCURVE",
"842 1356 CURVE SMOOTH",
"366 1356 OFFCURVE",
"100 1104 OFFCURVE",
"100 655 CURVE SMOOTH",
"100 376 OFFCURVE",
"223 167 OFFCURVE",
"441 60 CURVE SMOOTH",
"550 7 OFFCURVE",
"677 -20 OFFCURVE",
"823 -20 CURVE SMOOTH",
"998 -20 OFFCURVE",
"1241 15 OFFCURVE",
"1406 70 CURVE"
);
}
);
width = 1593;
}
);
note = G;
unicode = 0047;
},
{
glyphname = H;
lastChange = "2025-02-05 21:35:02 +0000";
layers = (
{
layerId = "9CB754D2-AD8E-43A2-9483-C1400C56EABF";
paths = (
{
closed = 1;
nodes = (
"694 0 LINE",
"694 74 LINE",
"522 100 LINE",
"522 635 LINE",
"1070 635 LINE",
"1070 100 LINE",
"898 74 LINE",
"898 0 LINE",
"1559 0 LINE",
"1559 74 LINE",
"1386 100 LINE",
"1386 1241 LINE",
"1559 1268 LINE",
"1559 1341 LINE",
"898 1341 LINE",
"898 1268 LINE",
"1070 1241 LINE",
"1070 745 LINE",
"522 745 LINE",
"522 1241 LINE",
"694 1268 LINE",
"694 1341 LINE",
"35 1341 LINE",
"35 1268 LINE",
"207 1241 LINE",
"207 100 LINE",
"35 74 LINE",
"35 0 LINE"
);
}
);
width = 1593;
}
);
note = H;
unicode = 0048;
},
{
glyphname = I;
lastChange = "2025-02-05 21:35:02 +0000";
layers = (
{
layerId = "9CB754D2-AD8E-43A2-9483-C1400C56EABF";
paths = (
{
closed = 1;
nodes = (
"556 1241 LINE",
"728 1268 LINE",
"728 1341 LINE",
"69 1341 LINE",
"69 1268 LINE",
"241 1241 LINE",
"241 100 LINE",
"69 74 LINE",
"69 0 LINE",
"728 0 LINE",
"728 74 LINE",
"556 100 LINE"
);
}
);
width = 797;
}
);
note = I;
unicode = 0049;
},
{
glyphname = J;
lastChange = "2025-02-05 21:35:02 +0000";
layers = (
{
layerId = "9CB754D2-AD8E-43A2-9483-C1400C56EABF";
paths = (
{
closed = 1;
nodes = (
"501 276 LINE SMOOTH",
"501 151 OFFCURVE",
"433 86 OFFCURVE",
"341 86 CURVE SMOOTH",
"285 86 OFFCURVE",
"235 104 OFFCURVE",
"210 135 CURVE",
"180 314 LINE",
"91 314 LINE",
"91 10 LINE",
"148 -7 OFFCURVE",
"254 -20 OFFCURVE",
"354 -20 CURVE SMOOTH",
"650 -20 OFFCURVE",
"816 143 OFFCURVE",
"816 432 CURVE SMOOTH",
"816 1242 LINE",
"968 1268 LINE",
"968 1341 LINE",
"329 1341 LINE",
"329 1268 LINE",
"501 1242 LINE"
);
}
);
width = 1024;
}
);
note = J;
unicode = 004A;
},
{
glyphname = K;
lastChange = "2025-02-05 21:35:02 +0000";
layers = (
{
layerId = "9CB754D2-AD8E-43A2-9483-C1400C56EABF";
paths = (
{
closed = 1;
nodes = (
"1010 1341 LINE",
"1010 1268 LINE",
"1133 1242 LINE",
"522 696 LINE",
"522 1242 LINE",
"695 1268 LINE",
"695 1341 LINE",
"35 1341 LINE",
"35 1268 LINE",
"207 1242 LINE",
"207 100 LINE",
"35 73 LINE",
"35 0 LINE",
"715 0 LINE",
"715 73 LINE",
"522 100 LINE",
"522 546 LINE",
"638 646 LINE",
"1139 0 LINE",
"1577 0 LINE",
"1577 73 LINE",
"1452 100 LINE",
"862 851 LINE",
"1305 1242 LINE",
"1469 1268 LINE",
"1469 1341 LINE"
);
}
);
width = 1593;
}
);
note = K;
unicode = 004B;
},
{
glyphname = L;
lastChange = "2025-02-05 21:35:02 +0000";
layers = (
{
layerId = "9CB754D2-AD8E-43A2-9483-C1400C56EABF";
paths = (
{
closed = 1;
nodes = (
"729 1341 LINE",
"36 1341 LINE",
"36 1268 LINE",
"207 1242 LINE",
"207 100 LINE",
"35 73 LINE",
"35 0 LINE",
"1242 0 LINE",
"1280 405 LINE",
"1190 405 LINE",
"1108 126 LINE",
"1041 113 OFFCURVE",
"937 106 OFFCURVE",
"795 106 CURVE SMOOTH",
"522 106 LINE",
"522 1242 LINE",
"729 1268 LINE"
);
}
);
width = 1366;
}
);
note = L;
unicode = 004C;
},
{
glyphname = M;
lastChange = "2025-02-05 21:35:02 +0000";
layers = (
{
layerId = "9CB754D2-AD8E-43A2-9483-C1400C56EABF";
paths = (
{
closed = 1;
nodes = (
"1387 1133 LINE",
"1387 100 LINE",
"1207 73 LINE",
"1207 0 LINE",
"1874 0 LINE",
"1874 73 LINE",
"1702 100 LINE",
"1702 1242 LINE",
"1874 1268 LINE",
"1874 1341 LINE",
"1336 1341 LINE",
"945 459 LINE",
"562 1341 LINE",
"35 1341 LINE",
"35 1268 LINE",
"207 1242 LINE",
"207 100 LINE",
"35 73 LINE",
"35 0 LINE",
"512 0 LINE",
"512 73 LINE",
"332 100 LINE",
"332 1133 LINE",
"827 0 LINE",
"882 0 LINE"
);
}
);
width = 1933;
}
);
note = M;
unicode = 004D;
},
{
glyphname = N;
lastChange = "2025-02-05 21:35:02 +0000";
layers = (
{
layerId = "9CB754D2-AD8E-43A2-9483-C1400C56EABF";
paths = (
{
closed = 1;
nodes = (
"1155 484 LINE",
"498 1341 LINE",
"39 1341 LINE",
"39 1268 LINE",
"211 1242 LINE",
"211 100 LINE",
"39 73 LINE",
"39 0 LINE",
"516 0 LINE",
"516 73 LINE",
"336 100 LINE",
"336 1078 LINE",
"1163 0 LINE",
"1280 0 LINE",
"1280 1242 LINE",
"1452 1268 LINE",
"1452 1341 LINE",
"975 1341 LINE",
"975 1268 LINE",
"1155 1242 LINE"
);
}
);
width = 1479;
}
);
note = N;
unicode = 004E;
},
{
glyphname = O;
lastChange = "2025-02-05 21:35:02 +0000";
layers = (
{
layerId = "9CB754D2-AD8E-43A2-9483-C1400C56EABF";
paths = (
{
closed = 1;
nodes = (
"432 1095 OFFCURVE",
"544 1255 OFFCURVE",
"797 1255 CURVE SMOOTH",
"1049 1255 OFFCURVE",
"1161 1095 OFFCURVE",
"1161 672 CURVE SMOOTH",
"1161 248 OFFCURVE",
"1049 80 OFFCURVE",
"797 80 CURVE SMOOTH",
"544 80 OFFCURVE",
"432 247 OFFCURVE",
"432 672 CURVE SMOOTH"
);
},
{
closed = 1;
nodes = (
"100 216 OFFCURVE",
"345 -20 OFFCURVE",
"797 -20 CURVE SMOOTH",
"1250 -20 OFFCURVE",
"1493 217 OFFCURVE",
"1493 672 CURVE SMOOTH",
"1493 1121 OFFCURVE",
"1256 1356 OFFCURVE",
"797 1356 CURVE SMOOTH",
"332 1356 OFFCURVE",
"100 1128 OFFCURVE",
"100 672 CURVE SMOOTH"
);
}
);
width = 1593;
}
);
note = O;
unicode = 004F;
},
{
glyphname = P;
lastChange = "2025-02-05 21:35:02 +0000";
layers = (
{
layerId = "9CB754D2-AD8E-43A2-9483-C1400C56EABF";
paths = (
{
closed = 1;
nodes = (
"871 720 OFFCURVE",
"791 636 OFFCURVE",
"606 636 CURVE SMOOTH",
"523 636 LINE",
"523 1231 LINE",
"602 1231 LINE SMOOTH",
"802 1231 OFFCURVE",
"871 1157 OFFCURVE",
"871 944 CURVE SMOOTH"
);
},
{
closed = 1;
nodes = (
"703 526 LINE SMOOTH",
"1030 526 OFFCURVE",
"1193 666 OFFCURVE",
"1193 946 CURVE SMOOTH",
"1193 1218 OFFCURVE",
"1006 1341 OFFCURVE",
"626 1341 CURVE SMOOTH",
"35 1341 LINE",
"35 1268 LINE",
"207 1242 LINE",
"207 100 LINE",
"48 73 LINE",
"48 0 LINE",
"746 0 LINE",
"746 73 LINE",
"523 100 LINE",
"523 526 LINE"
);
}
);
width = 1251;
}
);
note = P;
unicode = 0050;
},
{
glyphname = Q;
lastChange = "2025-02-05 21:35:02 +0000";
layers = (
{
layerId = "9CB754D2-AD8E-43A2-9483-C1400C56EABF";
paths = (
{
closed = 1;
nodes = (
"100 223 OFFCURVE",
"341 -17 OFFCURVE",
"785 -20 CURVE",
"856 -110 OFFCURVE",
"907 -170 OFFCURVE",
"938 -201 CURVE SMOOTH",
"969 -232 OFFCURVE",
"1000 -257 OFFCURVE",
"1033 -276 CURVE SMOOTH",
"1097 -314 OFFCURVE",
"1170 -332 OFFCURVE",
"1267 -332 CURVE SMOOTH",
"1350 -332 OFFCURVE",
"1475 -304 OFFCURVE",
"1503 -291 CURVE",
"1503 -205 LINE",
"1483 -210 OFFCURVE",
"1456 -213 OFFCURVE",
"1421 -213 CURVE SMOOTH",
"1351 -213 OFFCURVE",
"1267 -152 OFFCURVE",
"1169 -29 CURVE SMOOTH",
"1119 32 LINE",
"1368 127 OFFCURVE",
"1493 341 OFFCURVE",
"1493 672 CURVE SMOOTH",
"1493 1121 OFFCURVE",
"1256 1356 OFFCURVE",
"797 1356 CURVE SMOOTH",
"332 1356 OFFCURVE",
"100 1128 OFFCURVE",
"100 672 CURVE SMOOTH"
);
},
{
closed = 1;
nodes = (
"432 1095 OFFCURVE",
"544 1255 OFFCURVE",
"797 1255 CURVE SMOOTH",
"1049 1255 OFFCURVE",
"1161 1095 OFFCURVE",
"1161 672 CURVE SMOOTH",
"1161 248 OFFCURVE",
"1049 80 OFFCURVE",
"797 80 CURVE SMOOTH",
"544 80 OFFCURVE",
"432 247 OFFCURVE",
"432 672 CURVE SMOOTH"
);
}
);
width = 1593;
}
);
note = Q;
unicode = 0051;
},
{
glyphname = R;
lastChange = "2025-02-05 21:35:02 +0000";
layers = (
{
layerId = "9CB754D2-AD8E-43A2-9483-C1400C56EABF";
paths = (
{
closed = 1;
nodes = (
"689 568 LINE",
"1063 0 LINE",
"1497 0 LINE",
"1497 73 LINE",
"1352 100 LINE",
"994 596 LINE",
"1174 651 OFFCURVE",
"1264 774 OFFCURVE",
"1264 966 CURVE SMOOTH",
"1264 1223 OFFCURVE",
"1071 1341 OFFCURVE",
"676 1341 CURVE SMOOTH",
"35 1341 LINE",
"35 1268 LINE",
"207 1242 LINE",
"207 100 LINE",
"48 73 LINE",
"48 0 LINE",
"695 0 LINE",
"695 73 LINE",
"523 100 LINE",
"523 568 LINE"
);
},
{
closed = 1;
nodes = (
"952 753 OFFCURVE",
"873 678 OFFCURVE",
"668 678 CURVE SMOOTH",
"523 678 LINE",
"523 1231 LINE",
"663 1231 LINE SMOOTH",
"883 1231 OFFCURVE",
"952 1164 OFFCURVE",
"952 964 CURVE SMOOTH"
);
}
);
width = 1479;
}
);
note = R;
unicode = 0052;
},
{
glyphname = S;
lastChange = "2025-02-05 21:35:02 +0000";
layers = (
{
layerId = "9CB754D2-AD8E-43A2-9483-C1400C56EABF";
paths = (
{
closed = 1;
nodes = (
"109 51 LINE",
"224 8 OFFCURVE",
"396 -20 OFFCURVE",
"549 -20 CURVE SMOOTH",
"884 -20 OFFCURVE",
"1052 122 OFFCURVE",
"1052 407 CURVE SMOOTH",
"1052 555 OFFCURVE",
"991 664 OFFCURVE",
"877 738 CURVE SMOOTH",
"820 775 OFFCURVE",
"715 818 OFFCURVE",
"562 868 CURVE SMOOTH",
"406 917 OFFCURVE",
"335 978 OFFCURVE",
"335 1067 CURVE SMOOTH",
"335 1192 OFFCURVE",
"426 1252 OFFCURVE",
"590 1252 CURVE SMOOTH",
"681 1252 OFFCURVE",
"760 1227 OFFCURVE",
"828 1178 CURVE",
"873 994 LINE",
"962 994 LINE",
"962 1313 LINE",
"826 1342 OFFCURVE",
"702 1356 OFFCURVE",
"590 1356 CURVE SMOOTH",
"281 1356 OFFCURVE",
"117 1230 OFFCURVE",
"117 994 CURVE SMOOTH",
"117 861 OFFCURVE",
"162 773 OFFCURVE",
"231 709 CURVE SMOOTH",
"266 677 OFFCURVE",
"308 649 OFFCURVE",
"359 626 CURVE SMOOTH",
"409 602 OFFCURVE",
"491 571 OFFCURVE",
"606 533 CURVE SMOOTH",
"762 480 OFFCURVE",
"832 416 OFFCURVE",
"832 317 CURVE SMOOTH",
"832 160 OFFCURVE",
"736 81 OFFCURVE",
"545 81 CURVE SMOOTH",
"424 81 OFFCURVE",
"298 131 OFFCURVE",
"242 196 CURVE",
"197 411 LINE",
"109 411 LINE"
);
}
);
width = 1139;
}
);
note = S;
unicode = 0053;
},
{
glyphname = T;
lastChange = "2025-02-05 21:35:02 +0000";
layers = (
{
layerId = "9CB754D2-AD8E-43A2-9483-C1400C56EABF";
paths = (
{
closed = 1;
nodes = (
"1052 0 LINE",
"1052 73 LINE",
"839 100 LINE",
"839 1233 LINE",
"888 1233 LINE SMOOTH",
"1051 1233 OFFCURVE",
"1161 1227 OFFCURVE",
"1216 1215 CURVE",
"1243 966 LINE",
"1335 966 LINE",
"1335 1341 LINE",
"32 1341 LINE",
"32 966 LINE",
"123 966 LINE",
"150 1215 LINE",
"212 1228 OFFCURVE",
"319 1235 OFFCURVE",
"472 1235 CURVE SMOOTH",
"523 1235 LINE",
"523 100 LINE",
"310 73 LINE",
"310 0 LINE"
);
}
);
width = 1366;
}
);
note = T;
unicode = 0054;
},
{
glyphname = U;
lastChange = "2025-02-05 21:35:02 +0000";
layers = (
{
layerId = "9CB754D2-AD8E-43A2-9483-C1400C56EABF";
paths = (
{
closed = 1;
nodes = (
"629 122 OFFCURVE",
"518 240 OFFCURVE",
"518 455 CURVE SMOOTH",
"518 1242 LINE",
"690 1268 LINE",
"690 1341 LINE",
"51 1341 LINE",
"51 1268 LINE",
"203 1242 LINE",
"203 469 LINE SMOOTH",
"203 153 OFFCURVE",
"400 -19 OFFCURVE",
"759 -19 CURVE SMOOTH",
"1091 -19 OFFCURVE",
"1276 152 OFFCURVE",
"1276 461 CURVE SMOOTH",
"1276 1242 LINE",
"1428 1268 LINE",
"1428 1341 LINE",
"972 1341 LINE",
"972 1268 LINE",
"1152 1242 LINE",
"1152 453 LINE SMOOTH",
"1152 236 OFFCURVE",
"1038 122 OFFCURVE",
"838 122 CURVE SMOOTH"
);
}
);
width = 1479;
}
);
note = U;
unicode = 0055;
},
{
glyphname = V;
lastChange = "2025-02-05 21:35:02 +0000";
layers = (
{
layerId = "9CB754D2-AD8E-43A2-9483-C1400C56EABF";
paths = (
{
closed = 1;
nodes = (
"1061 1341 LINE",
"1061 1268 LINE",
"1196 1241 LINE",
"844 362 LINE",
"467 1241 LINE",
"606 1268 LINE",
"606 1341 LINE",
"23 1341 LINE",
"23 1268 LINE",
"133 1241 LINE",
"678 -31 LINE",
"811 -31 LINE",
"1329 1241 LINE",
"1456 1268 LINE",
"1456 1341 LINE"
);
}
);
width = 1479;
}
);
note = V;
unicode = 0056;
},
{
glyphname = W;
lastChange = "2025-02-05 21:35:02 +0000";
layers = (
{
layerId = "9CB754D2-AD8E-43A2-9483-C1400C56EABF";
paths = (
{
closed = 1;
nodes = (
"1899 1242 LINE",
"2016 1268 LINE",
"2016 1341 LINE",
"1582 1341 LINE",
"1582 1268 LINE",
"1751 1242 LINE",
"1514 445 LINE",
"1199 1227 LINE",
"1074 1227 LINE",
"760 443 LINE",
"474 1242 LINE",
"631 1268 LINE",
"631 1341 LINE",
"29 1341 LINE",
"29 1268 LINE",
"146 1242 LINE",
"590 -31 LINE",
"713 -31 LINE",
"1044 796 LINE",
"1378 -31 LINE",
"1501 -31 LINE"
);
}
);
width = 2048;
}
);
note = W;
unicode = 0057;
},
{
glyphname = X;
lastChange = "2025-02-05 21:35:02 +0000";
layers = (
{
layerId = "9CB754D2-AD8E-43A2-9483-C1400C56EABF";
paths = (
{
closed = 1;
nodes = (
"682 547 LINE",
"972 100 LINE",
"802 73 LINE",
"802 0 LINE",
"1455 0 LINE",
"1455 73 LINE",
"1303 100 LINE",
"864 779 LINE",
"1229 1242 LINE",
"1377 1268 LINE",
"1377 1341 LINE",
"918 1341 LINE",
"918 1268 LINE",
"1084 1242 LINE",
"799 880 LINE",
"565 1242 LINE",
"735 1268 LINE",
"735 1341 LINE",
"82 1341 LINE",
"82 1268 LINE",
"233 1242 LINE",
"617 648 LINE",
"186 100 LINE",
"38 73 LINE",
"38 0 LINE",
"496 0 LINE",
"496 73 LINE",
"330 100 LINE"
);
}
);
width = 1479;
}
);
note = X;
unicode = 0058;
},
{
glyphname = Y;
lastChange = "2025-02-05 21:35:02 +0000";
layers = (
{
layerId = "9CB754D2-AD8E-43A2-9483-C1400C56EABF";
paths = (
{
closed = 1;
nodes = (
"1298 1242 LINE",
"1440 1268 LINE",
"1440 1341 LINE",
"984 1341 LINE",
"984 1268 LINE",
"1148 1242 LINE",
"852 680 LINE",
"546 1242 LINE",
"726 1268 LINE",
"726 1341 LINE",
"36 1341 LINE",
"36 1268 LINE",
"187 1242 LINE",
"595 522 LINE",
"595 100 LINE",
"382 73 LINE",
"382 0 LINE",
"1124 0 LINE",
"1124 73 LINE",
"911 100 LINE",
"911 528 LINE"
);
}
);
width = 1479;
}
);
note = Y;
unicode = 0059;
},
{
glyphname = Z;
lastChange = "2025-02-05 21:35:02 +0000";
layers = (
{
layerId = "9CB754D2-AD8E-43A2-9483-C1400C56EABF";
paths = (
{
closed = 1;
nodes = (
"98 0 LINE",
"1235 0 LINE",
"1262 393 LINE",
"1172 393 LINE",
"1113 137 LINE",
"1048 122 OFFCURVE",
"881 104 OFFCURVE",
"729 104 CURVE SMOOTH",
"449 104 LINE",
"1196 1235 LINE",
"1196 1341 LINE",
"160 1341 LINE",
"160 1004 LINE",
"249 1004 LINE",
"280 1215 LINE",
"342 1228 OFFCURVE",
"449 1235 OFFCURVE",
"600 1235 CURVE SMOOTH",
"840 1235 LINE",
"98 114 LINE"
);
}
);
width = 1366;
}
);
note = Z;
unicode = 005A;
},
{
glyphname = bracketleft;
lastChange = "2025-02-05 21:35:02 +0000";
layers = (
{
layerId = "9CB754D2-AD8E-43A2-9483-C1400C56EABF";
paths = (
{
closed = 1;
nodes = (
"608 -274 LINE",
"608 -207 LINE",
"405 -166 LINE",
"405 1313 LINE",
"608 1354 LINE",
"608 1421 LINE",
"152 1421 LINE",
"152 -274 LINE"
);
}
);
width = 682;
}
);
note = bracketleft;
unicode = 005B;
},
{
glyphname = backslash;
lastChange = "2025-02-05 21:35:02 +0000";
layers = (
{
layerId = "9CB754D2-AD8E-43A2-9483-C1400C56EABF";
paths = (
{
closed = 1;
nodes = (
"449 -20 LINE",
"590 -20 LINE",
"120 1349 LINE",
"-20 1349 LINE"
);
}
);
width = 569;
}
);
note = backslash;
unicode = 005C;
},
{
glyphname = bracketright;
lastChange = "2025-02-05 21:35:02 +0000";
layers = (
{
layerId = "9CB754D2-AD8E-43A2-9483-C1400C56EABF";
paths = (
{
closed = 1;
nodes = (
"530 -274 LINE",
"530 1421 LINE",
"74 1421 LINE",
"74 1354 LINE",
"277 1313 LINE",
"277 -166 LINE",
"74 -207 LINE",
"74 -274 LINE"
);
}
);
width = 682;
}
);
note = bracketright;
unicode = 005D;
},
{
glyphname = asciicircum;
lastChange = "2025-02-05 21:35:02 +0000";
layers = (
{
layerId = "9CB754D2-AD8E-43A2-9483-C1400C56EABF";
paths = (
{
closed = 1;
nodes = (
"1068 389 LINE",
"640 1341 LINE",
"550 1341 LINE",
"122 389 LINE",
"265 389 LINE",
"595 1150 LINE",
"925 389 LINE"
);
}
);
width = 1190;
}
);
note = asciicircum;
unicode = 005E;
},
{
glyphname = underscore;
lastChange = "2025-02-05 21:35:02 +0000";
layers = (
{
layerId = "9CB754D2-AD8E-43A2-9483-C1400C56EABF";
paths = (
{
closed = 1;
nodes = (
"1040 -285 LINE",
"1040 -141 LINE",
"-16 -141 LINE",
"-16 -285 LINE"
);
}
);
width = 1024;
}
);
note = underscore;
unicode = 005F;
},
{
glyphname = grave;
lastChange = "2025-02-05 21:35:02 +0000";
layers = (
{
layerId = "9CB754D2-AD8E-43A2-9483-C1400C56EABF";
paths = (
{
closed = 1;
nodes = (
"538 1118 LINE",
"538 1150 LINE",
"373 1423 LINE",
"88 1423 LINE",
"88 1386 LINE",
"452 1118 LINE"
);
}
);
width = 682;
}
);
note = grave;
unicode = 0060;
},
{
glyphname = a;
lastChange = "2025-02-05 21:35:02 +0000";
layers = (
{
layerId = "9CB754D2-AD8E-43A2-9483-C1400C56EABF";
paths = (
{
closed = 1;
nodes = (
"447 961 OFFCURVE",
"380 957 OFFCURVE",
"179 926 CURVE",
"179 699 LINE",
"245 699 LINE",
"283 816 LINE",
"352 851 OFFCURVE",
"415 868 OFFCURVE",
"471 868 CURVE SMOOTH",
"564 868 OFFCURVE",
"610 811 OFFCURVE",
"610 698 CURVE SMOOTH",
"610 561 LINE",
"488 558 LINE SMOOTH",
"256 553 OFFCURVE",
"166 514 OFFCURVE",
"109 430 CURVE SMOOTH",
"80 387 OFFCURVE",
"66 331 OFFCURVE",
"66 260 CURVE SMOOTH",
"66 73 OFFCURVE",
"163 -20 OFFCURVE",
"357 -20 CURVE SMOOTH",
"442 -20 OFFCURVE",
"521 1 OFFCURVE",
"625 72 CURVE",
"647 0 LINE",
"993 0 LINE",
"993 66 LINE",
"899 90 LINE",
"899 701 LINE SMOOTH",
"899 874 OFFCURVE",
"781 961 OFFCURVE",
"546 961 CURVE SMOOTH"
);
},
{
closed = 1;
nodes = (
"610 136 LINE",
"557 113 OFFCURVE",
"507 101 OFFCURVE",
"462 101 CURVE SMOOTH",
"398 101 OFFCURVE",
"354 153 OFFCURVE",
"354 266 CURVE SMOOTH",
"354 406 OFFCURVE",
"397 464 OFFCURVE",
"526 469 CURVE SMOOTH",
"610 472 LINE"
);
}
);
width = 1024;
}
);
note = a;
unicode = 0061;
},
{
glyphname = b;
lastChange = "2025-02-05 21:35:02 +0000";
layers = (
{
layerId = "9CB754D2-AD8E-43A2-9483-C1400C56EABF";
paths = (
{
closed = 1;
nodes = (
"763 351 OFFCURVE",
"747 246 OFFCURVE",
"715 182 CURVE SMOOTH",
"683 117 OFFCURVE",
"634 85 OFFCURVE",
"568 85 CURVE SMOOTH",
"506 85 OFFCURVE",
"454 90 OFFCURVE",
"411 101 CURVE",
"411 820 LINE",
"450 843 OFFCURVE",
"517 854 OFFCURVE",
"568 854 CURVE SMOOTH",
"707 854 OFFCURVE",
"763 744 OFFCURVE",
"763 497 CURVE SMOOTH"
);
},
{
closed = 1;
nodes = (
"122 48 LINE",
"330 3 OFFCURVE",
"488 -20 OFFCURVE",
"596 -20 CURVE SMOOTH",
"888 -20 OFFCURVE",
"1056 173 OFFCURVE",
"1056 496 CURVE SMOOTH",
"1056 823 OFFCURVE",
"936 965 OFFCURVE",
"664 965 CURVE SMOOTH",
"568 965 OFFCURVE",
"454 931 OFFCURVE",
"401 887 CURVE",
"408 951 OFFCURVE",
"411 1014 OFFCURVE",
"411 1076 CURVE SMOOTH",
"411 1421 LINE",
"26 1421 LINE",
"26 1356 LINE",
"122 1333 LINE"
);
}
);
width = 1139;
}
);
note = b;
unicode = 0062;
},
{
glyphname = c;
lastChange = "2025-02-05 21:35:02 +0000";
layers = (
{
layerId = "9CB754D2-AD8E-43A2-9483-C1400C56EABF";
paths = (
{
closed = 1;
nodes = (
"858 134 LINE",
"793 115 OFFCURVE",
"714 105 OFFCURVE",
"622 105 CURVE SMOOTH",
"441 105 OFFCURVE",
"361 210 OFFCURVE",
"361 478 CURVE SMOOTH",
"361 715 OFFCURVE",
"450 862 OFFCURVE",
"569 862 CURVE SMOOTH",
"641 862 OFFCURVE",
"678 850 OFFCURVE",
"723 817 CURVE",
"765 652 LINE",
"837 652 LINE",
"837 930 LINE",
"727 953 OFFCURVE",
"625 965 OFFCURVE",
"532 965 CURVE SMOOTH",
"347 965 OFFCURVE",
"202 885 OFFCURVE",
"127 738 CURVE SMOOTH",
"89 664 OFFCURVE",
"70 575 OFFCURVE",
"70 472 CURVE SMOOTH",
"70 140 OFFCURVE",
"235 -19 OFFCURVE",
"570 -19 CURVE SMOOTH",
"682 -19 OFFCURVE",
"798 9 OFFCURVE",
"858 57 CURVE"
);
}
);
width = 909;
}
);
note = c;
unicode = 0063;
},
{
glyphname = d;
lastChange = "2025-02-05 21:35:02 +0000";
layers = (
{
layerId = "9CB754D2-AD8E-43A2-9483-C1400C56EABF";
paths = (
{
closed = 1;
nodes = (
"754 0 LINE",
"1116 0 LINE",
"1116 66 LINE",
"1013 90 LINE",
"1013 1421 LINE",
"628 1421 LINE",
"628 1355 LINE",
"724 1331 LINE",
"724 1093 LINE SMOOTH",
"724 1012 OFFCURVE",
"726 960 OFFCURVE",
"730 938 CURVE",
"656 956 OFFCURVE",
"583 965 OFFCURVE",
"510 965 CURVE SMOOTH",
"233 965 OFFCURVE",
"83 792 OFFCURVE",
"83 467 CURVE SMOOTH",
"83 136 OFFCURVE",
"218 -20 OFFCURVE",
"495 -20 CURVE SMOOTH",
"556 -20 OFFCURVE",
"607 -10 OFFCURVE",
"647 6 CURVE SMOOTH",
"667 13 OFFCURVE",
"696 29 OFFCURVE",
"733 53 CURVE"
);
},
{
closed = 1;
nodes = (
"376 730 OFFCURVE",
"446 863 OFFCURVE",
"566 863 CURVE SMOOTH",
"619 863 OFFCURVE",
"672 856 OFFCURVE",
"724 842 CURVE",
"724 134 LINE",
"667 105 OFFCURVE",
"611 91 OFFCURVE",
"558 91 CURVE SMOOTH",
"441 91 OFFCURVE",
"376 226 OFFCURVE",
"376 475 CURVE SMOOTH"
);
}
);
width = 1139;
}
);
note = d;
unicode = 0064;
},
{
glyphname = e;
lastChange = "2025-02-05 21:35:02 +0000";
layers = (
{
layerId = "9CB754D2-AD8E-43A2-9483-C1400C56EABF";
paths = (
{
closed = 1;
nodes = (
"210 963 OFFCURVE",
"70 803 OFFCURVE",
"70 475 CURVE SMOOTH",
"70 138 OFFCURVE",
"214 -19 OFFCURVE",
"522 -19 CURVE SMOOTH",
"633 -19 OFFCURVE",
"762 13 OFFCURVE",
"835 57 CURVE",
"835 134 LINE",
"746 115 OFFCURVE",
"672 105 OFFCURVE",
"613 105 CURVE SMOOTH",
"488 105 OFFCURVE",
"419 150 OFFCURVE",
"387 234 CURVE SMOOTH",
"371 276 OFFCURVE",
"363 347 OFFCURVE",
"363 446 CURVE SMOOTH",
"363 462 LINE",
"856 462 LINE",
"856 544 LINE SMOOTH",
"856 831 OFFCURVE",
"749 963 OFFCURVE",
"494 963 CURVE SMOOTH"
);
},
{
closed = 1;
nodes = (
"534 862 OFFCURVE",
"561 828 OFFCURVE",
"573 756 CURVE SMOOTH",
"579 719 OFFCURVE",
"582 656 OFFCURVE",
"582 567 CURVE",
"364 567 LINE",
"364 677 OFFCURVE",
"374 754 OFFCURVE",
"394 797 CURVE SMOOTH",
"413 840 OFFCURVE",
"443 862 OFFCURVE",
"483 862 CURVE SMOOTH"
);
}
);
width = 909;
}
);
note = e;
unicode = 0065;
},
{
glyphname = f;
lastChange = "2025-02-05 21:35:02 +0000";
layers = (
{
layerId = "9CB754D2-AD8E-43A2-9483-C1400C56EABF";
paths = (
{
closed = 1;
nodes = (
"157 90 LINE",
"55 66 LINE",
"55 0 LINE",
"599 0 LINE",
"599 66 LINE",
"446 90 LINE",
"446 836 LINE",
"637 836 LINE",
"637 940 LINE",
"446 940 LINE",
"446 1077 LINE SMOOTH",
"446 1247 OFFCURVE",
"479 1332 OFFCURVE",
"546 1332 CURVE SMOOTH",
"572 1332 OFFCURVE",
"593 1324 OFFCURVE",
"609 1308 CURVE",
"638 1199 LINE",
"702 1199 LINE",
"702 1423 LINE",
"657 1436 OFFCURVE",
"602 1442 OFFCURVE",
"536 1442 CURVE SMOOTH",
"292 1442 OFFCURVE",
"157 1301 OFFCURVE",
"157 1045 CURVE SMOOTH",
"157 944 LINE",
"15 905 LINE",
"15 836 LINE",
"157 836 LINE"
);
}
);
width = 682;
}
);
note = f;
unicode = 0066;
},
{
glyphname = g;
lastChange = "2025-02-05 21:35:02 +0000";
layers = (
{
layerId = "9CB754D2-AD8E-43A2-9483-C1400C56EABF";
paths = (
{
closed = 1;
nodes = (
"90 157 LINE",
"90 73 OFFCURVE",
"153 -12 OFFCURVE",
"232 -43 CURVE",
"162 -84 OFFCURVE",
"115 -118 OFFCURVE",
"91 -146 CURVE SMOOTH",
"66 -174 OFFCURVE",
"54 -203 OFFCURVE",
"54 -233 CURVE SMOOTH",
"54 -369 OFFCURVE",
"210 -452 OFFCURVE",
"482 -452 CURVE SMOOTH",
"711 -452 OFFCURVE",
"865 -390 OFFCURVE",
"945 -285 CURVE SMOOTH",
"984 -233 OFFCURVE",
"1004 -171 OFFCURVE",
"1004 -98 CURVE SMOOTH",
"1004 78 OFFCURVE",
"890 166 OFFCURVE",
"661 166 CURVE SMOOTH",
"442 166 LINE SMOOTH",
"374 166 OFFCURVE",
"322 207 OFFCURVE",
"319 246 CURVE",
"343 322 LINE",
"392 314 OFFCURVE",
"443 310 OFFCURVE",
"496 310 CURVE SMOOTH",
"771 310 OFFCURVE",
"917 428 OFFCURVE",
"917 640 CURVE SMOOTH",
"917 727 OFFCURVE",
"896 795 OFFCURVE",
"855 846 CURVE",
"969 1008 LINE",
"934 1051 LINE",
"709 940 LINE",
"668 953 OFFCURVE",
"557 965 OFFCURVE",
"500 965 CURVE SMOOTH",
"229 965 OFFCURVE",
"79 848 OFFCURVE",
"79 640 CURVE SMOOTH",
"79 495 OFFCURVE",
"138 397 OFFCURVE",
"257 347 CURVE"
);
},
{
closed = 1;
nodes = (
"785 -278 OFFCURVE",
"676 -344 OFFCURVE",
"483 -344 CURVE SMOOTH",
"340 -344 OFFCURVE",
"253 -301 OFFCURVE",
"253 -216 CURVE SMOOTH",
"253 -162 OFFCURVE",
"282 -114 OFFCURVE",
"341 -71 CURVE",
"658 -71 LINE SMOOTH",
"743 -71 OFFCURVE",
"785 -103 OFFCURVE",
"785 -166 CURVE SMOOTH"
);
},
{
closed = 1;
nodes = (
"401 410 OFFCURVE",
"362 487 OFFCURVE",
"362 640 CURVE SMOOTH",
"362 793 OFFCURVE",
"402 864 OFFCURVE",
"494 864 CURVE SMOOTH",
"594 864 OFFCURVE",
"634 793 OFFCURVE",
"634 640 CURVE SMOOTH",
"634 487 OFFCURVE",
"593 410 OFFCURVE",
"494 410 CURVE SMOOTH"
);
}
);
width = 1024;
}
);
note = g;
unicode = 0067;
},
{
glyphname = h;
lastChange = "2025-02-05 21:35:02 +0000";
layers = (
{
layerId = "9CB754D2-AD8E-43A2-9483-C1400C56EABF";
paths = (
{
closed = 1;
nodes = (
"436 1421 LINE",
"51 1421 LINE",
"51 1355 LINE",
"147 1331 LINE",
"147 90 LINE",
"55 66 LINE",
"55 0 LINE",
"522 0 LINE",
"522 66 LINE",
"436 90 LINE",
"436 793 LINE",
"487 816 OFFCURVE",
"537 827 OFFCURVE",
"588 827 CURVE SMOOTH",
"676 827 OFFCURVE",
"725 761 OFFCURVE",
"725 649 CURVE SMOOTH",
"725 90 LINE",
"641 66 LINE",
"641 0 LINE",
"1108 0 LINE",
"1108 66 LINE",
"1014 90 LINE",
"1014 688 LINE SMOOTH",
"1014 873 OFFCURVE",
"927 965 OFFCURVE",
"754 965 CURVE SMOOTH",
"679 965 OFFCURVE",
"594 941 OFFCURVE",
"499 893 CURVE SMOOTH",
"430 858 LINE",
"434 918 OFFCURVE",
"436 970 OFFCURVE",
"436 1014 CURVE SMOOTH"
);
}
);
width = 1139;
}
);
note = h;
unicode = 0068;
},
{
glyphname = i;
lastChange = "2025-02-05 21:35:02 +0000";
layers = (
{
layerId = "9CB754D2-AD8E-43A2-9483-C1400C56EABF";
paths = (
{
closed = 1;
nodes = (
"436 940 LINE",
"51 940 LINE",
"51 874 LINE",
"147 850 LINE",
"147 90 LINE",
"45 66 LINE",
"45 0 LINE",
"539 0 LINE",
"539 66 LINE",
"436 90 LINE"
);
},
{
closed = 1;
nodes = (
"137 1181 OFFCURVE",
"206 1114 OFFCURVE",
"291 1114 CURVE SMOOTH",
"378 1114 OFFCURVE",
"444 1184 OFFCURVE",
"444 1268 CURVE SMOOTH",
"444 1353 OFFCURVE",
"376 1421 OFFCURVE",
"291 1421 CURVE SMOOTH",
"207 1421 OFFCURVE",
"137 1355 OFFCURVE",
"137 1268 CURVE SMOOTH"
);
}
);
width = 569;
}
);
note = i;
unicode = 0069;
},
{
glyphname = j;
lastChange = "2025-02-05 21:35:02 +0000";
layers = (
{
layerId = "9CB754D2-AD8E-43A2-9483-C1400C56EABF";
paths = (
{
closed = 1;
nodes = (
"553 1353 OFFCURVE",
"484 1421 OFFCURVE",
"400 1421 CURVE SMOOTH",
"313 1421 OFFCURVE",
"246 1352 OFFCURVE",
"246 1268 CURVE SMOOTH",
"246 1181 OFFCURVE",
"315 1114 OFFCURVE",
"400 1114 CURVE SMOOTH",
"485 1114 OFFCURVE",
"553 1183 OFFCURVE",
"553 1268 CURVE SMOOTH"
);
},
{
closed = 1;
nodes = (
"545 940 LINE",
"90 940 LINE",
"90 874 LINE",
"256 840 LINE",
"256 -71 LINE SMOOTH",
"256 -152 OFFCURVE",
"246 -215 OFFCURVE",
"225 -259 CURVE SMOOTH",
"204 -304 OFFCURVE",
"175 -326 OFFCURVE",
"139 -326 CURVE SMOOTH",
"122 -326 OFFCURVE",
"106 -320 OFFCURVE",
"90 -307 CURVE",
"47 -193 LINE",
"-17 -193 LINE",
"-17 -418 LINE",
"38 -430 OFFCURVE",
"96 -436 OFFCURVE",
"155 -436 CURVE SMOOTH",
"404 -436 OFFCURVE",
"545 -290 OFFCURVE",
"545 -39 CURVE SMOOTH"
);
}
);
width = 682;
}
);
note = j;
unicode = 006A;
},
{
glyphname = k;
lastChange = "2025-02-05 21:35:02 +0000";
layers = (
{
layerId = "9CB754D2-AD8E-43A2-9483-C1400C56EABF";
paths = (
{
closed = 1;
nodes = (
"436 1421 LINE",
"51 1421 LINE",
"51 1355 LINE",
"147 1331 LINE",
"147 90 LINE",
"58 66 LINE",
"58 0 LINE",
"529 0 LINE",
"529 66 LINE",
"436 90 LINE",
"436 339 LINE",
"551 419 LINE",
"739 90 LINE",
"684 66 LINE",
"684 0 LINE",
"1136 0 LINE",
"1136 66 LINE",
"1052 90 LINE",
"729 616 LINE",
"953 852 LINE",
"1061 874 LINE",
"1061 940 LINE",
"703 940 LINE",
"703 874 LINE",
"803 851 LINE",
"436 451 LINE"
);
}
);
width = 1139;
}
);
note = k;
unicode = 006B;
},
{
glyphname = l;
lastChange = "2025-02-05 21:35:02 +0000";
layers = (
{
layerId = "9CB754D2-AD8E-43A2-9483-C1400C56EABF";
paths = (
{
closed = 1;
nodes = (
"431 1421 LINE",
"46 1421 LINE",
"46 1355 LINE",
"142 1331 LINE",
"142 90 LINE",
"40 66 LINE",
"40 0 LINE",
"534 0 LINE",
"534 66 LINE",
"431 90 LINE"
);
}
);
width = 569;
}
);
note = l;
unicode = 006C;
},
{
glyphname = m;
lastChange = "2025-02-05 21:35:02 +0000";
layers = (
{
layerId = "9CB754D2-AD8E-43A2-9483-C1400C56EABF";
paths = (
{
closed = 1;
nodes = (
"420 940 LINE",
"55 940 LINE",
"55 874 LINE",
"147 850 LINE",
"147 90 LINE",
"55 66 LINE",
"55 0 LINE",
"522 0 LINE",
"522 66 LINE",
"436 90 LINE",
"436 788 LINE",
"493 814 OFFCURVE",
"543 827 OFFCURVE",
"587 827 CURVE SMOOTH",
"675 827 OFFCURVE",
"718 761 OFFCURVE",
"718 649 CURVE SMOOTH",
"718 90 LINE",
"634 66 LINE",
"634 0 LINE",
"1101 0 LINE",
"1101 66 LINE",
"1007 90 LINE",
"1007 688 LINE SMOOTH",
"1007 725 OFFCURVE",
"1004 757 OFFCURVE",
"997 785 CURVE",
"1054 813 OFFCURVE",
"1108 827 OFFCURVE",
"1157 827 CURVE SMOOTH",
"1245 827 OFFCURVE",
"1288 761 OFFCURVE",
"1288 649 CURVE SMOOTH",
"1288 90 LINE",
"1204 66 LINE",
"1204 0 LINE",
"1671 0 LINE",
"1671 66 LINE",
"1577 90 LINE",
"1577 688 LINE SMOOTH",
"1577 873 OFFCURVE",
"1492 965 OFFCURVE",
"1323 965 CURVE SMOOTH",
"1229 965 OFFCURVE",
"1114 924 OFFCURVE",
"977 843 CURVE",
"940 924 OFFCURVE",
"865 965 OFFCURVE",
"753 965 CURVE SMOOTH",
"679 965 OFFCURVE",
"595 941 OFFCURVE",
"502 893 CURVE SMOOTH",
"434 858 LINE"
);
}
);
width = 1706;
}
);
note = m;
unicode = 006D;
},
{
glyphname = n;
lastChange = "2025-02-05 21:35:02 +0000";
layers = (
{
layerId = "9CB754D2-AD8E-43A2-9483-C1400C56EABF";
paths = (
{
closed = 1;
nodes = (
"420 940 LINE",
"55 940 LINE",
"55 874 LINE",
"147 850 LINE",
"147 90 LINE",
"55 66 LINE",
"55 0 LINE",
"522 0 LINE",
"522 66 LINE",
"436 90 LINE",
"436 793 LINE",
"487 816 OFFCURVE",
"537 827 OFFCURVE",
"588 827 CURVE SMOOTH",
"676 827 OFFCURVE",
"725 761 OFFCURVE",
"725 649 CURVE SMOOTH",
"725 90 LINE",
"641 66 LINE",
"641 0 LINE",
"1108 0 LINE",
"1108 66 LINE",
"1014 90 LINE",
"1014 688 LINE SMOOTH",
"1014 873 OFFCURVE",
"927 965 OFFCURVE",
"754 965 CURVE SMOOTH",
"679 965 OFFCURVE",
"595 941 OFFCURVE",
"502 893 CURVE SMOOTH",
"434 858 LINE"
);
}
);
width = 1139;
}
);
note = n;
unicode = 006E;
},
{
glyphname = o;
lastChange = "2025-02-05 21:35:02 +0000";
layers = (
{
layerId = "9CB754D2-AD8E-43A2-9483-C1400C56EABF";
paths = (
{
closed = 1;
nodes = (
"946 796 OFFCURVE",
"811 965 OFFCURVE",
"514 965 CURVE SMOOTH",
"219 965 OFFCURVE",
"78 807 OFFCURVE",
"78 475 CURVE SMOOTH",
"78 142 OFFCURVE",
"218 -20 OFFCURVE",
"506 -20 CURVE SMOOTH",
"803 -20 OFFCURVE",
"946 138 OFFCURVE",
"946 475 CURVE SMOOTH"
);
},
{
closed = 1;
nodes = (
"653 327 OFFCURVE",
"642 224 OFFCURVE",
"620 167 CURVE SMOOTH",
"598 109 OFFCURVE",
"561 80 OFFCURVE",
"508 80 CURVE SMOOTH",
"457 80 OFFCURVE",
"422 107 OFFCURVE",
"402 162 CURVE SMOOTH",
"381 217 OFFCURVE",
"371 321 OFFCURVE",
"371 475 CURVE SMOOTH",
"371 626 OFFCURVE",
"381 729 OFFCURVE",
"401 783 CURVE SMOOTH",
"421 837 OFFCURVE",
"457 864 OFFCURVE",
"508 864 CURVE SMOOTH",
"561 864 OFFCURVE",
"599 836 OFFCURVE",
"621 780 CURVE SMOOTH",
"642 723 OFFCURVE",
"653 622 OFFCURVE",
"653 475 CURVE SMOOTH"
);
}
);
width = 1024;
}
);
note = o;
unicode = 006F;
},
{
glyphname = p;
lastChange = "2025-02-05 21:35:02 +0000";
layers = (
{
layerId = "9CB754D2-AD8E-43A2-9483-C1400C56EABF";
paths = (
{
closed = 1;
nodes = (
"407 940 LINE",
"26 940 LINE",
"26 874 LINE",
"129 850 LINE",
"129 -346 LINE",
"27 -370 LINE",
"27 -436 LINE",
"556 -436 LINE",
"556 -370 LINE",
"418 -346 LINE",
"418 -141 LINE SMOOTH",
"418 -86 OFFCURVE",
"416 -37 OFFCURVE",
"412 7 CURVE",
"484 -11 OFFCURVE",
"555 -20 OFFCURVE",
"626 -20 CURVE SMOOTH",
"903 -20 OFFCURVE",
"1056 159 OFFCURVE",
"1056 487 CURVE SMOOTH",
"1056 818 OFFCURVE",
"930 965 OFFCURVE",
"669 965 CURVE SMOOTH",
"567 965 OFFCURVE",
"480 941 OFFCURVE",
"409 892 CURVE"
);
},
{
closed = 1;
nodes = (
"763 217 OFFCURVE",
"704 86 OFFCURVE",
"587 86 CURVE SMOOTH",
"528 86 OFFCURVE",
"472 93 OFFCURVE",
"418 107 CURVE",
"418 816 LINE",
"470 841 OFFCURVE",
"527 854 OFFCURVE",
"589 854 CURVE SMOOTH",
"705 854 OFFCURVE",
"763 729 OFFCURVE",
"763 480 CURVE SMOOTH"
);
}
);
width = 1139;
}
);
note = p;
unicode = 0070;
},
{
glyphname = q;
lastChange = "2025-02-05 21:35:02 +0000";
layers = (
{
layerId = "9CB754D2-AD8E-43A2-9483-C1400C56EABF";
paths = (
{
closed = 1;
nodes = (
"377 589 OFFCURVE",
"393 694 OFFCURVE",
"426 761 CURVE SMOOTH",
"459 828 OFFCURVE",
"509 862 OFFCURVE",
"577 862 CURVE SMOOTH",
"633 862 OFFCURVE",
"684 856 OFFCURVE",
"729 845 CURVE",
"729 129 LINE",
"690 106 OFFCURVE",
"628 91 OFFCURVE",
"577 91 CURVE SMOOTH",
"434 91 OFFCURVE",
"377 208 OFFCURVE",
"377 448 CURVE SMOOTH"
);
},
{
closed = 1;
nodes = (
"1018 985 LINE",
"927 985 LINE",
"808 942 LINE",
"670 957 OFFCURVE",
"577 965 OFFCURVE",
"529 965 CURVE SMOOTH",
"236 965 OFFCURVE",
"84 795 OFFCURVE",
"84 474 CURVE SMOOTH",
"84 145 OFFCURVE",
"215 -20 OFFCURVE",
"494 -20 CURVE SMOOTH",
"592 -20 OFFCURVE",
"674 6 OFFCURVE",
"739 58 CURVE",
"732 -6 OFFCURVE",
"729 -69 OFFCURVE",
"729 -131 CURVE SMOOTH",
"729 -346 LINE",
"591 -370 LINE",
"591 -436 LINE",
"1120 -436 LINE",
"1120 -370 LINE",
"1018 -346 LINE"
);
}
);
width = 1139;
}
);
note = q;
unicode = 0071;
},
{
glyphname = r;
lastChange = "2025-02-05 21:35:02 +0000";
layers = (
{
layerId = "9CB754D2-AD8E-43A2-9483-C1400C56EABF";
paths = (
{
closed = 1;
nodes = (
"450 940 LINE",
"55 940 LINE",
"55 874 LINE",
"177 850 LINE",
"177 90 LINE",
"55 66 LINE",
"55 0 LINE",
"617 0 LINE",
"617 66 LINE",
"466 90 LINE",
"466 661 LINE",
"547 710 OFFCURVE",
"666 753 OFFCURVE",
"750 753 CURVE",
"809 627 LINE",
"865 627 LINE",
"865 970 LINE",
"811 970 LINE SMOOTH",
"716 970 OFFCURVE",
"605 905 OFFCURVE",
"461 745 CURVE"
);
}
);
width = 909;
}
);
note = r;
unicode = 0072;
},
{
glyphname = s;
lastChange = "2025-02-05 21:35:02 +0000";
layers = (
{
layerId = "9CB754D2-AD8E-43A2-9483-C1400C56EABF";
paths = (
{
closed = 1;
nodes = (
"747 445 OFFCURVE",
"674 540 OFFCURVE",
"479 600 CURVE SMOOTH",
"390 627 OFFCURVE",
"331 651 OFFCURVE",
"302 674 CURVE SMOOTH",
"273 697 OFFCURVE",
"259 726 OFFCURVE",
"259 761 CURVE SMOOTH",
"259 829 OFFCURVE",
"304 871 OFFCURVE",
"400 871 CURVE SMOOTH",
"463 871 OFFCURVE",
"542 844 OFFCURVE",
"581 805 CURVE",
"613 695 LINE",
"679 695 LINE",
"679 936 LINE",
"563 955 OFFCURVE",
"471 965 OFFCURVE",
"402 965 CURVE SMOOTH",
"202 965 OFFCURVE",
"62 856 OFFCURVE",
"62 685 CURVE SMOOTH",
"62 533 OFFCURVE",
"135 430 OFFCURVE",
"328 370 CURVE SMOOTH",
"420 341 OFFCURVE",
"480 316 OFFCURVE",
"507 294 CURVE SMOOTH",
"534 272 OFFCURVE",
"548 243 OFFCURVE",
"548 206 CURVE SMOOTH",
"548 129 OFFCURVE",
"492 73 OFFCURVE",
"376 73 CURVE SMOOTH",
"297 73 OFFCURVE",
"215 108 OFFCURVE",
"168 155 CURVE",
"130 287 LINE",
"64 287 LINE",
"64 31 LINE",
"127 7 OFFCURVE",
"269 -20 OFFCURVE",
"370 -20 CURVE SMOOTH",
"615 -20 OFFCURVE",
"747 89 OFFCURVE",
"747 298 CURVE SMOOTH"
);
}
);
width = 797;
}
);
note = s;
unicode = 0073;
},
{
glyphname = t;
lastChange = "2025-02-05 21:35:02 +0000";
layers = (
{
layerId = "9CB754D2-AD8E-43A2-9483-C1400C56EABF";
paths = (
{
closed = 1;
nodes = (
"518 -20 OFFCURVE",
"633 7 OFFCURVE",
"673 35 CURVE",
"673 120 LINE",
"622 109 OFFCURVE",
"578 104 OFFCURVE",
"543 104 CURVE SMOOTH",
"484 104 OFFCURVE",
"445 148 OFFCURVE",
"445 235 CURVE SMOOTH",
"445 836 LINE",
"643 836 LINE",
"643 940 LINE",
"445 940 LINE",
"445 1153 LINE",
"295 1153 LINE",
"178 940 LINE",
"33 901 LINE",
"33 836 LINE",
"156 836 LINE",
"156 217 LINE SMOOTH",
"156 64 OFFCURVE",
"258 -20 OFFCURVE",
"438 -20 CURVE SMOOTH"
);
}
);
width = 682;
}
);
note = t;
unicode = 0074;
},
{
glyphname = u;
lastChange = "2025-02-05 21:35:02 +0000";
layers = (
{
layerId = "9CB754D2-AD8E-43A2-9483-C1400C56EABF";
paths = (
{
closed = 1;
nodes = (
"719 0 LINE",
"1084 0 LINE",
"1084 66 LINE",
"992 90 LINE",
"992 940 LINE",
"617 940 LINE",
"617 874 LINE",
"703 850 LINE",
"703 147 LINE",
"652 124 OFFCURVE",
"602 113 OFFCURVE",
"551 113 CURVE SMOOTH",
"463 113 OFFCURVE",
"414 179 OFFCURVE",
"414 291 CURVE SMOOTH",
"414 940 LINE",
"31 940 LINE",
"31 874 LINE",
"125 850 LINE",
"125 252 LINE SMOOTH",
"125 67 OFFCURVE",
"212 -25 OFFCURVE",
"385 -25 CURVE SMOOTH",
"460 -25 OFFCURVE",
"544 -1 OFFCURVE",
"637 47 CURVE SMOOTH",
"705 82 LINE"
);
}
);
width = 1139;
}
);
note = u;
unicode = 0075;
},
{
glyphname = v;
lastChange = "2025-02-05 21:35:02 +0000";
layers = (
{
layerId = "9CB754D2-AD8E-43A2-9483-C1400C56EABF";
paths = (
{
closed = 1;
nodes = (
"956 854 LINE",
"1024 874 LINE",
"1024 940 LINE",
"717 940 LINE",
"717 874 LINE",
"827 850 LINE",
"610 312 LINE",
"369 848 LINE",
"481 874 LINE",
"481 940 LINE",
"0 940 LINE",
"0 874 LINE",
"66 850 LINE",
"459 -20 LINE",
"580 -20 LINE"
);
}
);
width = 1024;
}
);
note = v;
unicode = 0076;
},
{
glyphname = w;
lastChange = "2025-02-05 21:35:02 +0000";
layers = (
{
layerId = "9CB754D2-AD8E-43A2-9483-C1400C56EABF";
paths = (
{
closed = 1;
nodes = (
"779 846 LINE",
"561 311 LINE",
"359 848 LINE",
"471 874 LINE",
"471 940 LINE",
"6 940 LINE",
"6 874 LINE",
"76 850 LINE",
"409 -20 LINE",
"530 -20 LINE",
"744 507 LINE",
"959 -20 LINE",
"1080 -20 LINE",
"1396 854 LINE",
"1468 874 LINE",
"1468 940 LINE",
"1163 940 LINE",
"1163 874 LINE",
"1273 850 LINE",
"1091 311 LINE",
"874 846 LINE"
);
}
);
width = 1479;
}
);
note = w;
unicode = 0077;
},
{
glyphname = x;
lastChange = "2025-02-05 21:35:02 +0000";
layers = (
{
layerId = "9CB754D2-AD8E-43A2-9483-C1400C56EABF";
paths = (
{
closed = 1;
nodes = (
"122 850 LINE",
"392 433 LINE",
"92 81 LINE",
"8 65 LINE",
"8 0 LINE",
"328 0 LINE",
"328 65 LINE",
"234 86 LINE",
"452 341 LINE",
"616 88 LINE",
"511 65 LINE",
"511 0 LINE",
"1013 0 LINE",
"1013 65 LINE",
"923 86 LINE",
"625 544 LINE",
"889 854 LINE",
"972 875 LINE",
"972 940 LINE",
"652 940 LINE",
"652 875 LINE",
"746 850 LINE",
"565 637 LINE",
"428 848 LINE",
"533 875 LINE",
"533 940 LINE",
"31 940 LINE",
"31 875 LINE"
);
}
);
width = 1024;
}
);
note = x;
unicode = 0078;
},
{
glyphname = y;
lastChange = "2025-02-05 21:35:02 +0000";
layers = (
{
layerId = "9CB754D2-AD8E-43A2-9483-C1400C56EABF";
paths = (
{
closed = 1;
nodes = (
"403 -160 OFFCURVE",
"381 -215 OFFCURVE",
"347 -260 CURVE SMOOTH",
"313 -305 OFFCURVE",
"276 -330 OFFCURVE",
"225 -330 CURVE SMOOTH",
"195 -330 OFFCURVE",
"170 -322 OFFCURVE",
"151 -307 CURVE",
"108 -181 LINE",
"48 -181 LINE",
"48 -423 LINE",
"104 -436 OFFCURVE",
"159 -442 OFFCURVE",
"213 -442 CURVE SMOOTH",
"313 -442 OFFCURVE",
"389 -393 OFFCURVE",
"453 -295 CURVE SMOOTH",
"485 -246 OFFCURVE",
"522 -168 OFFCURVE",
"565 -59 CURVE SMOOTH",
"936 854 LINE",
"1004 874 LINE",
"1004 940 LINE",
"697 940 LINE",
"697 874 LINE",
"807 850 LINE",
"610 328 LINE",
"389 848 LINE",
"501 874 LINE",
"501 940 LINE",
"20 940 LINE",
"20 874 LINE",
"86 850 LINE",
"462 -29 LINE"
);
}
);
width = 1024;
}
);
note = y;
unicode = 0079;
},
{
glyphname = z;
lastChange = "2025-02-05 21:35:02 +0000";
layers = (
{
layerId = "9CB754D2-AD8E-43A2-9483-C1400C56EABF";
paths = (
{
closed = 1;
nodes = (
"837 0 LINE",
"864 354 LINE",
"792 354 LINE",
"739 137 LINE",
"704 110 OFFCURVE",
"606 90 OFFCURVE",
"530 90 CURVE SMOOTH",
"380 90 LINE",
"812 891 LINE",
"812 940 LINE",
"82 940 LINE",
"82 660 LINE",
"154 660 LINE",
"185 815 LINE",
"212 836 OFFCURVE",
"290 850 OFFCURVE",
"365 850 CURVE SMOOTH",
"472 850 LINE",
"40 45 LINE",
"40 0 LINE"
);
}
);
width = 909;
}
);
note = z;
unicode = 007A;
},
{
glyphname = braceleft;
lastChange = "2025-02-05 21:35:02 +0000";
layers = (
{
layerId = "9CB754D2-AD8E-43A2-9483-C1400C56EABF";
paths = (
{
closed = 1;
nodes = (
"727 -274 LINE",
"727 -187 LINE",
"665 -187 LINE SMOOTH",
"573 -187 OFFCURVE",
"537 -127 OFFCURVE",
"537 -12 CURVE SMOOTH",
"537 322 LINE SMOOTH",
"537 453 OFFCURVE",
"460 547 OFFCURVE",
"335 575 CURVE",
"335 578 LINE",
"458 603 OFFCURVE",
"537 704 OFFCURVE",
"537 829 CURVE SMOOTH",
"537 1159 LINE SMOOTH",
"537 1275 OFFCURVE",
"573 1334 OFFCURVE",
"665 1334 CURVE SMOOTH",
"727 1334 LINE",
"727 1421 LINE",
"592 1421 LINE SMOOTH",
"385 1421 OFFCURVE",
"281 1316 OFFCURVE",
"281 1128 CURVE SMOOTH",
"281 834 LINE SMOOTH",
"281 682 OFFCURVE",
"202 622 OFFCURVE",
"66 618 CURVE",
"66 533 LINE",
"215 528 OFFCURVE",
"281 456 OFFCURVE",
"281 315 CURVE SMOOTH",
"281 20 LINE SMOOTH",
"281 -167 OFFCURVE",
"392 -274 OFFCURVE",
"592 -274 CURVE SMOOTH"
);
}
);
width = 807;
}
);
note = braceleft;
unicode = 007B;
},
{
glyphname = bar;
lastChange = "2025-02-05 21:35:02 +0000";
layers = (
{
layerId = "9CB754D2-AD8E-43A2-9483-C1400C56EABF";
paths = (
{
closed = 1;
nodes = (
"297 -442 LINE",
"297 1421 LINE",
"154 1421 LINE",
"154 -442 LINE"
);
}
);
width = 451;
}
);
note = bar;
unicode = 007C;
},
{
glyphname = braceright;
lastChange = "2025-02-05 21:35:02 +0000";
layers = (
{
layerId = "9CB754D2-AD8E-43A2-9483-C1400C56EABF";
paths = (
{
closed = 1;
nodes = (
"215 -274 LINE SMOOTH",
"414 -274 OFFCURVE",
"526 -167 OFFCURVE",
"526 20 CURVE SMOOTH",
"526 315 LINE SMOOTH",
"526 455 OFFCURVE",
"590 528 OFFCURVE",
"741 533 CURVE",
"741 618 LINE",
"605 622 OFFCURVE",
"526 682 OFFCURVE",
"526 834 CURVE SMOOTH",
"526 1128 LINE SMOOTH",
"526 1316 OFFCURVE",
"422 1421 OFFCURVE",
"215 1421 CURVE SMOOTH",
"80 1421 LINE",
"80 1334 LINE",
"142 1334 LINE SMOOTH",
"234 1334 OFFCURVE",
"270 1275 OFFCURVE",
"270 1159 CURVE SMOOTH",
"270 829 LINE SMOOTH",
"270 700 OFFCURVE",
"349 603 OFFCURVE",
"472 578 CURVE",
"472 575 LINE",
"347 547 OFFCURVE",
"270 453 OFFCURVE",
"270 322 CURVE SMOOTH",
"270 -12 LINE SMOOTH",
"270 -127 OFFCURVE",
"234 -187 OFFCURVE",
"142 -187 CURVE SMOOTH",
"80 -187 LINE",
"80 -274 LINE"
);
}
);
width = 807;
}
);
note = braceright;
unicode = 007D;
},
{
glyphname = asciitilde;
lastChange = "2025-02-05 21:35:02 +0000";
layers = (
{
layerId = "9CB754D2-AD8E-43A2-9483-C1400C56EABF";
paths = (
{
closed = 1;
nodes = (
"941 481 OFFCURVE",
"1017 605 OFFCURVE",
"1052 866 CURVE",
"908 866 LINE",
"888 697 OFFCURVE",
"849 624 OFFCURVE",
"761 624 CURVE SMOOTH",
"740 624 OFFCURVE",
"716 632 OFFCURVE",
"687 649 CURVE SMOOTH",
"658 666 OFFCURVE",
"618 697 OFFCURVE",
"566 743 CURVE SMOOTH",
"453 835 OFFCURVE",
"381 866 OFFCURVE",
"306 866 CURVE SMOOTH",
"119 866 OFFCURVE",
"42 739 OFFCURVE",
"16 481 CURVE",
"157 481 LINE",
"174 656 OFFCURVE",
"211 723 OFFCURVE",
"306 723 CURVE SMOOTH",
"328 723 OFFCURVE",
"353 715 OFFCURVE",
"381 699 CURVE SMOOTH",
"408 682 OFFCURVE",
"451 650 OFFCURVE",
"508 602 CURVE SMOOTH",
"607 519 OFFCURVE",
"685 481 OFFCURVE",
"761 481 CURVE SMOOTH"
);
}
);
width = 1065;
}
);
note = asciitilde;
unicode = 007E;
},
{
glyphname = dagger;
lastChange = "2025-02-05 21:35:02 +0000";
layers = (
{
layerId = "9CB754D2-AD8E-43A2-9483-C1400C56EABF";
paths = (
{
closed = 1;
nodes = (
"565 920 LINE",
"971 854 LINE",
"971 1090 LINE",
"565 1026 LINE",
"631 1421 LINE",
"393 1421 LINE",
"459 1026 LINE",
"53 1090 LINE",
"53 854 LINE",
"459 920 LINE",
"379 760 LINE",
"479 -240 LINE",
"545 -240 LINE",
"645 760 LINE"
);
}
);
width = 1024;
}
);
note = dagger;
unicode = 2020;
},
{
glyphname = degree;
lastChange = "2025-02-05 21:35:02 +0000";
layers = (
{
layerId = "9CB754D2-AD8E-43A2-9483-C1400C56EABF";
paths = (
{
closed = 1;
nodes = (
"98 878 OFFCURVE",
"235 741 OFFCURVE",
"408 741 CURVE SMOOTH",
"517 741 OFFCURVE",
"620 798 OFFCURVE",
"677 895 CURVE SMOOTH",
"705 943 OFFCURVE",
"719 995 OFFCURVE",
"719 1051 CURVE SMOOTH",
"719 1163 OFFCURVE",
"659 1265 OFFCURVE",
"563 1321 CURVE SMOOTH",
"515 1348 OFFCURVE",
"463 1362 OFFCURVE",
"408 1362 CURVE SMOOTH",
"297 1362 OFFCURVE",
"194 1302 OFFCURVE",
"139 1206 CURVE SMOOTH",
"112 1158 OFFCURVE",
"98 1106 OFFCURVE",
"98 1051 CURVE SMOOTH"
);
},
{
closed = 1;
nodes = (
"516 1250 OFFCURVE",
"599 1164 OFFCURVE",
"599 1049 CURVE SMOOTH",
"599 938 OFFCURVE",
"515 850 OFFCURVE",
"407 850 CURVE SMOOTH",
"302 850 OFFCURVE",
"217 938 OFFCURVE",
"217 1049 CURVE SMOOTH",
"217 1164 OFFCURVE",
"300 1250 OFFCURVE",
"407 1250 CURVE SMOOTH"
);
}
);
width = 819;
}
);
note = degree;
unicode = 00B0;
},
{
glyphname = cent;
lastChange = "2025-02-05 21:35:02 +0000";
layers = (
{
layerId = "9CB754D2-AD8E-43A2-9483-C1400C56EABF";
paths = (
{
closed = 1;
nodes = (
"927 339 LINE",
"853 320 OFFCURVE",
"767 310 OFFCURVE",
"669 310 CURVE",
"669 1064 LINE",
"709 1058 OFFCURVE",
"746 1044 OFFCURVE",
"780 1022 CURVE",
"834 857 LINE",
"906 857 LINE",
"906 1135 LINE",
"835 1149 OFFCURVE",
"756 1159 OFFCURVE",
"669 1166 CURVE",
"669 1341 LINE",
"577 1341 LINE",
"577 1170 LINE",
"575 1170 LINE SMOOTH",
"269 1170 OFFCURVE",
"89 981 OFFCURVE",
"89 677 CURVE SMOOTH",
"89 363 OFFCURVE",
"252 200 OFFCURVE",
"577 187 CURVE",
"577 0 LINE",
"669 0 LINE",
"669 187 LINE",
"768 194 OFFCURVE",
"868 219 OFFCURVE",
"927 262 CURVE"
);
},
{
closed = 1;
nodes = (
"380 895 OFFCURVE",
"454 1038 OFFCURVE",
"577 1063 CURVE",
"577 320 LINE",
"442 351 OFFCURVE",
"380 463 OFFCURVE",
"380 683 CURVE SMOOTH"
);
}
);
width = 1024;
}
);
note = cent;
unicode = 00A2;
},
{
glyphname = sterling;
lastChange = "2025-02-05 21:35:02 +0000";
layers = (
{
layerId = "9CB754D2-AD8E-43A2-9483-C1400C56EABF";
paths = (
{
closed = 1;
nodes = (
"360 222 LINE",
"408 282 OFFCURVE",
"450 355 OFFCURVE",
"450 467 CURVE SMOOTH",
"450 510 OFFCURVE",
"445 561 OFFCURVE",
"436 620 CURVE",
"674 620 LINE",
"674 721 LINE",
"423 721 LINE",
"406 822 OFFCURVE",
"397 917 OFFCURVE",
"397 1006 CURVE SMOOTH",
"397 1172 OFFCURVE",
"457 1255 OFFCURVE",
"576 1255 CURVE SMOOTH",
"639 1255 OFFCURVE",
"699 1237 OFFCURVE",
"757 1202 CURVE",
"800 1008 LINE",
"887 1008 LINE",
"887 1313 LINE",
"718 1352 OFFCURVE",
"656 1356 OFFCURVE",
"576 1356 CURVE SMOOTH",
"261 1356 OFFCURVE",
"103 1230 OFFCURVE",
"103 1006 CURVE SMOOTH",
"103 917 OFFCURVE",
"125 822 OFFCURVE",
"170 721 CURVE",
"82 721 LINE",
"82 620 LINE",
"245 620 LINE",
"276 551 OFFCURVE",
"301 490 OFFCURVE",
"301 430 CURVE SMOOTH",
"301 347 OFFCURVE",
"253 265 OFFCURVE",
"158 185 CURVE SMOOTH",
"87 123 LINE",
"87 0 LINE",
"960 0 LINE",
"960 223 LINE"
);
}
);
width = 1024;
}
);
note = sterling;
unicode = 00A3;
},
{
glyphname = section;
lastChange = "2025-02-05 21:35:02 +0000";
layers = (
{
layerId = "9CB754D2-AD8E-43A2-9483-C1400C56EABF";
paths = (
{
closed = 1;
nodes = (
"855 167 OFFCURVE",
"795 264 OFFCURVE",
"666 344 CURVE",
"811 387 OFFCURVE",
"894 495 OFFCURVE",
"894 642 CURVE SMOOTH",
"894 726 OFFCURVE",
"869 786 OFFCURVE",
"824 838 CURVE SMOOTH",
"801 863 OFFCURVE",
"774 886 OFFCURVE",
"741 907 CURVE SMOOTH",
"708 927 OFFCURVE",
"638 960 OFFCURVE",
"533 1006 CURVE SMOOTH",
"417 1055 OFFCURVE",
"366 1110 OFFCURVE",
"366 1186 CURVE SMOOTH",
"366 1254 OFFCURVE",
"411 1296 OFFCURVE",
"507 1296 CURVE SMOOTH",
"570 1296 OFFCURVE",
"649 1269 OFFCURVE",
"688 1230 CURVE",
"720 1120 LINE",
"786 1120 LINE",
"786 1361 LINE",
"670 1380 OFFCURVE",
"578 1390 OFFCURVE",
"509 1390 CURVE SMOOTH",
"309 1390 OFFCURVE",
"169 1281 OFFCURVE",
"169 1110 CURVE SMOOTH",
"169 989 OFFCURVE",
"223 902 OFFCURVE",
"348 834 CURVE",
"212 794 OFFCURVE",
"130 693 OFFCURVE",
"130 560 CURVE SMOOTH",
"130 460 OFFCURVE",
"168 383 OFFCURVE",
"235 322 CURVE SMOOTH",
"268 291 OFFCURVE",
"321 257 OFFCURVE",
"392 220 CURVE SMOOTH",
"488 170 LINE SMOOTH",
"597 113 OFFCURVE",
"653 50 OFFCURVE",
"653 -29 CURVE SMOOTH",
"653 -106 OFFCURVE",
"592 -162 OFFCURVE",
"484 -162 CURVE SMOOTH",
"411 -162 OFFCURVE",
"328 -127 OFFCURVE",
"276 -75 CURVE",
"238 57 LINE",
"172 57 LINE",
"172 -204 LINE",
"235 -228 OFFCURVE",
"377 -255 OFFCURVE",
"478 -255 CURVE SMOOTH",
"721 -255 OFFCURVE",
"855 -147 OFFCURVE",
"855 42 CURVE SMOOTH"
);
},
{
closed = 1;
nodes = (
"692 502 OFFCURVE",
"629 430 OFFCURVE",
"541 414 CURVE",
"476 449 OFFCURVE",
"430 476 OFFCURVE",
"405 496 CURVE SMOOTH",
"354 536 OFFCURVE",
"327 580 OFFCURVE",
"327 636 CURVE SMOOTH",
"327 699 OFFCURVE",
"396 763 OFFCURVE",
"481 774 CURVE",
"546 746 OFFCURVE",
"591 723 OFFCURVE",
"616 705 CURVE SMOOTH",
"666 669 OFFCURVE",
"692 628 OFFCURVE",
"692 571 CURVE SMOOTH"
);
}
);
width = 1024;
}
);
note = section;
unicode = 00A7;
},
{
glyphname = bullet;
lastChange = "2025-02-05 21:35:02 +0000";
layers = (
{
layerId = "9CB754D2-AD8E-43A2-9483-C1400C56EABF";
paths = (
{
closed = 1;
nodes = (
"510 401 OFFCURVE",
"635 523 OFFCURVE",
"635 678 CURVE SMOOTH",
"635 833 OFFCURVE",
"510 955 OFFCURVE",
"358 955 CURVE SMOOTH",
"206 955 OFFCURVE",
"81 833 OFFCURVE",
"81 678 CURVE SMOOTH",
"81 523 OFFCURVE",
"206 401 OFFCURVE",
"358 401 CURVE SMOOTH"
);
}
);
width = 717;
}
);
note = bullet;
unicode = 2022;
},
{
glyphname = paragraph;
lastChange = "2025-02-05 21:35:02 +0000";
layers = (
{
layerId = "9CB754D2-AD8E-43A2-9483-C1400C56EABF";
paths = (
{
closed = 1;
nodes = (
"1019 1268 LINE",
"1019 1341 LINE",
"531 1341 LINE SMOOTH",
"254 1341 OFFCURVE",
"97 1200 OFFCURVE",
"97 952 CURVE SMOOTH",
"97 705 OFFCURVE",
"262 554 OFFCURVE",
"521 545 CURVE",
"521 -258 LINE",
"661 -258 LINE",
"661 1245 LINE",
"796 1245 LINE",
"796 -258 LINE",
"936 -258 LINE",
"936 1245 LINE"
);
}
);
width = 1106;
}
);
note = paragraph;
unicode = 00B6;
},
{
glyphname = germandbls;
lastChange = "2025-02-05 21:35:02 +0000";
layers = (
{
layerId = "9CB754D2-AD8E-43A2-9483-C1400C56EABF";
paths = (
{
closed = 1;
nodes = (
"537 659 OFFCURVE",
"592 551 OFFCURVE",
"698 448 CURVE SMOOTH",
"797 353 OFFCURVE",
"834 293 OFFCURVE",
"834 216 CURVE SMOOTH",
"834 139 OFFCURVE",
"786 76 OFFCURVE",
"721 73 CURVE SMOOTH",
"711 73 LINE SMOOTH",
"666 73 OFFCURVE",
"629 91 OFFCURVE",
"600 127 CURVE",
"562 269 LINE",
"496 269 LINE",
"496 21 LINE",
"535 1 OFFCURVE",
"649 -20 OFFCURVE",
"740 -20 CURVE SMOOTH",
"956 -20 OFFCURVE",
"1088 93 OFFCURVE",
"1088 277 CURVE SMOOTH",
"1088 354 OFFCURVE",
"1069 421 OFFCURVE",
"1030 477 CURVE SMOOTH",
"1011 504 OFFCURVE",
"972 548 OFFCURVE",
"913 607 CURVE SMOOTH",
"817 704 OFFCURVE",
"786 766 OFFCURVE",
"786 841 CURVE SMOOTH",
"786 934 OFFCURVE",
"858 985 OFFCURVE",
"995 985 CURVE",
"987 1290 OFFCURVE",
"841 1442 OFFCURVE",
"558 1442 CURVE SMOOTH",
"266 1442 OFFCURVE",
"125 1287 OFFCURVE",
"125 952 CURVE SMOOTH",
"125 90 LINE",
"43 66 LINE",
"43 0 LINE",
"414 0 LINE",
"414 952 LINE SMOOTH",
"414 1104 OFFCURVE",
"424 1207 OFFCURVE",
"445 1261 CURVE SMOOTH",
"465 1314 OFFCURVE",
"501 1341 OFFCURVE",
"552 1341 CURVE SMOOTH",
"656 1341 OFFCURVE",
"698 1245 OFFCURVE",
"706 1046 CURVE",
"601 1003 OFFCURVE",
"537 905 OFFCURVE",
"537 785 CURVE SMOOTH"
);
}
);
width = 1139;
}
);
note = germandbls;
unicode = 00DF;
},
{
glyphname = registered;
lastChange = "2025-02-05 21:35:02 +0000";
layers = (
{
layerId = "9CB754D2-AD8E-43A2-9483-C1400C56EABF";
paths = (
{
closed = 1;
nodes = (
"1470 922 OFFCURVE",
"1338 1147 OFFCURVE",
"1125 1270 CURVE SMOOTH",
"1018 1331 OFFCURVE",
"903 1362 OFFCURVE",
"778 1362 CURVE SMOOTH",
"530 1362 OFFCURVE",
"306 1234 OFFCURVE",
"182 1020 CURVE SMOOTH",
"119 913 OFFCURVE",
"88 796 OFFCURVE",
"88 670 CURVE SMOOTH",
"88 422 OFFCURVE",
"219 195 OFFCURVE",
"432 72 CURVE SMOOTH",
"539 11 OFFCURVE",
"654 -20 OFFCURVE",
"778 -20 CURVE SMOOTH",
"1031 -20 OFFCURVE",
"1259 115 OFFCURVE",
"1380 327 CURVE SMOOTH",
"1440 432 OFFCURVE",
"1470 547 OFFCURVE",
"1470 670 CURVE SMOOTH"
);
},
{
closed = 1;
nodes = (
"1192 276 LINE",
"1192 334 LINE",
"1122 350 LINE",
"915 639 LINE",
"1032 676 OFFCURVE",
"1094 757 OFFCURVE",
"1094 860 CURVE SMOOTH",
"1094 1001 OFFCURVE",
"986 1081 OFFCURVE",
"778 1081 CURVE SMOOTH",
"428 1081 LINE",
"428 1026 LINE",
"512 1010 LINE",
"512 350 LINE",
"436 334 LINE",
"436 276 LINE",
"782 276 LINE",
"782 334 LINE",
"688 350 LINE",
"688 619 LINE",
"737 619 LINE",
"967 276 LINE"
);
},
{
closed = 1;
nodes = (
"911 735 OFFCURVE",
"850 694 OFFCURVE",
"711 694 CURVE SMOOTH",
"688 694 LINE",
"688 1006 LINE",
"707 1006 LINE SMOOTH",
"867 1006 OFFCURVE",
"911 967 OFFCURVE",
"911 858 CURVE SMOOTH"
);
},
{
closed = 1;
nodes = (
"998 1278 OFFCURVE",
"1193 1160 OFFCURVE",
"1300 973 CURVE SMOOTH",
"1353 879 OFFCURVE",
"1380 778 OFFCURVE",
"1380 670 CURVE SMOOTH",
"1380 454 OFFCURVE",
"1264 251 OFFCURVE",
"1078 144 CURVE SMOOTH",
"985 90 OFFCURVE",
"885 63 OFFCURVE",
"778 63 CURVE SMOOTH",
"562 63 OFFCURVE",
"366 177 OFFCURVE",
"259 366 CURVE SMOOTH",
"205 460 OFFCURVE",
"178 561 OFFCURVE",
"178 670 CURVE SMOOTH",
"178 889 OFFCURVE",
"293 1089 OFFCURVE",
"478 1197 CURVE SMOOTH",
"571 1251 OFFCURVE",
"671 1278 OFFCURVE",
"778 1278 CURVE SMOOTH"
);
}
);
width = 1530;
}
);
note = registered;
unicode = 00AE;
},
{
glyphname = copyright;
lastChange = "2025-02-05 21:35:02 +0000";
layers = (
{
layerId = "9CB754D2-AD8E-43A2-9483-C1400C56EABF";
paths = (
{
closed = 1;
nodes = (
"88 422 OFFCURVE",
"219 195 OFFCURVE",
"432 72 CURVE SMOOTH",
"539 11 OFFCURVE",
"654 -20 OFFCURVE",
"778 -20 CURVE SMOOTH",
"1031 -20 OFFCURVE",
"1259 115 OFFCURVE",
"1380 327 CURVE SMOOTH",
"1440 432 OFFCURVE",
"1470 547 OFFCURVE",
"1470 670 CURVE SMOOTH",
"1470 922 OFFCURVE",
"1338 1147 OFFCURVE",
"1125 1270 CURVE SMOOTH",
"1018 1331 OFFCURVE",
"903 1362 OFFCURVE",
"778 1362 CURVE SMOOTH",
"530 1362 OFFCURVE",
"306 1234 OFFCURVE",
"182 1020 CURVE SMOOTH",
"119 913 OFFCURVE",
"88 796 OFFCURVE",
"88 670 CURVE SMOOTH"
);
},
{
closed = 1;
nodes = (
"917 254 OFFCURVE",
"1011 267 OFFCURVE",
"1096 293 CURVE",
"1100 512 LINE",
"1030 512 LINE",
"1008 393 LINE",
"959 354 OFFCURVE",
"894 334 OFFCURVE",
"813 334 CURVE SMOOTH",
"641 334 OFFCURVE",
"577 446 OFFCURVE",
"577 666 CURVE SMOOTH",
"577 919 OFFCURVE",
"646 1008 OFFCURVE",
"819 1008 CURVE SMOOTH",
"895 1008 OFFCURVE",
"944 990 OFFCURVE",
"999 957 CURVE",
"1018 852 LINE",
"1087 852 LINE",
"1083 1059 LINE",
"983 1079 OFFCURVE",
"894 1089 OFFCURVE",
"815 1089 CURVE SMOOTH",
"539 1089 OFFCURVE",
"387 941 OFFCURVE",
"387 664 CURVE SMOOTH",
"387 413 OFFCURVE",
"548 254 OFFCURVE",
"813 254 CURVE SMOOTH"
);
},
{
closed = 1;
nodes = (
"998 1278 OFFCURVE",
"1193 1160 OFFCURVE",
"1300 973 CURVE SMOOTH",
"1353 879 OFFCURVE",
"1380 778 OFFCURVE",
"1380 670 CURVE SMOOTH",
"1380 454 OFFCURVE",
"1264 251 OFFCURVE",
"1078 144 CURVE SMOOTH",
"985 90 OFFCURVE",
"885 63 OFFCURVE",
"778 63 CURVE SMOOTH",
"562 63 OFFCURVE",
"366 177 OFFCURVE",
"259 366 CURVE SMOOTH",
"205 460 OFFCURVE",
"178 561 OFFCURVE",
"178 670 CURVE SMOOTH",
"178 889 OFFCURVE",
"293 1089 OFFCURVE",
"478 1197 CURVE SMOOTH",
"571 1251 OFFCURVE",
"671 1278 OFFCURVE",
"778 1278 CURVE SMOOTH"
);
}
);
width = 1530;
}
);
note = copyright;
unicode = 00A9;
},
{
glyphname = trademark;
lastChange = "2025-02-05 21:35:02 +0000";
layers = (
{
layerId = "9CB754D2-AD8E-43A2-9483-C1400C56EABF";
paths = (
{
closed = 1;
nodes = (
"675 538 LINE",
"675 598 LINE",
"547 614 LINE",
"547 1274 LINE",
"577 1274 LINE SMOOTH",
"637 1274 OFFCURVE",
"691 1270 OFFCURVE",
"738 1261 CURVE",
"754 1112 LINE",
"825 1112 LINE",
"825 1343 LINE",
"83 1343 LINE",
"83 1112 LINE",
"154 1112 LINE",
"170 1261 LINE",
"239 1274 OFFCURVE",
"271 1275 OFFCURVE",
"327 1275 CURVE SMOOTH",
"358 1275 LINE",
"358 614 LINE",
"230 598 LINE",
"230 538 LINE"
);
},
{
closed = 1;
nodes = (
"1679 1200 LINE",
"1679 614 LINE",
"1571 598 LINE",
"1571 538 LINE",
"1971 538 LINE",
"1971 598 LINE",
"1868 614 LINE",
"1868 1267 LINE",
"1971 1283 LINE",
"1971 1343 LINE",
"1649 1343 LINE",
"1431 848 LINE",
"1217 1343 LINE",
"882 1343 LINE",
"882 1283 LINE",
"985 1267 LINE",
"985 614 LINE",
"882 598 LINE",
"882 538 LINE",
"1178 538 LINE",
"1178 598 LINE",
"1075 614 LINE",
"1075 1183 LINE",
"1353 538 LINE",
"1386 538 LINE"
);
}
);
width = 2048;
}
);
note = trademark;
unicode = 2122;
},
{
glyphname = acute;
lastChange = "2025-02-05 21:35:02 +0000";
layers = (
{
layerId = "9CB754D2-AD8E-43A2-9483-C1400C56EABF";
paths = (
{
closed = 1;
nodes = (
"231 1118 LINE",
"596 1386 LINE",
"596 1423 LINE",
"311 1423 LINE",
"145 1151 LINE",
"145 1118 LINE"
);
}
);
width = 682;
}
);
note = acute;
unicode = 00B4;
},
{
glyphname = dieresis;
lastChange = "2025-02-05 21:35:02 +0000";
layers = (
{
layerId = "9CB754D2-AD8E-43A2-9483-C1400C56EABF";
paths = (
{
closed = 1;
nodes = (
"575 1130 OFFCURVE",
"629 1184 OFFCURVE",
"629 1251 CURVE SMOOTH",
"629 1319 OFFCURVE",
"575 1370 OFFCURVE",
"510 1370 CURVE SMOOTH",
"446 1370 OFFCURVE",
"389 1318 OFFCURVE",
"389 1251 CURVE SMOOTH",
"389 1184 OFFCURVE",
"446 1130 OFFCURVE",
"510 1130 CURVE SMOOTH"
);
},
{
closed = 1;
nodes = (
"239 1130 OFFCURVE",
"293 1184 OFFCURVE",
"293 1251 CURVE SMOOTH",
"293 1315 OFFCURVE",
"239 1370 OFFCURVE",
"174 1370 CURVE SMOOTH",
"109 1370 OFFCURVE",
"53 1315 OFFCURVE",
"53 1251 CURVE SMOOTH",
"53 1188 OFFCURVE",
"110 1130 OFFCURVE",
"174 1130 CURVE SMOOTH"
);
}
);
width = 682;
}
);
note = dieresis;
unicode = 00A8;
},
{
glyphname = notequal;
lastChange = "2025-02-05 21:35:02 +0000";
layers = (
{
layerId = "9CB754D2-AD8E-43A2-9483-C1400C56EABF";
paths = (
{
closed = 1;
nodes = (
"856 1220 LINE",
"671 956 LINE",
"86 956 LINE",
"86 813 LINE",
"571 813 LINE",
"385 547 LINE",
"86 547 LINE",
"86 403 LINE",
"285 403 LINE",
"101 140 LINE",
"254 140 LINE",
"438 403 LINE",
"1038 403 LINE",
"1038 547 LINE",
"538 547 LINE",
"724 813 LINE",
"1038 813 LINE",
"1038 956 LINE",
"824 956 LINE",
"1009 1220 LINE"
);
}
);
width = 1124;
}
);
note = notequal;
unicode = 2260;
},
{
glyphname = AE;
lastChange = "2025-02-05 21:35:02 +0000";
layers = (
{
layerId = "9CB754D2-AD8E-43A2-9483-C1400C56EABF";
paths = (
{
closed = 1;
nodes = (
"136 100 LINE",
"14 73 LINE",
"14 0 LINE",
"442 0 LINE",
"442 73 LINE",
"290 100 LINE",
"495 447 LINE",
"956 447 LINE",
"956 100 LINE",
"784 73 LINE",
"784 0 LINE",
"1923 0 LINE",
"1942 374 LINE",
"1851 374 LINE",
"1794 126 LINE",
"1741 115 OFFCURVE",
"1648 110 OFFCURVE",
"1516 110 CURVE SMOOTH",
"1271 110 LINE",
"1271 627 LINE",
"1554 627 LINE",
"1585 475 LINE",
"1674 475 LINE",
"1674 887 LINE",
"1585 887 LINE",
"1554 739 LINE",
"1271 739 LINE",
"1271 1231 LINE",
"1471 1231 LINE SMOOTH",
"1572 1231 OFFCURVE",
"1660 1226 OFFCURVE",
"1735 1217 CURVE",
"1767 1000 LINE",
"1858 1000 LINE",
"1858 1341 LINE",
"684 1341 LINE",
"684 1270 LINE",
"827 1252 LINE"
);
},
{
closed = 1;
nodes = (
"560 557 LINE",
"956 1236 LINE",
"956 557 LINE"
);
}
);
width = 2048;
}
);
note = AE;
unicode = 00C6;
},
{
glyphname = Oslash;
lastChange = "2025-02-05 21:35:02 +0000";
layers = (
{
layerId = "9CB754D2-AD8E-43A2-9483-C1400C56EABF";
paths = (
{
closed = 1;
nodes = (
"127 -55 LINE",
"276 -55 LINE",
"383 75 LINE",
"494 12 OFFCURVE",
"632 -20 OFFCURVE",
"797 -20 CURVE SMOOTH",
"1250 -20 OFFCURVE",
"1493 217 OFFCURVE",
"1493 672 CURVE SMOOTH",
"1493 905 OFFCURVE",
"1430 1079 OFFCURVE",
"1304 1194 CURVE",
"1466 1391 LINE",
"1321 1391 LINE",
"1213 1261 LINE",
"1104 1324 OFFCURVE",
"965 1356 OFFCURVE",
"797 1356 CURVE SMOOTH",
"332 1356 OFFCURVE",
"100 1128 OFFCURVE",
"100 672 CURVE SMOOTH",
"100 437 OFFCURVE",
"164 261 OFFCURVE",
"291 144 CURVE"
);
},
{
closed = 1;
nodes = (
"432 1095 OFFCURVE",
"544 1255 OFFCURVE",
"797 1255 CURVE SMOOTH",
"931 1255 OFFCURVE",
"1027 1205 OFFCURVE",
"1084 1104 CURVE",
"463 353 LINE",
"442 433 OFFCURVE",
"432 539 OFFCURVE",
"432 672 CURVE SMOOTH"
);
},
{
closed = 1;
nodes = (
"1161 248 OFFCURVE",
"1049 80 OFFCURVE",
"797 80 CURVE SMOOTH",
"664 80 OFFCURVE",
"568 130 OFFCURVE",
"511 231 CURVE",
"1130 983 LINE",
"1151 905 OFFCURVE",
"1161 801 OFFCURVE",
"1161 672 CURVE SMOOTH"
);
}
);
width = 1593;
}
);
note = Oslash;
unicode = 00D8;
},
{
glyphname = infinity;
lastChange = "2025-02-05 21:35:02 +0000";
layers = (
{
layerId = "9CB754D2-AD8E-43A2-9483-C1400C56EABF";
paths = (
{
closed = 1;
nodes = (
"1402 823 OFFCURVE",
"1272 977 OFFCURVE",
"1079 977 CURVE SMOOTH",
"935 977 OFFCURVE",
"831 892 OFFCURVE",
"743 725 CURVE",
"659 893 OFFCURVE",
"533 983 OFFCURVE",
"385 983 CURVE SMOOTH",
"192 983 OFFCURVE",
"57 820 OFFCURVE",
"57 596 CURVE SMOOTH",
"57 361 OFFCURVE",
"192 209 OFFCURVE",
"385 209 CURVE SMOOTH",
"513 209 OFFCURVE",
"628 298 OFFCURVE",
"716 467 CURVE",
"814 291 OFFCURVE",
"934 203 OFFCURVE",
"1077 203 CURVE SMOOTH",
"1262 203 OFFCURVE",
"1402 369 OFFCURVE",
"1402 590 CURVE SMOOTH"
);
},
{
closed = 1;
nodes = (
"1232 872 OFFCURVE",
"1327 755 OFFCURVE",
"1327 592 CURVE SMOOTH",
"1327 424 OFFCURVE",
"1233 307 OFFCURVE",
"1101 307 CURVE SMOOTH",
"982 307 OFFCURVE",
"894 402 OFFCURVE",
"811 590 CURVE",
"899 779 OFFCURVE",
"988 872 OFFCURVE",
"1099 872 CURVE SMOOTH"
);
},
{
closed = 1;
nodes = (
"561 407 OFFCURVE",
"470 313 OFFCURVE",
"358 313 CURVE SMOOTH",
"219 313 OFFCURVE",
"133 426 OFFCURVE",
"133 594 CURVE SMOOTH",
"133 761 OFFCURVE",
"226 879 OFFCURVE",
"354 879 CURVE SMOOTH",
"478 879 OFFCURVE",
"566 783 OFFCURVE",
"645 596 CURVE"
);
}
);
width = 1460;
}
);
note = infinity;
unicode = 221E;
},
{
glyphname = plusminus;
lastChange = "2025-02-05 21:35:02 +0000";
layers = (
{
layerId = "9CB754D2-AD8E-43A2-9483-C1400C56EABF";
paths = (
{
closed = 1;
nodes = (
"1039 608 LINE",
"1039 752 LINE",
"633 752 LINE",
"633 1157 LINE",
"490 1157 LINE",
"490 752 LINE",
"86 752 LINE",
"86 608 LINE",
"490 608 LINE",
"490 203 LINE",
"633 203 LINE",
"633 608 LINE"
);
},
{
closed = 1;
nodes = (
"86 141 LINE",
"86 0 LINE",
"1039 0 LINE",
"1039 141 LINE"
);
}
);
width = 1124;
}
);
note = plusminus;
unicode = 00B1;
},
{
glyphname = lessequal;
lastChange = "2025-02-05 21:35:02 +0000";
layers = (
{
layerId = "9CB754D2-AD8E-43A2-9483-C1400C56EABF";
paths = (
{
closed = 1;
nodes = (
"1038 216 LINE",
"1038 359 LINE",
"271 730 LINE",
"1038 1100 LINE",
"1038 1243 LINE",
"86 775 LINE",
"86 685 LINE"
);
},
{
closed = 1;
nodes = (
"86 144 LINE",
"86 0 LINE",
"1038 0 LINE",
"1038 144 LINE"
);
}
);
width = 1124;
}
);
note = lessequal;
unicode = 2264;
},
{
glyphname = greaterequal;
lastChange = "2025-02-05 21:35:02 +0000";
layers = (
{
layerId = "9CB754D2-AD8E-43A2-9483-C1400C56EABF";
paths = (
{
closed = 1;
nodes = (
"86 144 LINE",
"86 0 LINE",
"1038 0 LINE",
"1038 144 LINE"
);
},
{
closed = 1;
nodes = (
"1040 685 LINE",
"1040 775 LINE",
"88 1243 LINE",
"88 1100 LINE",
"856 730 LINE",
"88 359 LINE",
"88 216 LINE"
);
}
);
width = 1124;
}
);
note = greaterequal;
unicode = 2265;
},
{
glyphname = yen;
lastChange = "2025-02-05 21:35:02 +0000";
layers = (
{
layerId = "9CB754D2-AD8E-43A2-9483-C1400C56EABF";
paths = (
{
closed = 1;
nodes = (
"86 1251 LINE",
"348 639 LINE",
"115 639 LINE",
"115 537 LINE",
"372 537 LINE",
"372 399 LINE",
"115 399 LINE",
"115 297 LINE",
"372 297 LINE",
"372 90 LINE",
"230 66 LINE",
"230 0 LINE",
"804 0 LINE",
"804 66 LINE",
"661 90 LINE",
"661 297 LINE",
"905 297 LINE",
"905 399 LINE",
"661 399 LINE",
"661 537 LINE",
"905 537 LINE",
"905 639 LINE",
"679 639 LINE",
"936 1255 LINE",
"1022 1275 LINE",
"1022 1341 LINE",
"697 1341 LINE",
"697 1275 LINE",
"807 1251 LINE",
"595 709 LINE",
"389 1249 LINE",
"501 1275 LINE",
"501 1341 LINE",
"2 1341 LINE",
"2 1275 LINE"
);
}
);
width = 1024;
}
);
note = yen;
unicode = 00A5;
},
{
glyphname = uni00B5;
lastChange = "2025-02-05 21:35:02 +0000";
layers = (
{
layerId = "9CB754D2-AD8E-43A2-9483-C1400C56EABF";
paths = (
{
closed = 1;
nodes = (
"787 0 LINE",
"1144 0 LINE",
"1144 65 LINE",
"1052 90 LINE",
"1052 940 LINE",
"677 940 LINE",
"677 874 LINE",
"763 849 LINE",
"763 193 LINE",
"700 140 OFFCURVE",
"636 114 OFFCURVE",
"573 114 CURVE SMOOTH",
"468 114 OFFCURVE",
"418 167 OFFCURVE",
"418 288 CURVE SMOOTH",
"418 940 LINE",
"35 940 LINE",
"35 874 LINE",
"129 849 LINE",
"129 103 LINE SMOOTH",
"129 -53 OFFCURVE",
"121 -218 OFFCURVE",
"105 -391 CURVE",
"105 -436 LINE",
"387 -436 LINE",
"396 -197 OFFCURVE",
"400 -41 OFFCURVE",
"400 32 CURVE",
"436 -3 OFFCURVE",
"484 -20 OFFCURVE",
"544 -20 CURVE SMOOTH",
"619 -20 OFFCURVE",
"684 8 OFFCURVE",
"768 92 CURVE"
);
}
);
width = 1180;
}
);
note = uni00B5;
unicode = 00B5;
},
{
glyphname = partialdiff;
lastChange = "2025-02-05 21:35:02 +0000";
layers = (
{
layerId = "9CB754D2-AD8E-43A2-9483-C1400C56EABF";
paths = (
{
closed = 1;
nodes = (
"928 1287 OFFCURVE",
"793 1477 OFFCURVE",
"549 1477 CURVE SMOOTH",
"497 1477 OFFCURVE",
"445 1465 OFFCURVE",
"392 1442 CURVE",
"287 1292 LINE",
"323 1259 LINE",
"404 1315 OFFCURVE",
"480 1343 OFFCURVE",
"551 1343 CURVE SMOOTH",
"740 1343 OFFCURVE",
"842 1177 OFFCURVE",
"842 874 CURVE",
"838 758 LINE",
"834 758 LINE",
"789 869 OFFCURVE",
"688 940 OFFCURVE",
"564 940 CURVE SMOOTH",
"383 940 OFFCURVE",
"231 839 OFFCURVE",
"138 638 CURVE SMOOTH",
"91 537 OFFCURVE",
"68 435 OFFCURVE",
"68 332 CURVE SMOOTH",
"68 103 OFFCURVE",
"185 -27 OFFCURVE",
"388 -27 CURVE SMOOTH",
"553 -27 OFFCURVE",
"689 69 OFFCURVE",
"785 253 CURVE SMOOTH",
"880 436 OFFCURVE",
"928 711 OFFCURVE",
"928 938 CURVE SMOOTH"
);
},
{
closed = 1;
nodes = (
"784 407 OFFCURVE",
"704 208 OFFCURVE",
"606 114 CURVE SMOOTH",
"557 67 OFFCURVE",
"505 43 OFFCURVE",
"451 43 CURVE SMOOTH",
"332 43 OFFCURVE",
"258 140 OFFCURVE",
"258 305 CURVE SMOOTH",
"258 490 OFFCURVE",
"330 695 OFFCURVE",
"430 787 CURVE SMOOTH",
"480 833 OFFCURVE",
"535 856 OFFCURVE",
"596 856 CURVE SMOOTH",
"700 856 OFFCURVE",
"789 766 OFFCURVE",
"813 643 CURVE"
);
}
);
width = 1012;
}
);
note = partialdiff;
unicode = 2202;
},
{
glyphname = summation;
lastChange = "2025-02-05 21:35:02 +0000";
layers = (
{
layerId = "9CB754D2-AD8E-43A2-9483-C1400C56EABF";
paths = (
{
closed = 1;
nodes = (
"458 1232 LINE",
"724 1231 OFFCURVE",
"874 1230 OFFCURVE",
"907 1229 CURVE SMOOTH",
"973 1226 OFFCURVE",
"1067 1221 OFFCURVE",
"1114 1217 CURVE",
"1176 970 LINE",
"1262 970 LINE",
"1262 1341 LINE",
"137 1341 LINE",
"137 1232 LINE",
"665 480 LINE",
"92 -329 LINE",
"92 -436 LINE",
"1318 -436 LINE",
"1337 128 LINE",
"1251 128 LINE",
"1174 -160 LINE",
"1130 -169 OFFCURVE",
"876 -176 OFFCURVE",
"739 -176 CURVE SMOOTH",
"357 -176 LINE",
"868 544 LINE",
"868 647 LINE"
);
}
);
width = 1460;
}
);
note = summation;
unicode = 2211;
},
{
glyphname = product;
lastChange = "2025-02-05 21:35:02 +0000";
layers = (
{
layerId = "9CB754D2-AD8E-43A2-9483-C1400C56EABF";
paths = (
{
closed = 1;
nodes = (
"747 -436 LINE",
"747 -362 LINE",
"575 -336 LINE",
"575 1231 LINE",
"1112 1231 LINE",
"1112 -336 LINE",
"940 -362 LINE",
"940 -436 LINE",
"1601 -436 LINE",
"1601 -362 LINE",
"1428 -336 LINE",
"1428 1241 LINE",
"1601 1268 LINE",
"1601 1341 LINE",
"88 1341 LINE",
"88 1268 LINE",
"260 1241 LINE",
"260 -336 LINE",
"88 -362 LINE",
"88 -436 LINE"
);
}
);
width = 1686;
}
);
note = product;
unicode = 220F;
},
{
glyphname = integral;
lastChange = "2025-02-05 21:35:02 +0000";
layers = (
{
layerId = "9CB754D2-AD8E-43A2-9483-C1400C56EABF";
paths = (
{
closed = 1;
nodes = (
"192 -166 LINE SMOOTH",
"192 -248 OFFCURVE",
"180 -315 OFFCURVE",
"157 -367 CURVE SMOOTH",
"134 -420 OFFCURVE",
"104 -446 OFFCURVE",
"69 -446 CURVE SMOOTH",
"30 -446 OFFCURVE",
"-12 -423 OFFCURVE",
"-58 -377 CURVE",
"-78 -377 LINE",
"-83 -408 OFFCURVE",
"-102 -491 OFFCURVE",
"-107 -508 CURVE",
"-107 -516 LINE",
"-91 -529 OFFCURVE",
"-23 -549 OFFCURVE",
"16 -549 CURVE SMOOTH",
"109 -549 OFFCURVE",
"224 -466 OFFCURVE",
"292 -341 CURVE SMOOTH",
"325 -278 OFFCURVE",
"344 -210 OFFCURVE",
"348 -137 CURVE SMOOTH",
"361 307 LINE",
"364 541 LINE",
"360 1079 LINE SMOOTH",
"360 1162 OFFCURVE",
"372 1229 OFFCURVE",
"395 1282 CURVE SMOOTH",
"418 1334 OFFCURVE",
"448 1360 OFFCURVE",
"483 1360 CURVE SMOOTH",
"521 1360 OFFCURVE",
"563 1337 OFFCURVE",
"610 1290 CURVE",
"631 1290 LINE",
"647 1355 LINE",
"665 1421 LINE",
"665 1430 LINE",
"645 1446 OFFCURVE",
"569 1462 OFFCURVE",
"536 1462 CURVE SMOOTH",
"443 1462 OFFCURVE",
"323 1374 OFFCURVE",
"257 1248 CURVE SMOOTH",
"224 1185 OFFCURVE",
"205 1118 OFFCURVE",
"200 1047 CURVE SMOOTH",
"191 865 OFFCURVE",
"186 685 OFFCURVE",
"186 506 CURVE SMOOTH"
);
}
);
width = 561;
}
);
note = integral;
unicode = 222B;
},
{
glyphname = ordfeminine;
lastChange = "2025-02-05 21:35:02 +0000";
layers = (
{
layerId = "9CB754D2-AD8E-43A2-9483-C1400C56EABF";
paths = (
{
closed = 1;
nodes = (
"296 1362 OFFCURVE",
"269 1361 OFFCURVE",
"242 1360 CURVE SMOOTH",
"214 1358 OFFCURVE",
"165 1352 OFFCURVE",
"94 1341 CURVE",
"94 1188 LINE",
"143 1188 LINE",
"166 1265 LINE",
"201 1282 OFFCURVE",
"224 1296 OFFCURVE",
"268 1296 CURVE SMOOTH",
"324 1296 OFFCURVE",
"365 1263 OFFCURVE",
"365 1196 CURVE SMOOTH",
"365 1127 LINE",
"303 1125 LINE SMOOTH",
"104 1121 OFFCURVE",
"28 1061 OFFCURVE",
"28 942 CURVE SMOOTH",
"28 830 OFFCURVE",
"91 774 OFFCURVE",
"217 774 CURVE SMOOTH",
"277 774 OFFCURVE",
"339 794 OFFCURVE",
"374 829 CURVE",
"381 786 LINE",
"595 786 LINE",
"595 835 LINE",
"539 850 LINE",
"539 1186 LINE SMOOTH",
"539 1295 OFFCURVE",
"456 1362 OFFCURVE",
"323 1362 CURVE SMOOTH"
);
},
{
closed = 1;
nodes = (
"365 883 LINE",
"329 865 OFFCURVE",
"295 856 OFFCURVE",
"264 856 CURVE SMOOTH",
"222 856 OFFCURVE",
"201 886 OFFCURVE",
"201 945 CURVE SMOOTH",
"201 1025 OFFCURVE",
"226 1059 OFFCURVE",
"309 1062 CURVE SMOOTH",
"365 1064 LINE"
);
}
);
width = 614;
}
);
note = ordfeminine;
unicode = 00AA;
},
{
glyphname = ordmasculine;
lastChange = "2025-02-05 21:35:02 +0000";
layers = (
{
layerId = "9CB754D2-AD8E-43A2-9483-C1400C56EABF";
paths = (
{
closed = 1;
nodes = (
"618 1262 OFFCURVE",
"518 1361 OFFCURVE",
"338 1361 CURVE SMOOTH",
"153 1361 OFFCURVE",
"57 1259 OFFCURVE",
"57 1067 CURVE SMOOTH",
"57 872 OFFCURVE",
"154 770 OFFCURVE",
"334 770 CURVE SMOOTH",
"525 770 OFFCURVE",
"618 875 OFFCURVE",
"618 1067 CURVE SMOOTH"
);
},
{
closed = 1;
nodes = (
"442 988 OFFCURVE",
"433 931 OFFCURVE",
"416 895 CURVE SMOOTH",
"398 858 OFFCURVE",
"371 840 OFFCURVE",
"335 840 CURVE SMOOTH",
"300 840 OFFCURVE",
"274 858 OFFCURVE",
"258 895 CURVE SMOOTH",
"241 931 OFFCURVE",
"233 988 OFFCURVE",
"233 1067 CURVE SMOOTH",
"233 1145 OFFCURVE",
"241 1202 OFFCURVE",
"258 1237 CURVE SMOOTH",
"274 1272 OFFCURVE",
"300 1290 OFFCURVE",
"335 1290 CURVE SMOOTH",
"406 1290 OFFCURVE",
"442 1216 OFFCURVE",
"442 1067 CURVE SMOOTH"
);
}
);
width = 676;
}
);
note = ordmasculine;
unicode = 00BA;
},
{
glyphname = uni2126;
lastChange = "2025-02-05 21:35:02 +0000";
layers = (
{
layerId = "9CB754D2-AD8E-43A2-9483-C1400C56EABF";
paths = (
{
closed = 1;
nodes = (
"1042 1255 OFFCURVE",
"1182 1105 OFFCURVE",
"1182 837 CURVE SMOOTH",
"1182 602 OFFCURVE",
"1081 461 OFFCURVE",
"890 432 CURVE",
"867 0 LINE",
"1492 0 LINE",
"1515 384 LINE",
"1429 384 LINE",
"1368 256 LINE",
"1315 245 OFFCURVE",
"1229 240 OFFCURVE",
"1110 240 CURVE SMOOTH",
"1001 240 LINE",
"1006 345 LINE",
"1326 390 OFFCURVE",
"1514 568 OFFCURVE",
"1514 837 CURVE SMOOTH",
"1514 1169 OFFCURVE",
"1251 1356 OFFCURVE",
"787 1356 CURVE SMOOTH",
"322 1356 OFFCURVE",
"60 1168 OFFCURVE",
"60 837 CURVE SMOOTH",
"60 568 OFFCURVE",
"248 390 OFFCURVE",
"568 345 CURVE",
"573 240 LINE",
"464 240 LINE SMOOTH",
"345 240 OFFCURVE",
"259 245 OFFCURVE",
"206 256 CURVE",
"145 384 LINE",
"59 384 LINE",
"82 0 LINE",
"707 0 LINE",
"684 432 LINE",
"495 461 OFFCURVE",
"392 601 OFFCURVE",
"392 837 CURVE SMOOTH",
"392 1106 OFFCURVE",
"534 1255 OFFCURVE",
"787 1255 CURVE SMOOTH"
);
}
);
width = 1573;
}
);
note = uni2126;
unicode = 2126;
},
{
glyphname = ae;
lastChange = "2025-02-05 21:35:02 +0000";
layers = (
{
layerId = "9CB754D2-AD8E-43A2-9483-C1400C56EABF";
paths = (
{
closed = 1;
nodes = (
"889 965 OFFCURVE",
"808 940 OFFCURVE",
"746 891 CURVE",
"697 938 OFFCURVE",
"619 961 OFFCURVE",
"514 961 CURVE SMOOTH",
"407 961 OFFCURVE",
"296 949 OFFCURVE",
"179 925 CURVE",
"179 699 LINE",
"244 699 LINE",
"283 817 LINE",
"342 851 OFFCURVE",
"402 868 OFFCURVE",
"463 868 CURVE SMOOTH",
"558 868 OFFCURVE",
"602 815 OFFCURVE",
"602 696 CURVE SMOOTH",
"602 561 LINE",
"503 558 LINE SMOOTH",
"314 551 OFFCURVE",
"223 526 OFFCURVE",
"161 479 CURVE SMOOTH",
"99 431 OFFCURVE",
"66 360 OFFCURVE",
"66 260 CURVE SMOOTH",
"66 69 OFFCURVE",
"163 -20 OFFCURVE",
"355 -20 CURVE SMOOTH",
"486 -20 OFFCURVE",
"605 22 OFFCURVE",
"710 105 CURVE",
"781 24 OFFCURVE",
"889 -19 OFFCURVE",
"1070 -19 CURVE SMOOTH",
"1174 -19 OFFCURVE",
"1291 12 OFFCURVE",
"1360 57 CURVE",
"1360 134 LINE",
"1307 119 OFFCURVE",
"1210 105 OFFCURVE",
"1149 105 CURVE SMOOTH",
"1020 105 OFFCURVE",
"945 151 OFFCURVE",
"908 232 CURVE SMOOTH",
"889 273 OFFCURVE",
"879 332 OFFCURVE",
"878 409 CURVE SMOOTH",
"878 462 LINE",
"1401 462 LINE",
"1401 544 LINE SMOOTH",
"1401 821 OFFCURVE",
"1261 965 OFFCURVE",
"988 965 CURVE SMOOTH"
);
},
{
closed = 1;
nodes = (
"402 101 OFFCURVE",
"354 153 OFFCURVE",
"354 266 CURVE SMOOTH",
"354 363 OFFCURVE",
"377 418 OFFCURVE",
"423 445 CURVE SMOOTH",
"446 458 OFFCURVE",
"481 466 OFFCURVE",
"528 469 CURVE SMOOTH",
"602 472 LINE",
"602 420 LINE SMOOTH",
"602 309 OFFCURVE",
"626 207 OFFCURVE",
"661 164 CURVE",
"601 129 OFFCURVE",
"541 101 OFFCURVE",
"466 101 CURVE SMOOTH"
);
},
{
closed = 1;
nodes = (
"1041 862 OFFCURVE",
"1068 841 OFFCURVE",
"1084 798 CURVE SMOOTH",
"1099 755 OFFCURVE",
"1107 678 OFFCURVE",
"1107 567 CURVE",
"879 567 LINE",
"879 676 OFFCURVE",
"889 753 OFFCURVE",
"910 797 CURVE SMOOTH",
"930 840 OFFCURVE",
"961 862 OFFCURVE",
"1004 862 CURVE SMOOTH"
);
}
);
width = 1479;
}
);
note = ae;
unicode = 00E6;
},
{
glyphname = oslash;
lastChange = "2025-02-05 21:35:02 +0000";
layers = (
{
layerId = "9CB754D2-AD8E-43A2-9483-C1400C56EABF";
paths = (
{
closed = 1;
nodes = (
"70 -84 LINE",
"198 -84 LINE",
"275 30 LINE",
"338 -3 OFFCURVE",
"415 -20 OFFCURVE",
"506 -20 CURVE SMOOTH",
"803 -20 OFFCURVE",
"946 138 OFFCURVE",
"946 475 CURVE SMOOTH",
"946 643 OFFCURVE",
"909 768 OFFCURVE",
"834 849 CURVE",
"952 1022 LINE",
"828 1022 LINE",
"753 912 LINE",
"690 947 OFFCURVE",
"610 965 OFFCURVE",
"514 965 CURVE SMOOTH",
"219 965 OFFCURVE",
"78 807 OFFCURVE",
"78 475 CURVE SMOOTH",
"78 302 OFFCURVE",
"116 175 OFFCURVE",
"192 94 CURVE"
);
},
{
closed = 1;
nodes = (
"371 626 OFFCURVE",
"381 729 OFFCURVE",
"401 783 CURVE SMOOTH",
"421 837 OFFCURVE",
"457 864 OFFCURVE",
"508 864 CURVE SMOOTH",
"576 864 OFFCURVE",
"613 822 OFFCURVE",
"633 738 CURVE",
"373 358 LINE",
"371 414 LINE",
"371 475 LINE SMOOTH"
);
},
{
closed = 1;
nodes = (
"653 327 OFFCURVE",
"642 224 OFFCURVE",
"620 167 CURVE SMOOTH",
"598 109 OFFCURVE",
"561 80 OFFCURVE",
"508 80 CURVE SMOOTH",
"444 80 OFFCURVE",
"409 119 OFFCURVE",
"390 199 CURVE",
"651 581 LINE",
"653 475 LINE SMOOTH"
);
}
);
width = 1024;
}
);
note = oslash;
unicode = 00F8;
},
{
glyphname = questiondown;
lastChange = "2025-02-05 21:35:02 +0000";
layers = (
{
layerId = "9CB754D2-AD8E-43A2-9483-C1400C56EABF";
paths = (
{
closed = 1;
nodes = (
"488 961 OFFCURVE",
"415 887 OFFCURVE",
"415 795 CURVE SMOOTH",
"415 702 OFFCURVE",
"489 629 OFFCURVE",
"581 629 CURVE SMOOTH",
"674 629 OFFCURVE",
"746 702 OFFCURVE",
"746 795 CURVE SMOOTH",
"746 888 OFFCURVE",
"674 961 OFFCURVE",
"581 961 CURVE SMOOTH"
);
},
{
closed = 1;
nodes = (
"508 340 LINE",
"421 316 LINE SMOOTH",
"232 263 OFFCURVE",
"124 124 OFFCURVE",
"124 -69 CURVE SMOOTH",
"124 -306 OFFCURVE",
"275 -424 OFFCURVE",
"578 -424 CURVE SMOOTH",
"683 -424 OFFCURVE",
"791 -410 OFFCURVE",
"902 -381 CURVE",
"902 -86 LINE",
"813 -86 LINE",
"770 -280 LINE",
"727 -308 OFFCURVE",
"677 -322 OFFCURVE",
"621 -322 CURVE SMOOTH",
"472 -322 OFFCURVE",
"413 -245 OFFCURVE",
"413 -62 CURVE SMOOTH",
"413 85 OFFCURVE",
"461 168 OFFCURVE",
"600 204 CURVE SMOOTH",
"695 229 LINE",
"638 542 LINE",
"535 542 LINE"
);
}
);
width = 1024;
}
);
note = questiondown;
unicode = 00BF;
},
{
glyphname = exclamdown;
lastChange = "2025-02-05 21:35:02 +0000";
layers = (
{
layerId = "9CB754D2-AD8E-43A2-9483-C1400C56EABF";
paths = (
{
closed = 1;
nodes = (
"191 -409 LINE",
"490 -409 LINE",
"398 512 LINE",
"283 512 LINE"
);
},
{
closed = 1;
nodes = (
"247 961 OFFCURVE",
"174 887 OFFCURVE",
"174 795 CURVE SMOOTH",
"174 702 OFFCURVE",
"248 629 OFFCURVE",
"340 629 CURVE SMOOTH",
"433 629 OFFCURVE",
"506 703 OFFCURVE",
"506 795 CURVE SMOOTH",
"506 888 OFFCURVE",
"432 961 OFFCURVE",
"340 961 CURVE SMOOTH"
);
}
);
width = 682;
}
);
note = exclamdown;
unicode = 00A1;
},
{
glyphname = logicalnot;
lastChange = "2025-02-05 21:35:02 +0000";
layers = (
{
layerId = "9CB754D2-AD8E-43A2-9483-C1400C56EABF";
paths = (
{
closed = 1;
nodes = (
"102 752 LINE",
"102 608 LINE",
"913 608 LINE",
"913 203 LINE",
"1055 203 LINE",
"1055 752 LINE"
);
}
);
width = 1167;
}
);
note = logicalnot;
unicode = 00AC;
},
{
glyphname = radical;
lastChange = "2025-02-05 21:35:02 +0000";
layers = (
{
layerId = "9CB754D2-AD8E-43A2-9483-C1400C56EABF";
paths = (
{
closed = 1;
nodes = (
"1122 1620 LINE",
"1032 1620 LINE",
"580 158 LINE",
"322 895 LINE",
"51 895 LINE",
"51 815 LINE",
"219 815 LINE",
"516 -14 LINE",
"623 -14 LINE"
);
}
);
width = 1124;
}
);
note = radical;
unicode = 221A;
},
{
glyphname = florin;
lastChange = "2025-02-05 21:35:02 +0000";
layers = (
{
layerId = "9CB754D2-AD8E-43A2-9483-C1400C56EABF";
paths = (
{
closed = 1;
nodes = (
"349 -285 LINE",
"638 -285 LINE",
"638 692 LINE",
"819 692 LINE",
"819 796 LINE",
"638 796 LINE",
"638 997 LINE SMOOTH",
"638 1080 OFFCURVE",
"646 1143 OFFCURVE",
"663 1187 CURVE SMOOTH",
"680 1230 OFFCURVE",
"705 1252 OFFCURVE",
"738 1252 CURVE SMOOTH",
"769 1252 OFFCURVE",
"789 1240 OFFCURVE",
"801 1228 CURVE",
"830 1119 LINE",
"894 1119 LINE",
"894 1343 LINE",
"853 1355 OFFCURVE",
"781 1362 OFFCURVE",
"728 1362 CURVE SMOOTH",
"484 1362 OFFCURVE",
"349 1221 OFFCURVE",
"349 965 CURVE SMOOTH",
"349 800 LINE",
"197 761 LINE",
"197 692 LINE",
"349 692 LINE"
);
}
);
width = 1024;
}
);
note = florin;
unicode = 0192;
},
{
glyphname = uni2206;
lastChange = "2025-02-05 21:35:02 +0000";
layers = (
{
layerId = "9CB754D2-AD8E-43A2-9483-C1400C56EABF";
paths = (
{
closed = 1;
nodes = (
"1237 97 LINE",
"766 1352 LINE",
"476 1352 LINE",
"16 97 LINE",
"16 0 LINE",
"1237 0 LINE"
);
},
{
closed = 1;
nodes = (
"521 1148 LINE",
"905 119 LINE",
"152 119 LINE"
);
}
);
width = 1253;
}
);
note = uni2206;
unicode = 2206;
},
{
glyphname = guillemotleft;
lastChange = "2025-02-05 21:35:02 +0000";
layers = (
{
layerId = "9CB754D2-AD8E-43A2-9483-C1400C56EABF";
paths = (
{
closed = 1;
nodes = (
"106 430 LINE",
"436 74 LINE",
"537 74 LINE",
"354 463 LINE",
"537 852 LINE",
"436 852 LINE",
"106 496 LINE"
);
},
{
closed = 1;
nodes = (
"516 430 LINE",
"846 74 LINE",
"946 74 LINE",
"764 463 LINE",
"946 852 LINE",
"846 852 LINE",
"516 496 LINE"
);
}
);
width = 1024;
}
);
note = guillemotleft;
unicode = 00AB;
},
{
glyphname = guillemotright;
lastChange = "2025-02-05 21:35:02 +0000";
layers = (
{
layerId = "9CB754D2-AD8E-43A2-9483-C1400C56EABF";
paths = (
{
closed = 1;
nodes = (
"918 496 LINE",
"588 852 LINE",
"487 852 LINE",
"670 463 LINE",
"487 74 LINE",
"588 74 LINE",
"918 430 LINE"
);
},
{
closed = 1;
nodes = (
"508 496 LINE",
"178 852 LINE",
"78 852 LINE",
"260 463 LINE",
"78 74 LINE",
"178 74 LINE",
"508 430 LINE"
);
}
);
width = 1024;
}
);
note = guillemotright;
unicode = 00BB;
},
{
glyphname = ellipsis;
lastChange = "2025-02-05 21:35:02 +0000";
layers = (
{
layerId = "9CB754D2-AD8E-43A2-9483-C1400C56EABF";
paths = (
{
closed = 1;
nodes = (
"429 -29 OFFCURVE",
"502 45 OFFCURVE",
"502 137 CURVE SMOOTH",
"502 230 OFFCURVE",
"428 303 OFFCURVE",
"336 303 CURVE SMOOTH",
"243 303 OFFCURVE",
"170 229 OFFCURVE",
"170 137 CURVE SMOOTH",
"170 44 OFFCURVE",
"244 -29 OFFCURVE",
"336 -29 CURVE SMOOTH"
);
},
{
closed = 1;
nodes = (
"1119 -29 OFFCURVE",
"1192 45 OFFCURVE",
"1192 137 CURVE SMOOTH",
"1192 230 OFFCURVE",
"1118 303 OFFCURVE",
"1026 303 CURVE SMOOTH",
"933 303 OFFCURVE",
"860 229 OFFCURVE",
"860 137 CURVE SMOOTH",
"860 44 OFFCURVE",
"934 -29 OFFCURVE",
"1026 -29 CURVE SMOOTH"
);
},
{
closed = 1;
nodes = (
"1809 -29 OFFCURVE",
"1882 45 OFFCURVE",
"1882 137 CURVE SMOOTH",
"1882 230 OFFCURVE",
"1808 303 OFFCURVE",
"1716 303 CURVE SMOOTH",
"1623 303 OFFCURVE",
"1550 229 OFFCURVE",
"1550 137 CURVE SMOOTH",
"1550 44 OFFCURVE",
"1624 -29 OFFCURVE",
"1716 -29 CURVE SMOOTH"
);
}
);
width = 2048;
}
);
note = ellipsis;
unicode = 2026;
},
{
glyphname = OE;
lastChange = "2025-02-05 21:35:02 +0000";
layers = (
{
layerId = "9CB754D2-AD8E-43A2-9483-C1400C56EABF";
paths = (
{
closed = 1;
nodes = (
"113 223 OFFCURVE",
"354 -7 OFFCURVE",
"810 -7 CURVE SMOOTH",
"850 -7 OFFCURVE",
"910 -5 OFFCURVE",
"989 0 CURVE",
"1924 0 LINE",
"1943 374 LINE",
"1852 374 LINE",
"1795 126 LINE",
"1746 117 OFFCURVE",
"1574 110 OFFCURVE",
"1445 110 CURVE SMOOTH",
"1292 110 LINE",
"1292 627 LINE",
"1555 627 LINE",
"1586 475 LINE",
"1675 475 LINE",
"1675 887 LINE",
"1586 887 LINE",
"1555 739 LINE",
"1292 739 LINE",
"1292 1231 LINE",
"1400 1231 LINE SMOOTH",
"1549 1231 OFFCURVE",
"1661 1226 OFFCURVE",
"1736 1217 CURVE",
"1768 1000 LINE",
"1859 1000 LINE",
"1859 1341 LINE",
"1006 1341 LINE",
"931 1346 OFFCURVE",
"866 1349 OFFCURVE",
"810 1349 CURVE SMOOTH",
"341 1349 OFFCURVE",
"113 1128 OFFCURVE",
"113 675 CURVE SMOOTH"
);
},
{
closed = 1;
nodes = (
"445 1090 OFFCURVE",
"553 1248 OFFCURVE",
"810 1248 CURVE SMOOTH",
"881 1248 OFFCURVE",
"936 1242 OFFCURVE",
"977 1229 CURVE",
"977 112 LINE",
"939 99 OFFCURVE",
"883 93 OFFCURVE",
"810 93 CURVE SMOOTH",
"555 93 OFFCURVE",
"445 254 OFFCURVE",
"445 675 CURVE SMOOTH"
);
}
);
width = 2048;
}
);
note = OE;
unicode = 0152;
},
{
glyphname = oe;
lastChange = "2025-02-05 21:35:02 +0000";
layers = (
{
layerId = "9CB754D2-AD8E-43A2-9483-C1400C56EABF";
paths = (
{
closed = 1;
nodes = (
"921 963 OFFCURVE",
"827 923 OFFCURVE",
"763 843 CURVE",
"699 924 OFFCURVE",
"604 965 OFFCURVE",
"479 965 CURVE SMOOTH",
"187 965 OFFCURVE",
"48 811 OFFCURVE",
"48 475 CURVE SMOOTH",
"48 142 OFFCURVE",
"184 -20 OFFCURVE",
"471 -20 CURVE SMOOTH",
"608 -20 OFFCURVE",
"709 25 OFFCURVE",
"773 115 CURVE",
"851 26 OFFCURVE",
"968 -19 OFFCURVE",
"1124 -19 CURVE SMOOTH",
"1221 -19 OFFCURVE",
"1311 6 OFFCURVE",
"1393 57 CURVE",
"1393 134 LINE",
"1321 119 OFFCURVE",
"1256 105 OFFCURVE",
"1175 105 CURVE SMOOTH",
"1042 105 OFFCURVE",
"970 152 OFFCURVE",
"935 237 CURVE SMOOTH",
"918 280 OFFCURVE",
"909 349 OFFCURVE",
"909 446 CURVE SMOOTH",
"909 462 LINE",
"1432 462 LINE",
"1432 544 LINE SMOOTH",
"1432 824 OFFCURVE",
"1314 963 OFFCURVE",
"1046 963 CURVE SMOOTH"
);
},
{
closed = 1;
nodes = (
"613 318 OFFCURVE",
"603 213 OFFCURVE",
"582 160 CURVE SMOOTH",
"561 107 OFFCURVE",
"524 80 OFFCURVE",
"473 80 CURVE SMOOTH",
"405 80 OFFCURVE",
"370 124 OFFCURVE",
"354 223 CURVE SMOOTH",
"345 272 OFFCURVE",
"341 356 OFFCURVE",
"341 475 CURVE SMOOTH",
"341 590 OFFCURVE",
"345 672 OFFCURVE",
"353 721 CURVE SMOOTH",
"369 820 OFFCURVE",
"404 864 OFFCURVE",
"473 864 CURVE SMOOTH",
"524 864 OFFCURVE",
"561 838 OFFCURVE",
"582 785 CURVE SMOOTH",
"603 732 OFFCURVE",
"613 629 OFFCURVE",
"613 475 CURVE SMOOTH"
);
},
{
closed = 1;
nodes = (
"1090 862 OFFCURVE",
"1117 829 OFFCURVE",
"1129 761 CURVE SMOOTH",
"1135 727 OFFCURVE",
"1138 662 OFFCURVE",
"1138 567 CURVE",
"910 567 LINE",
"910 678 OFFCURVE",
"920 755 OFFCURVE",
"940 798 CURVE SMOOTH",
"960 841 OFFCURVE",
"992 862 OFFCURVE",
"1035 862 CURVE SMOOTH"
);
}
);
width = 1479;
}
);
note = oe;
unicode = 0153;
},
{
glyphname = endash;
lastChange = "2025-02-05 21:35:02 +0000";
layers = (
{
layerId = "9CB754D2-AD8E-43A2-9483-C1400C56EABF";
paths = (
{
closed = 1;
nodes = (
"-14 549 LINE",
"-14 406 LINE",
"1038 406 LINE",
"1038 549 LINE"
);
}
);
width = 1024;
}
);
note = endash;
unicode = 2013;
},
{
glyphname = emdash;
lastChange = "2025-02-05 21:35:02 +0000";
layers = (
{
layerId = "9CB754D2-AD8E-43A2-9483-C1400C56EABF";
paths = (
{
closed = 1;
nodes = (
"-14 549 LINE",
"-14 406 LINE",
"2062 406 LINE",
"2062 549 LINE"
);
}
);
width = 2048;
}
);
note = emdash;
unicode = 2014;
},
{
glyphname = quotedblleft;
lastChange = "2025-02-05 21:35:02 +0000";
layers = (
{
layerId = "9CB754D2-AD8E-43A2-9483-C1400C56EABF";
paths = (
{
closed = 1;
nodes = (
"99 824 OFFCURVE",
"183 743 OFFCURVE",
"296 743 CURVE SMOOTH",
"393 743 OFFCURVE",
"458 796 OFFCURVE",
"458 877 CURVE SMOOTH",
"458 932 OFFCURVE",
"432 974 OFFCURVE",
"381 1001 CURVE SMOOTH",
"350 1017 OFFCURVE",
"330 1030 OFFCURVE",
"320 1041 CURVE SMOOTH",
"309 1051 OFFCURVE",
"304 1064 OFFCURVE",
"304 1079 CURVE SMOOTH",
"304 1152 OFFCURVE",
"385 1233 OFFCURVE",
"507 1270 CURVE",
"507 1362 LINE",
"238 1290 OFFCURVE",
"99 1143 OFFCURVE",
"99 936 CURVE SMOOTH"
);
},
{
closed = 1;
nodes = (
"549 824 OFFCURVE",
"633 743 OFFCURVE",
"746 743 CURVE SMOOTH",
"843 743 OFFCURVE",
"908 796 OFFCURVE",
"908 877 CURVE SMOOTH",
"908 932 OFFCURVE",
"882 974 OFFCURVE",
"831 1001 CURVE SMOOTH",
"800 1017 OFFCURVE",
"780 1030 OFFCURVE",
"770 1041 CURVE SMOOTH",
"759 1051 OFFCURVE",
"754 1064 OFFCURVE",
"754 1079 CURVE SMOOTH",
"754 1152 OFFCURVE",
"835 1233 OFFCURVE",
"957 1270 CURVE",
"957 1362 LINE",
"688 1290 OFFCURVE",
"549 1143 OFFCURVE",
"549 936 CURVE SMOOTH"
);
}
);
width = 1024;
}
);
note = quotedblleft;
unicode = 201C;
},
{
glyphname = quotedblright;
lastChange = "2025-02-05 21:35:02 +0000";
layers = (
{
layerId = "9CB754D2-AD8E-43A2-9483-C1400C56EABF";
paths = (
{
closed = 1;
nodes = (
"932 1282 OFFCURVE",
"850 1362 OFFCURVE",
"738 1362 CURVE SMOOTH",
"641 1362 OFFCURVE",
"576 1312 OFFCURVE",
"576 1229 CURVE SMOOTH",
"576 1172 OFFCURVE",
"602 1131 OFFCURVE",
"653 1105 CURVE SMOOTH",
"705 1078 OFFCURVE",
"729 1058 OFFCURVE",
"729 1026 CURVE SMOOTH",
"729 957 OFFCURVE",
"653 874 OFFCURVE",
"527 836 CURVE",
"527 743 LINE",
"795 815 OFFCURVE",
"932 959 OFFCURVE",
"932 1167 CURVE SMOOTH"
);
},
{
closed = 1;
nodes = (
"484 1279 OFFCURVE",
"400 1362 OFFCURVE",
"288 1362 CURVE SMOOTH",
"191 1362 OFFCURVE",
"126 1312 OFFCURVE",
"126 1229 CURVE SMOOTH",
"126 1172 OFFCURVE",
"152 1131 OFFCURVE",
"203 1105 CURVE SMOOTH",
"255 1078 OFFCURVE",
"279 1058 OFFCURVE",
"279 1026 CURVE SMOOTH",
"279 957 OFFCURVE",
"203 874 OFFCURVE",
"77 836 CURVE",
"77 743 LINE",
"341 812 OFFCURVE",
"484 960 OFFCURVE",
"484 1167 CURVE SMOOTH"
);
}
);
width = 1024;
}
);
note = quotedblright;
unicode = 201D;
},
{
glyphname = quoteleft;
lastChange = "2025-02-05 21:35:02 +0000";
layers = (
{
layerId = "9CB754D2-AD8E-43A2-9483-C1400C56EABF";
paths = (
{
closed = 1;
nodes = (
"161 824 OFFCURVE",
"245 743 OFFCURVE",
"358 743 CURVE SMOOTH",
"455 743 OFFCURVE",
"520 796 OFFCURVE",
"520 877 CURVE SMOOTH",
"520 932 OFFCURVE",
"494 974 OFFCURVE",
"443 1001 CURVE SMOOTH",
"412 1017 OFFCURVE",
"392 1030 OFFCURVE",
"382 1041 CURVE SMOOTH",
"371 1051 OFFCURVE",
"366 1064 OFFCURVE",
"366 1079 CURVE SMOOTH",
"366 1152 OFFCURVE",
"447 1233 OFFCURVE",
"569 1270 CURVE",
"569 1362 LINE",
"300 1290 OFFCURVE",
"161 1143 OFFCURVE",
"161 936 CURVE SMOOTH"
);
}
);
width = 682;
}
);
note = quoteleft;
unicode = 2018;
},
{
glyphname = quoteright;
lastChange = "2025-02-05 21:35:02 +0000";
layers = (
{
layerId = "9CB754D2-AD8E-43A2-9483-C1400C56EABF";
paths = (
{
closed = 1;
nodes = (
"535 1283 OFFCURVE",
"450 1362 OFFCURVE",
"338 1362 CURVE SMOOTH",
"241 1362 OFFCURVE",
"178 1310 OFFCURVE",
"178 1229 CURVE SMOOTH",
"178 1172 OFFCURVE",
"203 1130 OFFCURVE",
"254 1105 CURVE SMOOTH",
"305 1080 OFFCURVE",
"330 1058 OFFCURVE",
"330 1026 CURVE SMOOTH",
"330 959 OFFCURVE",
"255 875 OFFCURVE",
"127 836 CURVE",
"127 743 LINE",
"394 814 OFFCURVE",
"535 958 OFFCURVE",
"535 1167 CURVE SMOOTH"
);
}
);
width = 682;
}
);
note = quoteright;
unicode = 2019;
},
{
glyphname = divide;
lastChange = "2025-02-05 21:35:02 +0000";
layers = (
{
layerId = "9CB754D2-AD8E-43A2-9483-C1400C56EABF";
paths = (
{
closed = 1;
nodes = (
"86 751 LINE",
"86 608 LINE",
"1038 608 LINE",
"1038 751 LINE"
);
},
{
closed = 1;
nodes = (
"636 183 OFFCURVE",
"695 242 OFFCURVE",
"695 317 CURVE SMOOTH",
"695 392 OFFCURVE",
"636 451 OFFCURVE",
"561 451 CURVE SMOOTH",
"486 451 OFFCURVE",
"427 392 OFFCURVE",
"427 317 CURVE SMOOTH",
"427 242 OFFCURVE",
"486 183 OFFCURVE",
"561 183 CURVE SMOOTH"
);
},
{
closed = 1;
nodes = (
"636 909 OFFCURVE",
"695 968 OFFCURVE",
"695 1043 CURVE SMOOTH",
"695 1118 OFFCURVE",
"636 1177 OFFCURVE",
"561 1177 CURVE SMOOTH",
"486 1177 OFFCURVE",
"427 1118 OFFCURVE",
"427 1043 CURVE SMOOTH",
"427 968 OFFCURVE",
"486 909 OFFCURVE",
"561 909 CURVE SMOOTH"
);
}
);
width = 1124;
}
);
note = divide;
unicode = 00F7;
},
{
glyphname = lozenge;
lastChange = "2025-02-05 21:35:02 +0000";
layers = (
{
layerId = "9CB754D2-AD8E-43A2-9483-C1400C56EABF";
paths = (
{
closed = 1;
nodes = (
"1006 721 LINE",
"547 1440 LINE",
"465 1440 LINE",
"8 719 LINE",
"465 0 LINE",
"547 0 LINE"
);
},
{
closed = 1;
nodes = (
"860 721 LINE",
"508 147 LINE",
"154 721 LINE",
"508 1286 LINE"
);
}
);
width = 1012;
}
);
note = lozenge;
unicode = 25CA;
},
{
glyphname = fraction;
lastChange = "2025-02-05 21:35:02 +0000";
layers = (
{
layerId = "9CB754D2-AD8E-43A2-9483-C1400C56EABF";
paths = (
{
closed = 1;
nodes = (
"712 1341 LINE",
"592 1341 LINE",
"-373 0 LINE",
"-250 0 LINE"
);
}
);
width = 342;
}
);
note = fraction;
unicode = "2044,2215";
},
{
glyphname = Euro;
lastChange = "2025-02-05 21:35:02 +0000";
layers = (
{
layerId = "9CB754D2-AD8E-43A2-9483-C1400C56EABF";
paths = (
{
closed = 1;
nodes = (
"26 493 LINE",
"144 493 LINE",
"185 162 OFFCURVE",
"368 -20 OFFCURVE",
"661 -20 CURVE SMOOTH",
"777 -20 OFFCURVE",
"889 -3 OFFCURVE",
"997 30 CURVE",
"1001 328 LINE",
"912 328 LINE",
"884 163 LINE",
"836 110 OFFCURVE",
"770 83 OFFCURVE",
"686 83 CURVE SMOOTH",
"550 83 OFFCURVE",
"453 216 OFFCURVE",
"430 493 CURVE",
"714 493 LINE",
"714 594 LINE",
"427 594 LINE",
"425 606 OFFCURVE",
"424 630 OFFCURVE",
"424 667 CURVE SMOOTH",
"427 738 LINE",
"714 738 LINE",
"714 839 LINE",
"430 839 LINE",
"449 1115 OFFCURVE",
"532 1253 OFFCURVE",
"678 1253 CURVE SMOOTH",
"747 1253 OFFCURVE",
"810 1231 OFFCURVE",
"866 1188 CURVE",
"894 1038 LINE",
"983 1038 LINE",
"979 1323 LINE",
"866 1346 OFFCURVE",
"788 1356 OFFCURVE",
"653 1356 CURVE SMOOTH",
"354 1356 OFFCURVE",
"184 1184 OFFCURVE",
"144 839 CURVE",
"26 839 LINE",
"26 738 LINE",
"136 738 LINE",
"134 699 LINE",
"134 661 LINE",
"136 594 LINE",
"26 594 LINE"
);
}
);
width = 1024;
}
);
note = Euro;
unicode = 20AC;
},
{
glyphname = guilsinglleft;
lastChange = "2025-02-05 21:35:02 +0000";
layers = (
{
layerId = "9CB754D2-AD8E-43A2-9483-C1400C56EABF";
paths = (
{
closed = 1;
nodes = (
"126 429 LINE",
"456 74 LINE",
"556 74 LINE",
"374 462 LINE",
"556 851 LINE",
"456 851 LINE",
"126 495 LINE"
);
}
);
width = 682;
}
);
note = guilsinglleft;
unicode = 2039;
},
{
glyphname = guilsinglright;
lastChange = "2025-02-05 21:35:02 +0000";
layers = (
{
layerId = "9CB754D2-AD8E-43A2-9483-C1400C56EABF";
paths = (
{
closed = 1;
nodes = (
"556 496 LINE",
"226 852 LINE",
"126 852 LINE",
"308 463 LINE",
"126 74 LINE",
"226 74 LINE",
"556 430 LINE"
);
}
);
width = 682;
}
);
note = guilsinglright;
unicode = 203A;
},
{
glyphname = uniFB01;
lastChange = "2025-02-05 21:35:02 +0000";
layers = (
{
layerId = "9CB754D2-AD8E-43A2-9483-C1400C56EABF";
paths = (
{
closed = 1;
nodes = (
"1026 940 LINE",
"446 940 LINE",
"446 1057 LINE SMOOTH",
"446 1240 OFFCURVE",
"514 1332 OFFCURVE",
"651 1332 CURVE SMOOTH",
"710 1332 OFFCURVE",
"759 1307 OFFCURVE",
"782 1286 CURVE",
"821 1172 LINE",
"885 1172 LINE",
"885 1406 LINE",
"842 1422 OFFCURVE",
"719 1442 OFFCURVE",
"636 1442 CURVE SMOOTH",
"337 1442 OFFCURVE",
"157 1286 OFFCURVE",
"157 1025 CURVE SMOOTH",
"157 944 LINE",
"15 905 LINE",
"15 836 LINE",
"157 836 LINE",
"157 90 LINE",
"55 66 LINE",
"55 0 LINE",
"549 0 LINE",
"549 66 LINE",
"446 90 LINE",
"446 836 LINE",
"737 836 LINE",
"737 90 LINE",
"635 66 LINE",
"635 0 LINE",
"1129 0 LINE",
"1129 66 LINE",
"1026 90 LINE"
);
}
);
width = 1139;
}
);
note = uniFB01;
unicode = "F001,FB01";
},
{
glyphname = uniFB02;
lastChange = "2025-02-05 21:35:02 +0000";
layers = (
{
layerId = "9CB754D2-AD8E-43A2-9483-C1400C56EABF";
paths = (
{
closed = 1;
nodes = (
"157 90 LINE",
"55 66 LINE",
"55 0 LINE",
"559 0 LINE",
"559 66 LINE",
"446 90 LINE",
"446 836 LINE",
"637 836 LINE",
"637 940 LINE",
"446 940 LINE",
"446 1087 LINE SMOOTH",
"446 1242 OFFCURVE",
"489 1332 OFFCURVE",
"570 1332 CURVE SMOOTH",
"618 1332 OFFCURVE",
"671 1317 OFFCURVE",
"728 1287 CURVE",
"728 90 LINE",
"626 66 LINE",
"626 0 LINE",
"1120 0 LINE",
"1120 66 LINE",
"1017 90 LINE",
"1017 1421 LINE",
"802 1421 LINE",
"676 1435 OFFCURVE",
"591 1442 OFFCURVE",
"546 1442 CURVE SMOOTH",
"298 1442 OFFCURVE",
"157 1298 OFFCURVE",
"157 1045 CURVE SMOOTH",
"157 944 LINE",
"15 905 LINE",
"15 836 LINE",
"157 836 LINE"
);
}
);
width = 1139;
}
);
note = uniFB02;
unicode = "F002,FB02";
},
{
glyphname = daggerdbl;
lastChange = "2025-02-05 21:35:02 +0000";
layers = (
{
layerId = "9CB754D2-AD8E-43A2-9483-C1400C56EABF";
paths = (
{
closed = 1;
nodes = (
"971 92 LINE",
"971 330 LINE",
"565 262 LINE",
"651 412 LINE",
"555 590 LINE",
"651 770 LINE",
"565 920 LINE",
"971 854 LINE",
"971 1090 LINE",
"565 1026 LINE",
"633 1421 LINE",
"395 1421 LINE",
"459 1026 LINE",
"53 1090 LINE",
"53 854 LINE",
"459 920 LINE",
"377 770 LINE",
"469 590 LINE",
"377 412 LINE",
"459 262 LINE",
"53 330 LINE",
"53 92 LINE",
"459 156 LINE",
"395 -240 LINE",
"633 -240 LINE",
"565 156 LINE"
);
}
);
width = 1024;
}
);
note = daggerdbl;
unicode = 2021;
},
{
glyphname = periodcentered;
lastChange = "2025-02-05 21:35:02 +0000";
layers = (
{
layerId = "9CB754D2-AD8E-43A2-9483-C1400C56EABF";
paths = (
{
closed = 1;
nodes = (
"349 511 OFFCURVE",
"422 585 OFFCURVE",
"422 677 CURVE SMOOTH",
"422 770 OFFCURVE",
"348 843 OFFCURVE",
"256 843 CURVE SMOOTH",
"163 843 OFFCURVE",
"90 769 OFFCURVE",
"90 677 CURVE SMOOTH",
"90 584 OFFCURVE",
"164 511 OFFCURVE",
"256 511 CURVE SMOOTH"
);
}
);
width = 512;
}
);
note = periodcentered;
unicode = 2219;
},
{
glyphname = quotesinglbase;
lastChange = "2025-02-05 21:35:02 +0000";
layers = (
{
layerId = "9CB754D2-AD8E-43A2-9483-C1400C56EABF";
paths = (
{
closed = 1;
nodes = (
"524 219 OFFCURVE",
"441 301 OFFCURVE",
"328 301 CURVE SMOOTH",
"231 301 OFFCURVE",
"168 249 OFFCURVE",
"168 168 CURVE SMOOTH",
"168 112 OFFCURVE",
"193 71 OFFCURVE",
"244 44 CURVE SMOOTH",
"274 27 OFFCURVE",
"294 14 OFFCURVE",
"304 3 CURVE SMOOTH",
"314 -8 OFFCURVE",
"319 -20 OFFCURVE",
"319 -35 CURVE SMOOTH",
"319 -104 OFFCURVE",
"243 -187 OFFCURVE",
"117 -225 CURVE",
"117 -317 LINE",
"388 -246 OFFCURVE",
"524 -105 OFFCURVE",
"524 106 CURVE SMOOTH"
);
}
);
width = 682;
}
);
note = quotesinglbase;
unicode = 201A;
},
{
glyphname = quotedblbase;
lastChange = "2025-02-05 21:35:02 +0000";
layers = (
{
layerId = "9CB754D2-AD8E-43A2-9483-C1400C56EABF";
paths = (
{
closed = 1;
nodes = (
"916 219 OFFCURVE",
"833 301 OFFCURVE",
"720 301 CURVE SMOOTH",
"627 301 OFFCURVE",
"560 255 OFFCURVE",
"560 168 CURVE SMOOTH",
"560 112 OFFCURVE",
"585 71 OFFCURVE",
"636 44 CURVE SMOOTH",
"666 27 OFFCURVE",
"686 14 OFFCURVE",
"696 3 CURVE SMOOTH",
"706 -8 OFFCURVE",
"711 -20 OFFCURVE",
"711 -35 CURVE SMOOTH",
"711 -104 OFFCURVE",
"635 -187 OFFCURVE",
"509 -225 CURVE",
"509 -317 LINE",
"780 -246 OFFCURVE",
"916 -105 OFFCURVE",
"916 106 CURVE SMOOTH"
);
},
{
closed = 1;
nodes = (
"466 219 OFFCURVE",
"383 301 OFFCURVE",
"270 301 CURVE SMOOTH",
"177 301 OFFCURVE",
"110 255 OFFCURVE",
"110 168 CURVE SMOOTH",
"110 112 OFFCURVE",
"135 71 OFFCURVE",
"186 44 CURVE SMOOTH",
"216 27 OFFCURVE",
"236 14 OFFCURVE",
"246 3 CURVE SMOOTH",
"256 -8 OFFCURVE",
"261 -20 OFFCURVE",
"261 -35 CURVE SMOOTH",
"261 -104 OFFCURVE",
"185 -187 OFFCURVE",
"59 -225 CURVE",
"59 -317 LINE",
"330 -245 OFFCURVE",
"466 -104 OFFCURVE",
"466 106 CURVE SMOOTH"
);
}
);
width = 1024;
}
);
note = quotedblbase;
unicode = 201E;
},
{
glyphname = perthousand;
lastChange = "2025-02-05 21:35:02 +0000";
layers = (
{
layerId = "9CB754D2-AD8E-43A2-9483-C1400C56EABF";
paths = (
{
closed = 1;
nodes = (
"1241 1362 LINE",
"1090 1362 LINE",
"142 -20 LINE",
"292 -20 LINE"
);
},
{
closed = 1;
nodes = (
"654 1248 OFFCURVE",
"552 1364 OFFCURVE",
"349 1364 CURVE SMOOTH",
"144 1364 OFFCURVE",
"42 1248 OFFCURVE",
"42 1015 CURVE SMOOTH",
"42 780 OFFCURVE",
"143 662 OFFCURVE",
"344 662 CURVE SMOOTH",
"551 662 OFFCURVE",
"654 780 OFFCURVE",
"654 1015 CURVE SMOOTH"
);
},
{
closed = 1;
nodes = (
"449 919 OFFCURVE",
"441 851 OFFCURVE",
"424 811 CURVE SMOOTH",
"407 770 OFFCURVE",
"380 750 OFFCURVE",
"344 750 CURVE SMOOTH",
"310 750 OFFCURVE",
"285 769 OFFCURVE",
"270 808 CURVE SMOOTH",
"254 847 OFFCURVE",
"246 916 OFFCURVE",
"246 1015 CURVE SMOOTH",
"246 1114 OFFCURVE",
"254 1182 OFFCURVE",
"270 1219 CURVE SMOOTH",
"285 1256 OFFCURVE",
"310 1275 OFFCURVE",
"344 1275 CURVE SMOOTH",
"381 1275 OFFCURVE",
"407 1255 OFFCURVE",
"424 1215 CURVE SMOOTH",
"441 1175 OFFCURVE",
"449 1108 OFFCURVE",
"449 1015 CURVE SMOOTH"
);
},
{
closed = 1;
nodes = (
"1335 557 OFFCURVE",
"1233 673 OFFCURVE",
"1030 673 CURVE SMOOTH",
"825 673 OFFCURVE",
"723 557 OFFCURVE",
"723 324 CURVE SMOOTH",
"723 89 OFFCURVE",
"824 -29 OFFCURVE",
"1025 -29 CURVE SMOOTH",
"1232 -29 OFFCURVE",
"1335 89 OFFCURVE",
"1335 324 CURVE SMOOTH"
);
},
{
closed = 1;
nodes = (
"1130 228 OFFCURVE",
"1122 160 OFFCURVE",
"1105 120 CURVE SMOOTH",
"1088 79 OFFCURVE",
"1061 59 OFFCURVE",
"1025 59 CURVE SMOOTH",
"991 59 OFFCURVE",
"966 78 OFFCURVE",
"951 117 CURVE SMOOTH",
"935 156 OFFCURVE",
"927 225 OFFCURVE",
"927 324 CURVE SMOOTH",
"927 423 OFFCURVE",
"935 491 OFFCURVE",
"951 528 CURVE SMOOTH",
"966 565 OFFCURVE",
"991 584 OFFCURVE",
"1025 584 CURVE SMOOTH",
"1062 584 OFFCURVE",
"1088 564 OFFCURVE",
"1105 524 CURVE SMOOTH",
"1122 484 OFFCURVE",
"1130 417 OFFCURVE",
"1130 324 CURVE SMOOTH"
);
},
{
closed = 1;
nodes = (
"2005 557 OFFCURVE",
"1903 673 OFFCURVE",
"1700 673 CURVE SMOOTH",
"1495 673 OFFCURVE",
"1393 557 OFFCURVE",
"1393 324 CURVE SMOOTH",
"1393 89 OFFCURVE",
"1494 -29 OFFCURVE",
"1695 -29 CURVE SMOOTH",
"1902 -29 OFFCURVE",
"2005 89 OFFCURVE",
"2005 324 CURVE SMOOTH"
);
},
{
closed = 1;
nodes = (
"1800 228 OFFCURVE",
"1792 160 OFFCURVE",
"1775 120 CURVE SMOOTH",
"1758 79 OFFCURVE",
"1731 59 OFFCURVE",
"1695 59 CURVE SMOOTH",
"1661 59 OFFCURVE",
"1636 78 OFFCURVE",
"1621 117 CURVE SMOOTH",
"1605 156 OFFCURVE",
"1597 225 OFFCURVE",
"1597 324 CURVE SMOOTH",
"1597 423 OFFCURVE",
"1605 491 OFFCURVE",
"1621 528 CURVE SMOOTH",
"1636 565 OFFCURVE",
"1661 584 OFFCURVE",
"1695 584 CURVE SMOOTH",
"1732 584 OFFCURVE",
"1758 564 OFFCURVE",
"1775 524 CURVE SMOOTH",
"1792 484 OFFCURVE",
"1800 417 OFFCURVE",
"1800 324 CURVE SMOOTH"
);
}
);
width = 2048;
}
);
note = perthousand;
unicode = 2030;
},
{
glyphname = dotlessi;
lastChange = "2025-02-05 21:35:02 +0000";
layers = (
{
layerId = "9CB754D2-AD8E-43A2-9483-C1400C56EABF";
paths = (
{
closed = 1;
nodes = (
"436 940 LINE",
"51 940 LINE",
"51 874 LINE",
"147 850 LINE",
"147 90 LINE",
"45 66 LINE",
"45 0 LINE",
"539 0 LINE",
"539 66 LINE",
"436 90 LINE"
);
}
);
width = 569;
}
);
note = dotlessi;
unicode = 0131;
},
{
glyphname = circumflex;
lastChange = "2025-02-05 21:35:02 +0000";
layers = (
{
layerId = "9CB754D2-AD8E-43A2-9483-C1400C56EABF";
paths = (
{
closed = 1;
nodes = (
"94 1118 LINE",
"342 1280 LINE",
"590 1118 LINE",
"666 1118 LINE",
"666 1151 LINE",
"449 1444 LINE",
"236 1444 LINE",
"18 1151 LINE",
"18 1118 LINE"
);
}
);
width = 682;
}
);
note = circumflex;
unicode = 02C6;
},
{
glyphname = tilde;
lastChange = "2025-02-05 21:35:02 +0000";
layers = (
{
layerId = "9CB754D2-AD8E-43A2-9483-C1400C56EABF";
paths = (
{
closed = 1;
nodes = (
"597 1120 OFFCURVE",
"665 1203 OFFCURVE",
"680 1406 CURVE",
"575 1406 LINE",
"563 1339 OFFCURVE",
"558 1313 OFFCURVE",
"537 1301 CURVE SMOOTH",
"529 1296 OFFCURVE",
"519 1294 OFFCURVE",
"506 1294 CURVE SMOOTH",
"487 1294 OFFCURVE",
"458 1309 OFFCURVE",
"417 1339 CURVE SMOOTH",
"324 1406 OFFCURVE",
"284 1425 OFFCURVE",
"219 1425 CURVE SMOOTH",
"90 1425 OFFCURVE",
"19 1343 OFFCURVE",
"4 1138 CURVE",
"109 1138 LINE",
"115 1185 OFFCURVE",
"122 1216 OFFCURVE",
"131 1231 CURVE SMOOTH",
"140 1246 OFFCURVE",
"155 1253 OFFCURVE",
"178 1253 CURVE SMOOTH",
"200 1253 OFFCURVE",
"230 1238 OFFCURVE",
"268 1208 CURVE SMOOTH",
"343 1149 OFFCURVE",
"408 1120 OFFCURVE",
"465 1120 CURVE SMOOTH"
);
}
);
width = 682;
}
);
note = tilde;
unicode = 02DC;
},
{
glyphname = uni02C9;
lastChange = "2025-02-05 21:35:02 +0000";
layers = (
{
layerId = "9CB754D2-AD8E-43A2-9483-C1400C56EABF";
paths = (
{
closed = 1;
nodes = (
"655 1121 LINE",
"655 1271 LINE",
"27 1271 LINE",
"27 1121 LINE"
);
}
);
width = 682;
}
);
note = uni02C9;
unicode = 02C9;
},
{
glyphname = breve;
lastChange = "2025-02-05 21:35:02 +0000";
layers = (
{
layerId = "9CB754D2-AD8E-43A2-9483-C1400C56EABF";
paths = (
{
closed = 1;
nodes = (
"525 1120 OFFCURVE",
"634 1232 OFFCURVE",
"641 1443 CURVE",
"540 1443 LINE",
"512 1335 OFFCURVE",
"456 1292 OFFCURVE",
"340 1292 CURVE SMOOTH",
"232 1292 OFFCURVE",
"163 1332 OFFCURVE",
"140 1443 CURVE",
"39 1443 LINE",
"42 1239 OFFCURVE",
"152 1120 OFFCURVE",
"340 1120 CURVE SMOOTH"
);
}
);
width = 682;
}
);
note = breve;
unicode = 02D8;
},
{
glyphname = dotaccent;
lastChange = "2025-02-05 21:35:02 +0000";
layers = (
{
layerId = "9CB754D2-AD8E-43A2-9483-C1400C56EABF";
paths = (
{
closed = 1;
nodes = (
"189 1181 OFFCURVE",
"258 1114 OFFCURVE",
"343 1114 CURVE SMOOTH",
"430 1114 OFFCURVE",
"496 1184 OFFCURVE",
"496 1268 CURVE SMOOTH",
"496 1353 OFFCURVE",
"428 1421 OFFCURVE",
"343 1421 CURVE SMOOTH",
"259 1421 OFFCURVE",
"189 1355 OFFCURVE",
"189 1268 CURVE SMOOTH"
);
}
);
width = 682;
}
);
note = dotaccent;
unicode = 02D9;
},
{
glyphname = ring;
lastChange = "2025-02-05 21:35:02 +0000";
layers = (
{
layerId = "9CB754D2-AD8E-43A2-9483-C1400C56EABF";
paths = (
{
closed = 1;
nodes = (
"459 1059 OFFCURVE",
"553 1153 OFFCURVE",
"553 1272 CURVE SMOOTH",
"553 1392 OFFCURVE",
"459 1483 OFFCURVE",
"342 1483 CURVE SMOOTH",
"225 1483 OFFCURVE",
"131 1392 OFFCURVE",
"131 1272 CURVE SMOOTH",
"131 1152 OFFCURVE",
"226 1059 OFFCURVE",
"342 1059 CURVE SMOOTH"
);
},
{
closed = 1;
nodes = (
"393 1371 OFFCURVE",
"440 1325 OFFCURVE",
"440 1272 CURVE SMOOTH",
"440 1220 OFFCURVE",
"394 1174 OFFCURVE",
"342 1174 CURVE SMOOTH",
"290 1174 OFFCURVE",
"244 1220 OFFCURVE",
"244 1272 CURVE SMOOTH",
"244 1325 OFFCURVE",
"290 1371 OFFCURVE",
"342 1371 CURVE SMOOTH"
);
}
);
width = 682;
}
);
note = ring;
unicode = 02DA;
},
{
glyphname = cedilla;
lastChange = "2025-02-05 21:35:02 +0000";
layers = (
{
layerId = "9CB754D2-AD8E-43A2-9483-C1400C56EABF";
paths = (
{
closed = 1;
nodes = (
"438 -422 OFFCURVE",
"543 -346 OFFCURVE",
"543 -221 CURVE SMOOTH",
"543 -127 OFFCURVE",
"481 -71 OFFCURVE",
"358 -53 CURVE",
"381 57 LINE",
"270 57 LINE",
"219 -138 LINE",
"311 -145 OFFCURVE",
"350 -175 OFFCURVE",
"350 -234 CURVE SMOOTH",
"350 -291 OFFCURVE",
"319 -320 OFFCURVE",
"258 -320 CURVE SMOOTH",
"216 -320 OFFCURVE",
"171 -314 OFFCURVE",
"123 -301 CURVE",
"123 -391 LINE",
"170 -412 OFFCURVE",
"223 -422 OFFCURVE",
"283 -422 CURVE SMOOTH"
);
}
);
width = 682;
}
);
note = cedilla;
unicode = 00B8;
},
{
glyphname = hungarumlaut;
lastChange = "2025-02-05 21:35:02 +0000";
layers = (
{
layerId = "9CB754D2-AD8E-43A2-9483-C1400C56EABF";
paths = (
{
closed = 1;
nodes = (
"68 1118 LINE",
"360 1407 LINE",
"360 1444 LINE",
"109 1444 LINE",
"-29 1151 LINE",
"-29 1118 LINE"
);
},
{
closed = 1;
nodes = (
"418 1118 LINE",
"711 1407 LINE",
"711 1444 LINE",
"459 1444 LINE",
"322 1151 LINE",
"322 1118 LINE"
);
}
);
width = 682;
}
);
note = hungarumlaut;
unicode = 02DD;
},
{
glyphname = ogonek;
lastChange = "2025-02-05 21:35:02 +0000";
layers = (
{
layerId = "9CB754D2-AD8E-43A2-9483-C1400C56EABF";
paths = (
{
closed = 1;
nodes = (
"419 -430 OFFCURVE",
"486 -412 OFFCURVE",
"547 -376 CURVE",
"547 -291 LINE",
"495 -310 OFFCURVE",
"449 -320 OFFCURVE",
"409 -320 CURVE SMOOTH",
"337 -320 OFFCURVE",
"297 -276 OFFCURVE",
"297 -199 CURVE SMOOTH",
"297 -128 OFFCURVE",
"322 -57 OFFCURVE",
"371 14 CURVE",
"244 14 LINE",
"164 -37 OFFCURVE",
"111 -123 OFFCURVE",
"111 -215 CURVE SMOOTH",
"111 -351 OFFCURVE",
"195 -430 OFFCURVE",
"346 -430 CURVE SMOOTH"
);
}
);
width = 682;
}
);
note = ogonek;
unicode = 02DB;
},
{
glyphname = caron;
lastChange = "2025-02-05 21:35:02 +0000";
layers = (
{
layerId = "9CB754D2-AD8E-43A2-9483-C1400C56EABF";
paths = (
{
closed = 1;
nodes = (
"590 1444 LINE",
"342 1282 LINE",
"94 1444 LINE",
"18 1444 LINE",
"18 1411 LINE",
"235 1118 LINE",
"448 1118 LINE",
"666 1411 LINE",
"666 1444 LINE"
);
}
);
width = 682;
}
);
note = caron;
unicode = 02C7;
},
{
glyphname = Lslash;
lastChange = "2025-02-05 21:35:02 +0000";
layers = (
{
layerId = "9CB754D2-AD8E-43A2-9483-C1400C56EABF";
paths = (
{
closed = 1;
nodes = (
"43 538 LINE",
"43 402 LINE",
"207 497 LINE",
"207 100 LINE",
"35 74 LINE",
"35 0 LINE",
"1241 0 LINE",
"1280 406 LINE",
"1190 406 LINE",
"1108 127 LINE",
"1036 113 OFFCURVE",
"932 106 OFFCURVE",
"795 106 CURVE SMOOTH",
"522 106 LINE",
"522 679 LINE",
"761 817 LINE",
"761 951 LINE",
"522 813 LINE",
"522 1241 LINE",
"729 1268 LINE",
"729 1341 LINE",
"37 1341 LINE",
"37 1268 LINE",
"207 1241 LINE",
"207 632 LINE"
);
}
);
width = 1366;
}
);
note = Lslash;
unicode = 0141;
},
{
glyphname = lslash;
lastChange = "2025-02-05 21:35:02 +0000";
layers = (
{
layerId = "9CB754D2-AD8E-43A2-9483-C1400C56EABF";
paths = (
{
closed = 1;
nodes = (
"20 407 LINE",
"142 478 LINE",
"142 90 LINE",
"40 66 LINE",
"40 0 LINE",
"534 0 LINE",
"534 66 LINE",
"431 90 LINE",
"431 645 LINE",
"559 720 LINE",
"559 844 LINE",
"431 770 LINE",
"431 1421 LINE",
"46 1421 LINE",
"46 1355 LINE",
"142 1331 LINE",
"142 603 LINE",
"20 533 LINE"
);
}
);
width = 569;
}
);
note = lslash;
unicode = 0142;
},
{
glyphname = brokenbar;
lastChange = "2025-02-05 21:35:02 +0000";
layers = (
{
layerId = "9CB754D2-AD8E-43A2-9483-C1400C56EABF";
paths = (
{
closed = 1;
nodes = (
"296 801 LINE",
"296 1421 LINE",
"154 1421 LINE",
"154 801 LINE"
);
},
{
closed = 1;
nodes = (
"296 -442 LINE",
"296 180 LINE",
"154 180 LINE",
"154 -442 LINE"
);
}
);
width = 451;
}
);
note = brokenbar;
unicode = 00A6;
},
{
glyphname = Eth;
lastChange = "2025-02-05 21:35:02 +0000";
layers = (
{
layerId = "9CB754D2-AD8E-43A2-9483-C1400C56EABF";
paths = (
{
closed = 1;
nodes = (
"58 1341 LINE",
"58 1268 LINE",
"230 1242 LINE",
"230 731 LINE",
"51 731 LINE",
"51 609 LINE",
"230 609 LINE",
"230 100 LINE",
"80 73 LINE",
"80 0 LINE",
"737 -4 LINE SMOOTH",
"1182 -4 OFFCURVE",
"1401 218 OFFCURVE",
"1401 678 CURVE SMOOTH",
"1401 1126 OFFCURVE",
"1176 1341 OFFCURVE",
"695 1341 CURVE SMOOTH"
);
},
{
closed = 1;
nodes = (
"1069 386 OFFCURVE",
"1024 237 OFFCURVE",
"924 162 CURVE SMOOTH",
"873 125 OFFCURVE",
"805 106 OFFCURVE",
"718 106 CURVE SMOOTH",
"666 106 OFFCURVE",
"608 109 OFFCURVE",
"544 114 CURVE",
"544 609 LINE",
"800 609 LINE",
"800 731 LINE",
"544 731 LINE",
"544 1231 LINE",
"618 1231 LINE SMOOTH",
"937 1231 OFFCURVE",
"1069 1057 OFFCURVE",
"1069 670 CURVE SMOOTH"
);
}
);
width = 1479;
}
);
note = Eth;
unicode = 00D0;
},
{
glyphname = eth;
lastChange = "2025-02-05 21:35:02 +0000";
layers = (
{
layerId = "9CB754D2-AD8E-43A2-9483-C1400C56EABF";
paths = (
{
closed = 1;
nodes = (
"229 991 LINE",
"484 1139 LINE",
"551 1068 OFFCURVE",
"595 987 OFFCURVE",
"617 895 CURVE",
"592 900 OFFCURVE",
"558 903 OFFCURVE",
"514 903 CURVE SMOOTH",
"221 903 OFFCURVE",
"78 741 OFFCURVE",
"78 444 CURVE SMOOTH",
"78 143 OFFCURVE",
"223 -20 OFFCURVE",
"506 -20 CURVE SMOOTH",
"799 -20 OFFCURVE",
"946 135 OFFCURVE",
"946 444 CURVE SMOOTH",
"946 479 LINE SMOOTH",
"941 804 OFFCURVE",
"835 1052 OFFCURVE",
"628 1224 CURVE",
"819 1335 LINE",
"819 1459 LINE",
"534 1294 LINE",
"438 1353 OFFCURVE",
"333 1395 OFFCURVE",
"218 1421 CURVE",
"218 1313 LINE",
"281 1293 OFFCURVE",
"343 1261 OFFCURVE",
"402 1217 CURVE",
"229 1117 LINE"
);
},
{
closed = 1;
nodes = (
"653 321 OFFCURVE",
"641 229 OFFCURVE",
"618 170 CURVE SMOOTH",
"595 110 OFFCURVE",
"558 80 OFFCURVE",
"508 80 CURVE SMOOTH",
"460 80 OFFCURVE",
"425 108 OFFCURVE",
"404 163 CURVE SMOOTH",
"382 218 OFFCURVE",
"371 312 OFFCURVE",
"371 445 CURVE SMOOTH",
"371 575 OFFCURVE",
"382 667 OFFCURVE",
"403 722 CURVE SMOOTH",
"424 777 OFFCURVE",
"459 804 OFFCURVE",
"508 804 CURVE SMOOTH",
"558 804 OFFCURVE",
"595 775 OFFCURVE",
"618 718 CURVE SMOOTH",
"641 661 OFFCURVE",
"653 570 OFFCURVE",
"653 445 CURVE SMOOTH"
);
}
);
width = 1024;
}
);
note = eth;
unicode = 00F0;
},
{
glyphname = Thorn;
lastChange = "2025-02-05 21:35:02 +0000";
layers = (
{
layerId = "9CB754D2-AD8E-43A2-9483-C1400C56EABF";
paths = (
{
closed = 1;
nodes = (
"530 268 LINE",
"663 268 LINE SMOOTH",
"990 268 OFFCURVE",
"1153 408 OFFCURVE",
"1153 688 CURVE SMOOTH",
"1153 960 OFFCURVE",
"966 1083 OFFCURVE",
"586 1083 CURVE SMOOTH",
"530 1083 LINE",
"530 1241 LINE",
"702 1268 LINE",
"702 1341 LINE",
"43 1341 LINE",
"43 1268 LINE",
"215 1241 LINE",
"215 100 LINE",
"43 74 LINE",
"43 0 LINE",
"702 0 LINE",
"702 74 LINE",
"530 100 LINE"
);
},
{
closed = 1;
nodes = (
"831 462 OFFCURVE",
"751 378 OFFCURVE",
"566 378 CURVE SMOOTH",
"530 378 LINE",
"530 973 LINE",
"562 973 LINE SMOOTH",
"762 973 OFFCURVE",
"831 899 OFFCURVE",
"831 686 CURVE SMOOTH"
);
}
);
width = 1251;
}
);
note = Thorn;
unicode = 00DE;
},
{
glyphname = thorn;
lastChange = "2025-02-05 21:35:02 +0000";
layers = (
{
layerId = "9CB754D2-AD8E-43A2-9483-C1400C56EABF";
paths = (
{
closed = 1;
nodes = (
"129 -346 LINE",
"27 -370 LINE",
"27 -436 LINE",
"556 -436 LINE",
"556 -370 LINE",
"418 -346 LINE",
"418 -141 LINE SMOOTH",
"418 -86 OFFCURVE",
"416 -37 OFFCURVE",
"412 7 CURVE",
"484 -11 OFFCURVE",
"561 -20 OFFCURVE",
"643 -20 CURVE SMOOTH",
"926 -20 OFFCURVE",
"1075 158 OFFCURVE",
"1075 478 CURVE SMOOTH",
"1075 809 OFFCURVE",
"935 965 OFFCURVE",
"658 965 CURVE SMOOTH",
"569 965 OFFCURVE",
"489 947 OFFCURVE",
"409 892 CURVE",
"415 949 OFFCURVE",
"418 1010 OFFCURVE",
"418 1076 CURVE SMOOTH",
"418 1421 LINE",
"14 1421 LINE",
"14 1356 LINE",
"129 1333 LINE"
);
},
{
closed = 1;
nodes = (
"782 215 OFFCURVE",
"707 82 OFFCURVE",
"587 82 CURVE SMOOTH",
"528 82 OFFCURVE",
"472 89 OFFCURVE",
"418 103 CURVE",
"418 811 LINE",
"475 840 OFFCURVE",
"534 854 OFFCURVE",
"595 854 CURVE SMOOTH",
"714 854 OFFCURVE",
"782 717 OFFCURVE",
"782 470 CURVE SMOOTH"
);
}
);
width = 1139;
}
);
note = thorn;
unicode = 00FE;
},
{
glyphname = minus;
lastChange = "2025-02-05 21:35:02 +0000";
layers = (
{
layerId = "9CB754D2-AD8E-43A2-9483-C1400C56EABF";
paths = (
{
closed = 1;
nodes = (
"108 751 LINE",
"108 608 LINE",
"1060 608 LINE",
"1060 751 LINE"
);
}
);
width = 1167;
}
);
note = minus;
unicode = 2212;
},
{
glyphname = multiply;
lastChange = "2025-02-05 21:35:02 +0000";
layers = (
{
layerId = "9CB754D2-AD8E-43A2-9483-C1400C56EABF";
paths = (
{
closed = 1;
nodes = (
"904 254 LINE",
"1005 356 LINE",
"681 682 LINE",
"1005 1006 LINE",
"904 1108 LINE",
"578 784 LINE",
"256 1108 LINE",
"152 1004 LINE",
"476 682 LINE",
"152 356 LINE",
"253 254 LINE",
"578 578 LINE"
);
}
);
width = 1167;
}
);
note = multiply;
unicode = 00D7;
},
{
glyphname = uni00B9;
lastChange = "2025-02-05 21:35:02 +0000";
layers = (
{
layerId = "9CB754D2-AD8E-43A2-9483-C1400C56EABF";
paths = (
{
closed = 1;
nodes = (
"393 1347 LINE",
"303 1347 LINE",
"76 1213 LINE",
"76 1147 LINE",
"215 1193 LINE",
"215 616 LINE",
"76 602 LINE",
"76 535 LINE",
"533 535 LINE",
"533 602 LINE",
"393 616 LINE"
);
}
);
width = 614;
}
);
note = uni00B9;
unicode = 00B9;
},
{
glyphname = uni00B2;
lastChange = "2025-02-05 21:35:02 +0000";
layers = (
{
layerId = "9CB754D2-AD8E-43A2-9483-C1400C56EABF";
paths = (
{
closed = 1;
nodes = (
"566 677 LINE",
"191 677 LINE",
"301 772 LINE SMOOTH",
"442 888 OFFCURVE",
"499 946 OFFCURVE",
"528 1018 CURVE SMOOTH",
"543 1054 OFFCURVE",
"550 1095 OFFCURVE",
"550 1140 CURVE SMOOTH",
"550 1273 OFFCURVE",
"453 1350 OFFCURVE",
"276 1350 CURVE SMOOTH",
"223 1350 OFFCURVE",
"158 1341 OFFCURVE",
"83 1324 CURVE",
"83 1131 LINE",
"145 1131 LINE",
"171 1247 LINE",
"196 1268 OFFCURVE",
"226 1278 OFFCURVE",
"261 1278 CURVE SMOOTH",
"332 1278 OFFCURVE",
"372 1231 OFFCURVE",
"372 1143 CURVE SMOOTH",
"372 1038 OFFCURVE",
"344 969 OFFCURVE",
"291 900 CURVE SMOOTH",
"264 865 OFFCURVE",
"231 829 OFFCURVE",
"192 790 CURVE SMOOTH",
"153 751 OFFCURVE",
"107 704 OFFCURVE",
"56 649 CURVE",
"56 536 LINE",
"566 536 LINE"
);
}
);
width = 614;
}
);
note = uni00B2;
unicode = 00B2;
},
{
glyphname = uni00B3;
lastChange = "2025-02-05 21:35:02 +0000";
layers = (
{
layerId = "9CB754D2-AD8E-43A2-9483-C1400C56EABF";
paths = (
{
closed = 1;
nodes = (
"571 874 OFFCURVE",
"508 939 OFFCURVE",
"369 956 CURVE",
"485 975 OFFCURVE",
"535 1050 OFFCURVE",
"535 1151 CURVE SMOOTH",
"535 1283 OFFCURVE",
"445 1349 OFFCURVE",
"265 1349 CURVE SMOOTH",
"204 1349 OFFCURVE",
"140 1340 OFFCURVE",
"72 1323 CURVE",
"72 1130 LINE",
"134 1130 LINE",
"160 1249 LINE",
"189 1268 OFFCURVE",
"217 1277 OFFCURVE",
"242 1277 CURVE SMOOTH",
"316 1277 OFFCURVE",
"353 1232 OFFCURVE",
"353 1143 CURVE SMOOTH",
"353 1047 OFFCURVE",
"321 1006 OFFCURVE",
"249 1001 CURVE SMOOTH",
"187 997 LINE",
"187 914 LINE",
"251 910 LINE SMOOTH",
"352 903 OFFCURVE",
"390 853 OFFCURVE",
"390 760 CURVE SMOOTH",
"390 649 OFFCURVE",
"340 594 OFFCURVE",
"241 594 CURVE SMOOTH",
"205 594 OFFCURVE",
"172 603 OFFCURVE",
"142 620 CURVE",
"110 752 LINE",
"45 752 LINE",
"52 547 LINE",
"121 531 OFFCURVE",
"195 523 OFFCURVE",
"274 523 CURVE SMOOTH",
"465 523 OFFCURVE",
"571 609 OFFCURVE",
"571 754 CURVE SMOOTH"
);
}
);
width = 614;
}
);
note = uni00B3;
unicode = 00B3;
},
{
glyphname = franc;
lastChange = "2025-02-05 21:35:02 +0000";
layers = (
{
layerId = "9CB754D2-AD8E-43A2-9483-C1400C56EABF";
paths = (
{
closed = 1;
nodes = (
"48 282 LINE",
"207 282 LINE",
"207 100 LINE",
"48 73 LINE",
"48 0 LINE",
"705 0 LINE",
"705 73 LINE",
"522 100 LINE",
"522 282 LINE",
"752 282 LINE",
"752 384 LINE",
"522 384 LINE",
"522 572 LINE",
"797 572 LINE",
"828 430 LINE",
"917 430 LINE",
"917 822 LINE",
"828 822 LINE",
"797 682 LINE",
"522 682 LINE",
"522 1231 LINE",
"643 1231 LINE SMOOTH",
"730 1231 OFFCURVE",
"807 1226 OFFCURVE",
"872 1217 CURVE",
"904 980 LINE",
"998 980 LINE",
"998 1341 LINE",
"35 1341 LINE",
"35 1268 LINE",
"207 1242 LINE",
"207 384 LINE",
"48 384 LINE"
);
}
);
width = 1024;
}
);
note = franc;
unicode = 20A3;
},
{
glyphname = uni0111;
lastChange = "2025-02-05 21:35:02 +0000";
layers = (
{
layerId = "9CB754D2-AD8E-43A2-9483-C1400C56EABF";
paths = (
{
closed = 1;
nodes = (
"754 0 LINE",
"1116 0 LINE",
"1116 66 LINE",
"1013 90 LINE",
"1013 1099 LINE",
"1116 1099 LINE",
"1116 1202 LINE",
"1013 1202 LINE",
"1013 1421 LINE",
"628 1421 LINE",
"628 1355 LINE",
"724 1331 LINE",
"724 1202 LINE",
"506 1202 LINE",
"506 1099 LINE",
"724 1099 LINE",
"724 1089 LINE SMOOTH",
"724 997 OFFCURVE",
"726 940 OFFCURVE",
"730 918 CURVE",
"656 936 OFFCURVE",
"583 945 OFFCURVE",
"510 945 CURVE SMOOTH",
"234 945 OFFCURVE",
"83 777 OFFCURVE",
"83 457 CURVE SMOOTH",
"83 132 OFFCURVE",
"216 -20 OFFCURVE",
"495 -20 CURVE SMOOTH",
"556 -20 OFFCURVE",
"607 -10 OFFCURVE",
"647 6 CURVE SMOOTH",
"667 13 OFFCURVE",
"696 29 OFFCURVE",
"733 53 CURVE"
);
},
{
closed = 1;
nodes = (
"376 713 OFFCURVE",
"446 843 OFFCURVE",
"566 843 CURVE SMOOTH",
"617 843 OFFCURVE",
"669 836 OFFCURVE",
"724 823 CURVE",
"724 133 LINE",
"665 105 OFFCURVE",
"609 91 OFFCURVE",
"558 91 CURVE SMOOTH",
"442 91 OFFCURVE",
"376 221 OFFCURVE",
"376 465 CURVE SMOOTH"
);
}
);
width = 1139;
}
);
note = uni0111;
unicode = 0111;
},
{
glyphname = uni00AF;
lastChange = "2025-02-05 21:35:02 +0000";
layers = (
{
layerId = "9CB754D2-AD8E-43A2-9483-C1400C56EABF";
paths = (
{
closed = 1;
nodes = (
"1042 1541 LINE",
"-17 1541 LINE",
"-17 1392 LINE",
"1042 1392 LINE"
);
}
);
width = 1024;
}
);
note = uni00AF;
unicode = 00AF;
},
{
glyphname = uni00B7;
lastChange = "2025-02-05 21:35:02 +0000";
layers = (
{
layerId = "9CB754D2-AD8E-43A2-9483-C1400C56EABF";
paths = (
{
closed = 1;
nodes = (
"434 511 OFFCURVE",
"507 585 OFFCURVE",
"507 677 CURVE SMOOTH",
"507 770 OFFCURVE",
"433 843 OFFCURVE",
"341 843 CURVE SMOOTH",
"248 843 OFFCURVE",
"175 769 OFFCURVE",
"175 677 CURVE SMOOTH",
"175 584 OFFCURVE",
"249 511 OFFCURVE",
"341 511 CURVE SMOOTH"
);
}
);
width = 683;
}
);
note = uni00B7;
unicode = 00B7;
},
{
glyphname = Gamma;
lastChange = "2025-02-05 21:35:02 +0000";
layers = (
{
layerId = "9CB754D2-AD8E-43A2-9483-C1400C56EABF";
paths = (
{
closed = 1;
nodes = (
"731 73 LINE",
"524 99 LINE",
"524 1235 LINE",
"727 1235 LINE SMOOTH",
"869 1235 OFFCURVE",
"973 1228 OFFCURVE",
"1040 1215 CURVE",
"1102 936 LINE",
"1192 936 LINE",
"1174 1341 LINE",
"37 1341 LINE",
"37 1268 LINE",
"209 1241 LINE",
"209 99 LINE",
"38 73 LINE",
"38 0 LINE",
"731 0 LINE"
);
}
);
width = 1303;
}
);
note = Gamma;
unicode = 0393;
},
{
glyphname = Theta;
lastChange = "2025-02-05 21:35:02 +0000";
layers = (
{
layerId = "9CB754D2-AD8E-43A2-9483-C1400C56EABF";
paths = (
{
closed = 1;
nodes = (
"432 1095 OFFCURVE",
"544 1255 OFFCURVE",
"797 1255 CURVE SMOOTH",
"1049 1255 OFFCURVE",
"1161 1095 OFFCURVE",
"1161 672 CURVE SMOOTH",
"1161 248 OFFCURVE",
"1049 80 OFFCURVE",
"797 80 CURVE SMOOTH",
"544 80 OFFCURVE",
"432 247 OFFCURVE",
"432 672 CURVE SMOOTH"
);
},
{
closed = 1;
nodes = (
"100 216 OFFCURVE",
"345 -20 OFFCURVE",
"797 -20 CURVE SMOOTH",
"1250 -20 OFFCURVE",
"1493 217 OFFCURVE",
"1493 672 CURVE SMOOTH",
"1493 1121 OFFCURVE",
"1256 1356 OFFCURVE",
"797 1356 CURVE SMOOTH",
"332 1356 OFFCURVE",
"100 1128 OFFCURVE",
"100 672 CURVE SMOOTH"
);
},
{
closed = 1;
nodes = (
"650 790 LINE",
"624 892 LINE",
"556 892 LINE",
"556 460 LINE",
"624 460 LINE",
"650 560 LINE",
"943 560 LINE",
"969 460 LINE",
"1037 460 LINE",
"1037 892 LINE",
"969 892 LINE",
"943 790 LINE"
);
}
);
width = 1593;
}
);
note = Theta;
unicode = 0398;
},
{
glyphname = Phi;
lastChange = "2025-02-05 21:35:02 +0000";
layers = (
{
layerId = "9CB754D2-AD8E-43A2-9483-C1400C56EABF";
paths = (
{
closed = 1;
nodes = (
"637 324 LINE SMOOTH",
"489 324 OFFCURVE",
"383 474 OFFCURVE",
"383 690 CURVE SMOOTH",
"383 903 OFFCURVE",
"486 1034 OFFCURVE",
"646 1034 CURVE SMOOTH",
"711 1034 LINE",
"711 324 LINE"
);
},
{
closed = 1;
nodes = (
"986 324 LINE",
"986 1034 LINE",
"1051 1034 LINE SMOOTH",
"1211 1034 OFFCURVE",
"1314 905 OFFCURVE",
"1314 690 CURVE SMOOTH",
"1314 474 OFFCURVE",
"1208 324 OFFCURVE",
"1060 324 CURVE SMOOTH"
);
},
{
closed = 1;
nodes = (
"1158 0 LINE",
"1158 74 LINE",
"986 100 LINE",
"986 221 LINE",
"1095 221 LINE SMOOTH",
"1308 221 OFFCURVE",
"1466 296 OFFCURVE",
"1553 442 CURVE SMOOTH",
"1596 515 OFFCURVE",
"1618 598 OFFCURVE",
"1618 692 CURVE SMOOTH",
"1618 872 OFFCURVE",
"1537 1009 OFFCURVE",
"1379 1082 CURVE SMOOTH",
"1300 1119 OFFCURVE",
"1203 1137 OFFCURVE",
"1090 1137 CURVE SMOOTH",
"986 1137 LINE",
"986 1241 LINE",
"1158 1268 LINE",
"1158 1341 LINE",
"539 1341 LINE",
"539 1268 LINE",
"711 1241 LINE",
"711 1137 LINE",
"607 1137 LINE SMOOTH",
"379 1137 OFFCURVE",
"220 1060 OFFCURVE",
"140 928 CURVE SMOOTH",
"99 861 OFFCURVE",
"79 783 OFFCURVE",
"79 692 CURVE SMOOTH",
"79 505 OFFCURVE",
"169 352 OFFCURVE",
"325 277 CURVE SMOOTH",
"402 240 OFFCURVE",
"495 221 OFFCURVE",
"602 221 CURVE SMOOTH",
"711 221 LINE",
"711 100 LINE",
"539 74 LINE",
"539 0 LINE"
);
}
);
width = 1698;
}
);
note = Phi;
unicode = 03A6;
},
{
glyphname = alpha;
lastChange = "2025-02-05 21:35:02 +0000";
layers = (
{
layerId = "9CB754D2-AD8E-43A2-9483-C1400C56EABF";
paths = (
{
closed = 1;
nodes = (
"555 -20 OFFCURVE",
"646 47 OFFCURVE",
"741 219 CURVE",
"747 219 LINE",
"762 128 OFFCURVE",
"780 55 OFFCURVE",
"801 0 CURVE",
"1119 0 LINE",
"1119 75 LINE",
"1071 90 LINE",
"1027 189 OFFCURVE",
"1000 280 OFFCURVE",
"964 483 CURVE",
"1021 684 OFFCURVE",
"1074 823 OFFCURVE",
"1122 900 CURVE",
"1122 940 LINE",
"839 940 LINE",
"793 745 LINE",
"787 745 LINE",
"729 892 OFFCURVE",
"631 965 OFFCURVE",
"494 965 CURVE SMOOTH",
"239 965 OFFCURVE",
"75 776 OFFCURVE",
"75 453 CURVE SMOOTH",
"75 157 OFFCURVE",
"208 -20 OFFCURVE",
"428 -20 CURVE SMOOTH"
);
},
{
closed = 1;
nodes = (
"581 849 OFFCURVE",
"625 817 OFFCURVE",
"660 753 CURVE SMOOTH",
"694 689 OFFCURVE",
"717 596 OFFCURVE",
"729 474 CURVE",
"699 358 OFFCURVE",
"664 271 OFFCURVE",
"624 212 CURVE SMOOTH",
"583 153 OFFCURVE",
"540 124 OFFCURVE",
"495 124 CURVE SMOOTH",
"454 124 OFFCURVE",
"423 154 OFFCURVE",
"402 214 CURVE SMOOTH",
"380 273 OFFCURVE",
"369 355 OFFCURVE",
"369 460 CURVE SMOOTH",
"369 593 OFFCURVE",
"382 692 OFFCURVE",
"408 755 CURVE SMOOTH",
"433 818 OFFCURVE",
"473 849 OFFCURVE",
"527 849 CURVE SMOOTH"
);
}
);
width = 1143;
}
);
note = alpha;
unicode = 03B1;
},
{
glyphname = delta;
lastChange = "2025-02-05 21:35:02 +0000";
layers = (
{
layerId = "9CB754D2-AD8E-43A2-9483-C1400C56EABF";
paths = (
{
closed = 1;
nodes = (
"880 1400 LINE",
"771 1421 OFFCURVE",
"681 1431 OFFCURVE",
"608 1431 CURVE SMOOTH",
"383 1431 OFFCURVE",
"244 1323 OFFCURVE",
"244 1150 CURVE SMOOTH",
"244 1046 OFFCURVE",
"304 927 OFFCURVE",
"399 839 CURVE",
"186 744 OFFCURVE",
"75 594 OFFCURVE",
"75 402 CURVE SMOOTH",
"75 134 OFFCURVE",
"247 -30 OFFCURVE",
"526 -30 CURVE SMOOTH",
"810 -30 OFFCURVE",
"988 144 OFFCURVE",
"988 424 CURVE SMOOTH",
"988 607 OFFCURVE",
"929 735 OFFCURVE",
"752 890 CURVE SMOOTH",
"659 972 LINE SMOOTH",
"554 1063 OFFCURVE",
"511 1132 OFFCURVE",
"511 1208 CURVE SMOOTH",
"511 1283 OFFCURVE",
"558 1336 OFFCURVE",
"642 1336 CURVE SMOOTH",
"695 1336 OFFCURVE",
"741 1321 OFFCURVE",
"779 1292 CURVE",
"814 1169 LINE",
"880 1169 LINE"
);
},
{
closed = 1;
nodes = (
"357 555 OFFCURVE",
"409 698 OFFCURVE",
"485 765 CURVE",
"640 652 OFFCURVE",
"697 521 OFFCURVE",
"697 366 CURVE SMOOTH",
"697 177 OFFCURVE",
"632 59 OFFCURVE",
"527 59 CURVE SMOOTH",
"476 59 OFFCURVE",
"435 86 OFFCURVE",
"404 140 CURVE SMOOTH",
"373 194 OFFCURVE",
"357 278 OFFCURVE",
"357 392 CURVE SMOOTH"
);
}
);
width = 1063;
}
);
note = delta;
unicode = 03B4;
},
{
glyphname = epsilon;
lastChange = "2025-02-05 21:35:02 +0000";
layers = (
{
layerId = "9CB754D2-AD8E-43A2-9483-C1400C56EABF";
paths = (
{
closed = 1;
nodes = (
"833 157 LINE",
"775 139 LINE SMOOTH",
"709 117 OFFCURVE",
"632 106 OFFCURVE",
"543 106 CURVE SMOOTH",
"415 106 OFFCURVE",
"334 181 OFFCURVE",
"334 288 CURVE SMOOTH",
"334 367 OFFCURVE",
"368 427 OFFCURVE",
"433 455 CURVE",
"456 454 OFFCURVE",
"496 448 OFFCURVE",
"554 437 CURVE SMOOTH",
"603 428 OFFCURVE",
"633 423 OFFCURVE",
"642 423 CURVE SMOOTH",
"693 423 LINE",
"693 581 LINE",
"642 581 LINE SMOOTH",
"634 581 OFFCURVE",
"606 577 OFFCURVE",
"557 568 CURVE SMOOTH",
"450 551 LINE",
"403 576 OFFCURVE",
"373 638 OFFCURVE",
"373 715 CURVE SMOOTH",
"373 804 OFFCURVE",
"435 864 OFFCURVE",
"535 864 CURVE SMOOTH",
"595 864 OFFCURVE",
"647 852 OFFCURVE",
"692 828 CURVE",
"744 713 LINE",
"809 713 LINE",
"809 929 LINE",
"718 953 OFFCURVE",
"622 965 OFFCURVE",
"520 965 CURVE SMOOTH",
"259 965 OFFCURVE",
"95 868 OFFCURVE",
"95 715 CURVE SMOOTH",
"95 620 OFFCURVE",
"145 552 OFFCURVE",
"244 509 CURVE",
"244 502 LINE",
"127 467 OFFCURVE",
"56 376 OFFCURVE",
"56 268 CURVE SMOOTH",
"56 84 OFFCURVE",
"208 -20 OFFCURVE",
"483 -20 CURVE SMOOTH",
"622 -20 OFFCURVE",
"738 10 OFFCURVE",
"833 70 CURVE"
);
}
);
width = 875;
}
);
note = epsilon;
unicode = 03B5;
},
{
glyphname = sigma;
lastChange = "2025-02-05 21:35:02 +0000";
layers = (
{
layerId = "9CB754D2-AD8E-43A2-9483-C1400C56EABF";
paths = (
{
closed = 1;
nodes = (
"713 213 OFFCURVE",
"651 80 OFFCURVE",
"538 80 CURVE SMOOTH",
"433 80 OFFCURVE",
"371 214 OFFCURVE",
"371 423 CURVE SMOOTH",
"371 647 OFFCURVE",
"462 791 OFFCURVE",
"615 816 CURVE",
"680 715 OFFCURVE",
"713 590 OFFCURVE",
"713 442 CURVE SMOOTH"
);
},
{
closed = 1;
nodes = (
"1086 831 LINE",
"1102 1066 LINE",
"1021 1066 LINE",
"957 940 LINE",
"611 940 LINE SMOOTH",
"278 940 OFFCURVE",
"78 760 OFFCURVE",
"78 463 CURVE SMOOTH",
"78 168 OFFCURVE",
"254 -20 OFFCURVE",
"523 -20 CURVE SMOOTH",
"707 -20 OFFCURVE",
"857 59 OFFCURVE",
"937 198 CURVE SMOOTH",
"976 267 OFFCURVE",
"996 347 OFFCURVE",
"996 438 CURVE SMOOTH",
"996 579 OFFCURVE",
"930 721 OFFCURVE",
"809 825 CURVE",
"809 831 LINE"
);
}
);
width = 1114;
}
);
note = sigma;
unicode = 03C3;
},
{
glyphname = tau;
lastChange = "2025-02-05 21:35:02 +0000";
layers = (
{
layerId = "9CB754D2-AD8E-43A2-9483-C1400C56EABF";
paths = (
{
closed = 1;
nodes = (
"328 836 LINE",
"328 217 LINE SMOOTH",
"328 64 OFFCURVE",
"430 -20 OFFCURVE",
"610 -20 CURVE SMOOTH",
"689 -20 OFFCURVE",
"772 -1 OFFCURVE",
"815 23 CURVE",
"815 118 LINE",
"779 109 OFFCURVE",
"747 105 OFFCURVE",
"718 105 CURVE SMOOTH",
"659 105 OFFCURVE",
"617 148 OFFCURVE",
"617 235 CURVE SMOOTH",
"617 836 LINE",
"920 836 LINE",
"920 940 LINE",
"61 940 LINE",
"40 668 LINE",
"121 668 LINE",
"188 836 LINE"
);
}
);
width = 944;
}
);
note = tau;
unicode = 03C4;
},
{
glyphname = phi;
lastChange = "2025-02-05 21:35:02 +0000";
layers = (
{
layerId = "9CB754D2-AD8E-43A2-9483-C1400C56EABF";
paths = (
{
closed = 1;
nodes = (
"700 -17 LINE",
"1028 10 OFFCURVE",
"1206 196 OFFCURVE",
"1206 503 CURVE SMOOTH",
"1206 784 OFFCURVE",
"1063 966 OFFCURVE",
"839 966 CURVE SMOOTH",
"668 966 OFFCURVE",
"576 857 OFFCURVE",
"576 662 CURVE SMOOTH",
"576 81 LINE",
"431 100 OFFCURVE",
"366 227 OFFCURVE",
"366 475 CURVE SMOOTH",
"366 719 OFFCURVE",
"412 829 OFFCURVE",
"521 872 CURVE",
"521 964 LINE",
"216 925 OFFCURVE",
"73 770 OFFCURVE",
"73 475 CURVE SMOOTH",
"73 168 OFFCURVE",
"248 7 OFFCURVE",
"576 -16 CURVE",
"576 -436 LINE",
"700 -436 LINE"
);
},
{
closed = 1;
nodes = (
"913 226 OFFCURVE",
"843 100 OFFCURVE",
"700 84 CURVE",
"700 660 LINE SMOOTH",
"700 793 OFFCURVE",
"728 866 OFFCURVE",
"800 866 CURVE SMOOTH",
"841 866 OFFCURVE",
"871 835 OFFCURVE",
"888 774 CURVE SMOOTH",
"905 712 OFFCURVE",
"913 616 OFFCURVE",
"913 485 CURVE SMOOTH"
);
}
);
width = 1278;
}
);
note = phi;
unicode = 03C6;
},
{
glyphname = uni207F;
lastChange = "2025-02-05 21:35:02 +0000";
layers = (
{
layerId = "9CB754D2-AD8E-43A2-9483-C1400C56EABF";
paths = (
{
closed = 1;
nodes = (
"262 1099 LINE",
"23 1099 LINE",
"23 1050 LINE",
"78 1035 LINE",
"78 599 LINE",
"23 585 LINE",
"23 535 LINE",
"323 535 LINE",
"323 585 LINE",
"271 599 LINE",
"271 1001 LINE",
"302 1014 OFFCURVE",
"332 1021 OFFCURVE",
"363 1021 CURVE SMOOTH",
"415 1021 OFFCURVE",
"445 982 OFFCURVE",
"445 915 CURVE SMOOTH",
"445 599 LINE",
"394 585 LINE",
"394 535 LINE",
"695 535 LINE",
"695 585 LINE",
"638 599 LINE",
"638 948 LINE SMOOTH",
"638 1053 OFFCURVE",
"573 1114 OFFCURVE",
"462 1114 CURVE SMOOTH",
"411 1114 OFFCURVE",
"347 1093 OFFCURVE",
"270 1050 CURVE"
);
}
);
width = 712;
}
);
note = uni207F;
unicode = 207F;
},
{
glyphname = peseta;
lastChange = "2025-02-05 21:35:02 +0000";
layers = (
{
layerId = "9CB754D2-AD8E-43A2-9483-C1400C56EABF";
paths = (
{
closed = 1;
nodes = (
"1271 -20 OFFCURVE",
"1333 -3 OFFCURVE",
"1381 30 CURVE",
"1452 1 OFFCURVE",
"1554 -20 OFFCURVE",
"1629 -20 CURVE SMOOTH",
"1825 -20 OFFCURVE",
"1937 61 OFFCURVE",
"1937 205 CURVE SMOOTH",
"1937 326 OFFCURVE",
"1892 388 OFFCURVE",
"1745 429 CURVE SMOOTH",
"1647 456 OFFCURVE",
"1609 470 OFFCURVE",
"1581 501 CURVE SMOOTH",
"1570 512 OFFCURVE",
"1565 526 OFFCURVE",
"1565 543 CURVE SMOOTH",
"1565 592 OFFCURVE",
"1604 616 OFFCURVE",
"1660 616 CURVE SMOOTH",
"1707 616 OFFCURVE",
"1759 592 OFFCURVE",
"1783 556 CURVE",
"1815 476 LINE",
"1881 476 LINE",
"1881 681 LINE",
"1796 700 OFFCURVE",
"1719 710 OFFCURVE",
"1651 710 CURVE SMOOTH",
"1470 710 OFFCURVE",
"1368 626 OFFCURVE",
"1368 493 CURVE SMOOTH",
"1368 408 OFFCURVE",
"1399 353 OFFCURVE",
"1451 316 CURVE SMOOTH",
"1476 297 OFFCURVE",
"1517 280 OFFCURVE",
"1573 265 CURVE SMOOTH",
"1676 235 OFFCURVE",
"1735 217 OFFCURVE",
"1735 155 CURVE SMOOTH",
"1735 100 OFFCURVE",
"1698 73 OFFCURVE",
"1625 73 CURVE SMOOTH",
"1557 73 OFFCURVE",
"1505 102 OFFCURVE",
"1469 160 CURVE",
"1436 237 LINE",
"1370 237 LINE",
"1370 99 LINE",
"1334 89 OFFCURVE",
"1302 84 OFFCURVE",
"1274 84 CURVE SMOOTH",
"1225 84 OFFCURVE",
"1206 126 OFFCURVE",
"1206 215 CURVE SMOOTH",
"1206 586 LINE",
"1344 586 LINE",
"1344 680 LINE",
"1206 680 LINE",
"1206 893 LINE",
"1100 893 LINE",
"979 674 LINE",
"894 663 LINE",
"943 723 OFFCURVE",
"968 817 OFFCURVE",
"968 946 CURVE SMOOTH",
"968 1223 OFFCURVE",
"794 1341 OFFCURVE",
"435 1341 CURVE SMOOTH",
"20 1341 LINE",
"20 1268 LINE",
"122 1242 LINE",
"122 100 LINE",
"33 73 LINE",
"33 0 LINE",
"531 0 LINE",
"531 73 LINE",
"408 100 LINE",
"408 526 LINE",
"520 526 LINE SMOOTH",
"667 526 OFFCURVE",
"779 559 OFFCURVE",
"856 625 CURVE",
"856 586 LINE",
"957 586 LINE",
"957 217 LINE SMOOTH",
"957 46 OFFCURVE",
"1036 -20 OFFCURVE",
"1195 -20 CURVE SMOOTH"
);
},
{
closed = 1;
nodes = (
"676 721 OFFCURVE",
"608 636 OFFCURVE",
"448 636 CURVE SMOOTH",
"408 636 LINE",
"408 1231 LINE",
"444 1231 LINE SMOOTH",
"617 1231 OFFCURVE",
"676 1157 OFFCURVE",
"676 944 CURVE SMOOTH"
);
}
);
width = 1984;
}
);
note = peseta;
unicode = 20A7;
},
{
glyphname = arrowleft;
lastChange = "2025-02-05 21:35:02 +0000";
layers = (
{
layerId = "9CB754D2-AD8E-43A2-9483-C1400C56EABF";
paths = (
{
closed = 1;
nodes = (
"1630 427 LINE",
"1630 513 LINE",
"641 513 LINE",
"679 558 OFFCURVE",
"719 623 OFFCURVE",
"760 710 CURVE",
"688 710 LINE",
"603 611 OFFCURVE",
"513 537 OFFCURVE",
"418 488 CURVE",
"418 452 LINE",
"513 403 OFFCURVE",
"603 329 OFFCURVE",
"688 230 CURVE",
"760 230 LINE",
"719 317 OFFCURVE",
"679 382 OFFCURVE",
"641 427 CURVE"
);
}
);
width = 2048;
}
);
note = arrowleft;
unicode = 2190;
},
{
glyphname = arrowup;
lastChange = "2025-02-05 21:35:02 +0000";
layers = (
{
layerId = "9CB754D2-AD8E-43A2-9483-C1400C56EABF";
paths = (
{
closed = 1;
nodes = (
"469 -61 LINE",
"555 -61 LINE",
"555 928 LINE",
"600 890 OFFCURVE",
"665 850 OFFCURVE",
"752 809 CURVE",
"752 881 LINE",
"653 966 OFFCURVE",
"579 1056 OFFCURVE",
"530 1151 CURVE",
"494 1151 LINE",
"445 1056 OFFCURVE",
"371 966 OFFCURVE",
"272 881 CURVE",
"272 809 LINE",
"359 850 OFFCURVE",
"424 890 OFFCURVE",
"469 928 CURVE"
);
}
);
width = 1024;
}
);
note = arrowup;
unicode = 2191;
},
{
glyphname = arrowright;
lastChange = "2025-02-05 21:35:02 +0000";
layers = (
{
layerId = "9CB754D2-AD8E-43A2-9483-C1400C56EABF";
paths = (
{
closed = 1;
nodes = (
"418 513 LINE",
"418 427 LINE",
"1407 427 LINE",
"1369 382 OFFCURVE",
"1329 317 OFFCURVE",
"1288 230 CURVE",
"1360 230 LINE",
"1445 329 OFFCURVE",
"1535 403 OFFCURVE",
"1630 452 CURVE",
"1630 488 LINE",
"1535 537 OFFCURVE",
"1445 611 OFFCURVE",
"1360 710 CURVE",
"1288 710 LINE",
"1329 623 OFFCURVE",
"1369 558 OFFCURVE",
"1407 513 CURVE"
);
}
);
width = 2048;
}
);
note = arrowright;
unicode = 2192;
},
{
glyphname = arrowdown;
lastChange = "2025-02-05 21:35:02 +0000";
layers = (
{
layerId = "9CB754D2-AD8E-43A2-9483-C1400C56EABF";
paths = (
{
closed = 1;
nodes = (
"555 1151 LINE",
"469 1151 LINE",
"469 162 LINE",
"424 200 OFFCURVE",
"359 240 OFFCURVE",
"272 281 CURVE",
"272 209 LINE",
"371 124 OFFCURVE",
"445 34 OFFCURVE",
"494 -61 CURVE",
"530 -61 LINE",
"579 34 OFFCURVE",
"653 124 OFFCURVE",
"752 209 CURVE",
"752 281 LINE",
"665 240 OFFCURVE",
"600 200 OFFCURVE",
"555 162 CURVE"
);
}
);
width = 1024;
}
);
note = arrowdown;
unicode = 2193;
},
{
glyphname = arrowboth;
lastChange = "2025-02-05 21:35:02 +0000";
layers = (
{
layerId = "9CB754D2-AD8E-43A2-9483-C1400C56EABF";
paths = (
{
closed = 1;
nodes = (
"1407 427 LINE",
"1369 382 OFFCURVE",
"1329 317 OFFCURVE",
"1288 230 CURVE",
"1360 230 LINE",
"1445 329 OFFCURVE",
"1535 403 OFFCURVE",
"1630 452 CURVE",
"1630 488 LINE",
"1535 537 OFFCURVE",
"1445 611 OFFCURVE",
"1360 710 CURVE",
"1288 710 LINE",
"1329 623 OFFCURVE",
"1369 558 OFFCURVE",
"1407 513 CURVE",
"641 513 LINE",
"679 558 OFFCURVE",
"719 623 OFFCURVE",
"760 710 CURVE",
"688 710 LINE",
"603 611 OFFCURVE",
"513 537 OFFCURVE",
"418 488 CURVE",
"418 452 LINE",
"513 403 OFFCURVE",
"603 329 OFFCURVE",
"688 230 CURVE",
"760 230 LINE",
"719 317 OFFCURVE",
"679 382 OFFCURVE",
"641 427 CURVE"
);
}
);
width = 2048;
}
);
note = arrowboth;
unicode = 2194;
},
{
glyphname = arrowupdn;
lastChange = "2025-02-05 21:35:02 +0000";
layers = (
{
layerId = "9CB754D2-AD8E-43A2-9483-C1400C56EABF";
paths = (
{
closed = 1;
nodes = (
"469 162 LINE",
"424 200 OFFCURVE",
"359 240 OFFCURVE",
"272 281 CURVE",
"272 209 LINE",
"371 124 OFFCURVE",
"445 34 OFFCURVE",
"494 -61 CURVE",
"530 -61 LINE",
"579 34 OFFCURVE",
"653 124 OFFCURVE",
"752 209 CURVE",
"752 281 LINE",
"665 240 OFFCURVE",
"600 200 OFFCURVE",
"555 162 CURVE",
"555 928 LINE",
"600 890 OFFCURVE",
"665 850 OFFCURVE",
"752 809 CURVE",
"752 881 LINE",
"653 966 OFFCURVE",
"579 1056 OFFCURVE",
"530 1151 CURVE",
"494 1151 LINE",
"445 1056 OFFCURVE",
"371 966 OFFCURVE",
"272 881 CURVE",
"272 809 LINE",
"359 850 OFFCURVE",
"424 890 OFFCURVE",
"469 928 CURVE"
);
}
);
width = 1024;
}
);
note = arrowupdn;
unicode = 2195;
},
{
glyphname = arrowupdnbse;
lastChange = "2025-02-05 21:35:02 +0000";
layers = (
{
layerId = "9CB754D2-AD8E-43A2-9483-C1400C56EABF";
paths = (
{
closed = 1;
nodes = (
"272 -184 LINE",
"752 -184 LINE",
"752 -104 LINE",
"272 -104 LINE"
);
},
{
closed = 1;
nodes = (
"469 162 LINE",
"424 200 OFFCURVE",
"359 240 OFFCURVE",
"272 281 CURVE",
"272 209 LINE",
"371 124 OFFCURVE",
"445 34 OFFCURVE",
"494 -61 CURVE",
"530 -61 LINE",
"579 34 OFFCURVE",
"653 124 OFFCURVE",
"752 209 CURVE",
"752 281 LINE",
"665 240 OFFCURVE",
"600 200 OFFCURVE",
"555 162 CURVE",
"555 928 LINE",
"600 890 OFFCURVE",
"665 850 OFFCURVE",
"752 809 CURVE",
"752 881 LINE",
"653 966 OFFCURVE",
"579 1056 OFFCURVE",
"530 1151 CURVE",
"494 1151 LINE",
"445 1056 OFFCURVE",
"371 966 OFFCURVE",
"272 881 CURVE",
"272 809 LINE",
"359 850 OFFCURVE",
"424 890 OFFCURVE",
"469 928 CURVE"
);
}
);
width = 1024;
}
);
note = arrowupdnbse;
unicode = 21A8;
},
{
glyphname = orthogonal;
lastChange = "2025-02-05 21:35:02 +0000";
layers = (
{
layerId = "9CB754D2-AD8E-43A2-9483-C1400C56EABF";
paths = (
{
closed = 1;
nodes = (
"408 0 LINE",
"1632 0 LINE",
"1632 94 LINE",
"502 94 LINE",
"502 1223 LINE",
"408 1223 LINE"
);
}
);
width = 2005;
}
);
note = orthogonal;
unicode = 221F;
},
{
glyphname = intersection;
lastChange = "2025-02-05 21:35:02 +0000";
layers = (
{
layerId = "9CB754D2-AD8E-43A2-9483-C1400C56EABF";
paths = (
{
closed = 1;
nodes = (
"381 -2 LINE",
"381 510 LINE SMOOTH",
"381 769 OFFCURVE",
"519 930 OFFCURVE",
"735 930 CURVE SMOOTH",
"948 930 OFFCURVE",
"1091 765 OFFCURVE",
"1091 512 CURVE SMOOTH",
"1091 -2 LINE",
"1194 -2 LINE",
"1194 510 LINE SMOOTH",
"1194 707 OFFCURVE",
"1110 878 OFFCURVE",
"970 966 CURVE SMOOTH",
"899 1010 OFFCURVE",
"820 1032 OFFCURVE",
"733 1032 CURVE SMOOTH",
"560 1032 OFFCURVE",
"413 939 OFFCURVE",
"336 780 CURVE SMOOTH",
"297 700 OFFCURVE",
"278 610 OFFCURVE",
"278 510 CURVE SMOOTH",
"278 -2 LINE"
);
}
);
width = 1472;
}
);
note = intersection;
unicode = 2229;
},
{
glyphname = equivalence;
lastChange = "2025-02-05 21:35:02 +0000";
layers = (
{
layerId = "9CB754D2-AD8E-43A2-9483-C1400C56EABF";
paths = (
{
closed = 1;
nodes = (
"102 406 LINE",
"102 263 LINE",
"1054 263 LINE",
"1054 406 LINE"
);
},
{
closed = 1;
nodes = (
"102 1096 LINE",
"102 953 LINE",
"1054 953 LINE",
"1054 1096 LINE"
);
},
{
closed = 1;
nodes = (
"102 751 LINE",
"102 608 LINE",
"1054 608 LINE",
"1054 751 LINE"
);
}
);
width = 1167;
}
);
note = equivalence;
unicode = 2261;
},
{
glyphname = house;
lastChange = "2025-02-05 21:35:02 +0000";
layers = (
{
layerId = "9CB754D2-AD8E-43A2-9483-C1400C56EABF";
paths = (
{
closed = 1;
nodes = (
"1075 0 LINE",
"1075 635 LINE",
"614 1153 LINE",
"153 635 LINE",
"153 0 LINE"
);
},
{
closed = 1;
nodes = (
"233 600 LINE",
"614 1026 LINE",
"995 600 LINE",
"995 82 LINE",
"233 82 LINE"
);
}
);
width = 1229;
}
);
note = house;
unicode = 2302;
},
{
glyphname = revlogicalnot;
lastChange = "2025-02-05 21:35:02 +0000";
layers = (
{
layerId = "9CB754D2-AD8E-43A2-9483-C1400C56EABF";
paths = (
{
closed = 1;
nodes = (
"102 752 LINE",
"102 203 LINE",
"244 203 LINE",
"244 608 LINE",
"1055 608 LINE",
"1055 752 LINE"
);
}
);
width = 1167;
}
);
note = revlogicalnot;
unicode = 2310;
},
{
glyphname = integraltp;
lastChange = "2025-02-05 21:35:02 +0000";
layers = (
{
layerId = "9CB754D2-AD8E-43A2-9483-C1400C56EABF";
paths = (
{
closed = 1;
nodes = (
"693 1423 LINE SMOOTH",
"693 1493 OFFCURVE",
"695 1540 OFFCURVE",
"699 1563 CURVE SMOOTH",
"705 1589 OFFCURVE",
"720 1602 OFFCURVE",
"744 1602 CURVE SMOOTH",
"755 1602 OFFCURVE",
"771 1589 OFFCURVE",
"793 1563 CURVE SMOOTH",
"818 1535 OFFCURVE",
"836 1518 OFFCURVE",
"847 1513 CURVE",
"856 1506 OFFCURVE",
"870 1503 OFFCURVE",
"890 1503 CURVE SMOOTH",
"939 1503 OFFCURVE",
"978 1542 OFFCURVE",
"978 1595 CURVE SMOOTH",
"978 1659 OFFCURVE",
"924 1706 OFFCURVE",
"840 1706 CURVE SMOOTH",
"672 1706 OFFCURVE",
"546 1525 OFFCURVE",
"546 1264 CURVE SMOOTH",
"546 -614 LINE",
"693 -614 LINE"
);
}
);
width = 1237;
}
);
note = integraltp;
unicode = 2320;
},
{
glyphname = integralbt;
lastChange = "2025-02-05 21:35:02 +0000";
layers = (
{
layerId = "9CB754D2-AD8E-43A2-9483-C1400C56EABF";
paths = (
{
closed = 1;
nodes = (
"546 -334 LINE SMOOTH",
"546 -419 OFFCURVE",
"542 -469 OFFCURVE",
"535 -486 CURVE SMOOTH",
"527 -503 OFFCURVE",
"513 -512 OFFCURVE",
"494 -512 CURVE SMOOTH",
"483 -512 OFFCURVE",
"468 -500 OFFCURVE",
"447 -475 CURVE SMOOTH",
"426 -448 OFFCURVE",
"413 -433 OFFCURVE",
"406 -430 CURVE",
"389 -419 OFFCURVE",
"369 -414 OFFCURVE",
"347 -414 CURVE SMOOTH",
"299 -414 OFFCURVE",
"261 -454 OFFCURVE",
"261 -506 CURVE SMOOTH",
"261 -569 OFFCURVE",
"319 -614 OFFCURVE",
"398 -614 CURVE SMOOTH",
"574 -614 OFFCURVE",
"693 -434 OFFCURVE",
"693 -174 CURVE SMOOTH",
"693 1706 LINE",
"546 1706 LINE"
);
}
);
width = 1237;
}
);
note = integralbt;
unicode = 2321;
},
{
glyphname = uni2500;
lastChange = "2025-02-05 21:35:02 +0000";
layers = (
{
layerId = "9CB754D2-AD8E-43A2-9483-C1400C56EABF";
paths = (
{
closed = 1;
nodes = (
"1461 549 LINE",
"1461 694 LINE",
"-10 694 LINE",
"-10 549 LINE"
);
}
);
width = 1451;
}
);
note = uni2500;
unicode = 2500;
},
{
glyphname = uni2502;
lastChange = "2025-02-05 21:35:02 +0000";
layers = (
{
layerId = "9CB754D2-AD8E-43A2-9483-C1400C56EABF";
paths = (
{
closed = 1;
nodes = (
"653 -621 LINE",
"798 -621 LINE",
"798 1864 LINE",
"653 1864 LINE"
);
}
);
width = 1451;
}
);
note = uni2502;
unicode = 2502;
},
{
glyphname = uni250C;
lastChange = "2025-02-05 21:35:02 +0000";
layers = (
{
layerId = "9CB754D2-AD8E-43A2-9483-C1400C56EABF";
paths = (
{
closed = 1;
nodes = (
"653 -621 LINE",
"798 -621 LINE",
"798 549 LINE",
"1461 549 LINE",
"1461 694 LINE",
"653 694 LINE"
);
}
);
width = 1451;
}
);
note = uni250C;
unicode = 250C;
},
{
glyphname = uni2510;
lastChange = "2025-02-05 21:35:02 +0000";
layers = (
{
layerId = "9CB754D2-AD8E-43A2-9483-C1400C56EABF";
paths = (
{
closed = 1;
nodes = (
"653 549 LINE",
"653 -621 LINE",
"798 -621 LINE",
"798 694 LINE",
"-10 694 LINE",
"-10 549 LINE"
);
}
);
width = 1451;
}
);
note = uni2510;
unicode = 2510;
},
{
glyphname = uni2514;
lastChange = "2025-02-05 21:35:02 +0000";
layers = (
{
layerId = "9CB754D2-AD8E-43A2-9483-C1400C56EABF";
paths = (
{
closed = 1;
nodes = (
"653 549 LINE",
"1461 549 LINE",
"1461 694 LINE",
"798 694 LINE",
"798 1864 LINE",
"653 1864 LINE"
);
}
);
width = 1451;
}
);
note = uni2514;
unicode = 2514;
},
{
glyphname = uni2518;
lastChange = "2025-02-05 21:35:02 +0000";
layers = (
{
layerId = "9CB754D2-AD8E-43A2-9483-C1400C56EABF";
paths = (
{
closed = 1;
nodes = (
"798 549 LINE",
"798 1864 LINE",
"653 1864 LINE",
"653 694 LINE",
"-10 694 LINE",
"-10 549 LINE"
);
}
);
width = 1451;
}
);
note = uni2518;
unicode = 2518;
},
{
glyphname = uni251C;
lastChange = "2025-02-05 21:35:02 +0000";
layers = (
{
layerId = "9CB754D2-AD8E-43A2-9483-C1400C56EABF";
paths = (
{
closed = 1;
nodes = (
"653 -621 LINE",
"798 -621 LINE",
"798 549 LINE",
"1461 549 LINE",
"1461 694 LINE",
"798 694 LINE",
"798 1864 LINE",
"653 1864 LINE"
);
}
);
width = 1451;
}
);
note = uni251C;
unicode = 251C;
},
{
glyphname = uni2524;
lastChange = "2025-02-05 21:35:02 +0000";
layers = (
{
layerId = "9CB754D2-AD8E-43A2-9483-C1400C56EABF";
paths = (
{
closed = 1;
nodes = (
"653 549 LINE",
"653 -621 LINE",
"798 -621 LINE",
"798 1864 LINE",
"653 1864 LINE",
"653 694 LINE",
"-10 694 LINE",
"-10 549 LINE"
);
}
);
width = 1451;
}
);
note = uni2524;
unicode = 2524;
},
{
glyphname = uni252C;
lastChange = "2025-02-05 21:35:02 +0000";
layers = (
{
layerId = "9CB754D2-AD8E-43A2-9483-C1400C56EABF";
paths = (
{
closed = 1;
nodes = (
"653 549 LINE",
"653 -621 LINE",
"798 -621 LINE",
"798 549 LINE",
"1461 549 LINE",
"1461 694 LINE",
"-10 694 LINE",
"-10 549 LINE"
);
}
);
width = 1451;
}
);
note = uni252C;
unicode = 252C;
},
{
glyphname = uni2534;
lastChange = "2025-02-05 21:35:02 +0000";
layers = (
{
layerId = "9CB754D2-AD8E-43A2-9483-C1400C56EABF";
paths = (
{
closed = 1;
nodes = (
"1461 549 LINE",
"1461 694 LINE",
"798 694 LINE",
"798 1864 LINE",
"653 1864 LINE",
"653 694 LINE",
"-10 694 LINE",
"-10 549 LINE"
);
}
);
width = 1451;
}
);
note = uni2534;
unicode = 2534;
},
{
glyphname = uni253C;
lastChange = "2025-02-05 21:35:02 +0000";
layers = (
{
layerId = "9CB754D2-AD8E-43A2-9483-C1400C56EABF";
paths = (
{
closed = 1;
nodes = (
"653 549 LINE",
"653 -621 LINE",
"798 -621 LINE",
"798 549 LINE",
"1461 549 LINE",
"1461 694 LINE",
"798 694 LINE",
"798 1864 LINE",
"653 1864 LINE",
"653 694 LINE",
"-10 694 LINE",
"-10 549 LINE"
);
}
);
width = 1451;
}
);
note = uni253C;
unicode = 253C;
},
{
glyphname = uni2550;
lastChange = "2025-02-05 21:35:02 +0000";
layers = (
{
layerId = "9CB754D2-AD8E-43A2-9483-C1400C56EABF";
paths = (
{
closed = 1;
nodes = (
"1461 729 LINE",
"1461 874 LINE",
"-10 874 LINE",
"-10 729 LINE"
);
},
{
closed = 1;
nodes = (
"1461 369 LINE",
"1461 514 LINE",
"-10 514 LINE",
"-10 369 LINE"
);
}
);
width = 1451;
}
);
note = uni2550;
unicode = 2550;
},
{
glyphname = uni2551;
lastChange = "2025-02-05 21:35:02 +0000";
layers = (
{
layerId = "9CB754D2-AD8E-43A2-9483-C1400C56EABF";
paths = (
{
closed = 1;
nodes = (
"473 -621 LINE",
"618 -621 LINE",
"618 1864 LINE",
"473 1864 LINE"
);
},
{
closed = 1;
nodes = (
"833 -621 LINE",
"978 -621 LINE",
"978 1864 LINE",
"833 1864 LINE"
);
}
);
width = 1451;
}
);
note = uni2551;
unicode = 2551;
},
{
glyphname = uni2552;
lastChange = "2025-02-05 21:35:02 +0000";
layers = (
{
layerId = "9CB754D2-AD8E-43A2-9483-C1400C56EABF";
paths = (
{
closed = 1;
nodes = (
"653 -621 LINE",
"798 -621 LINE",
"798 369 LINE",
"1461 369 LINE",
"1461 514 LINE",
"798 514 LINE",
"798 729 LINE",
"1461 729 LINE",
"1461 874 LINE",
"653 874 LINE"
);
}
);
width = 1451;
}
);
note = uni2552;
unicode = 2552;
},
{
glyphname = uni2553;
lastChange = "2025-02-05 21:35:02 +0000";
layers = (
{
layerId = "9CB754D2-AD8E-43A2-9483-C1400C56EABF";
paths = (
{
closed = 1;
nodes = (
"473 694 LINE",
"473 -621 LINE",
"618 -621 LINE",
"618 549 LINE",
"833 549 LINE",
"833 -621 LINE",
"978 -621 LINE",
"978 549 LINE",
"1461 549 LINE",
"1461 694 LINE"
);
}
);
width = 1451;
}
);
note = uni2553;
unicode = 2553;
},
{
glyphname = uni2554;
lastChange = "2025-02-05 21:35:02 +0000";
layers = (
{
layerId = "9CB754D2-AD8E-43A2-9483-C1400C56EABF";
paths = (
{
closed = 1;
nodes = (
"473 -621 LINE",
"618 -621 LINE",
"618 729 LINE",
"1461 729 LINE",
"1461 874 LINE",
"473 874 LINE"
);
},
{
closed = 1;
nodes = (
"833 -621 LINE",
"978 -621 LINE",
"978 369 LINE",
"1461 369 LINE",
"1461 514 LINE",
"833 514 LINE"
);
}
);
width = 1451;
}
);
note = uni2554;
unicode = 2554;
},
{
glyphname = uni2555;
lastChange = "2025-02-05 21:35:02 +0000";
layers = (
{
layerId = "9CB754D2-AD8E-43A2-9483-C1400C56EABF";
paths = (
{
closed = 1;
nodes = (
"653 369 LINE",
"653 -621 LINE",
"798 -621 LINE",
"798 874 LINE",
"-10 874 LINE",
"-10 729 LINE",
"653 729 LINE",
"653 514 LINE",
"-10 514 LINE",
"-10 369 LINE"
);
}
);
width = 1451;
}
);
note = uni2555;
unicode = 2555;
},
{
glyphname = uni2556;
lastChange = "2025-02-05 21:35:02 +0000";
layers = (
{
layerId = "9CB754D2-AD8E-43A2-9483-C1400C56EABF";
paths = (
{
closed = 1;
nodes = (
"473 549 LINE",
"473 -621 LINE",
"618 -621 LINE",
"618 549 LINE",
"833 549 LINE",
"833 -621 LINE",
"978 -621 LINE",
"978 694 LINE",
"-10 694 LINE",
"-10 549 LINE"
);
}
);
width = 1451;
}
);
note = uni2556;
unicode = 2556;
},
{
glyphname = uni2557;
lastChange = "2025-02-05 21:35:02 +0000";
layers = (
{
layerId = "9CB754D2-AD8E-43A2-9483-C1400C56EABF";
paths = (
{
closed = 1;
nodes = (
"-10 874 LINE",
"-10 729 LINE",
"833 729 LINE",
"833 -621 LINE",
"978 -621 LINE",
"978 874 LINE"
);
},
{
closed = 1;
nodes = (
"618 514 LINE",
"-10 514 LINE",
"-10 369 LINE",
"473 369 LINE",
"473 -621 LINE",
"618 -621 LINE"
);
}
);
width = 1451;
}
);
note = uni2557;
unicode = 2557;
},
{
glyphname = uni2558;
lastChange = "2025-02-05 21:35:02 +0000";
layers = (
{
layerId = "9CB754D2-AD8E-43A2-9483-C1400C56EABF";
paths = (
{
closed = 1;
nodes = (
"653 369 LINE",
"1461 369 LINE",
"1461 514 LINE",
"798 514 LINE",
"798 729 LINE",
"1461 729 LINE",
"1461 874 LINE",
"798 874 LINE",
"798 1864 LINE",
"653 1864 LINE"
);
}
);
width = 1451;
}
);
note = uni2558;
unicode = 2558;
},
{
glyphname = uni2559;
lastChange = "2025-02-05 21:35:02 +0000";
layers = (
{
layerId = "9CB754D2-AD8E-43A2-9483-C1400C56EABF";
paths = (
{
closed = 1;
nodes = (
"833 694 LINE",
"618 694 LINE",
"618 1864 LINE",
"473 1864 LINE",
"473 549 LINE",
"1461 549 LINE",
"1461 694 LINE",
"978 694 LINE",
"978 1864 LINE",
"833 1864 LINE"
);
}
);
width = 1451;
}
);
note = uni2559;
unicode = 2559;
},
{
glyphname = uni255A;
lastChange = "2025-02-05 21:35:02 +0000";
layers = (
{
layerId = "9CB754D2-AD8E-43A2-9483-C1400C56EABF";
paths = (
{
closed = 1;
nodes = (
"473 369 LINE",
"1461 369 LINE",
"1461 514 LINE",
"618 514 LINE",
"618 1864 LINE",
"473 1864 LINE"
);
},
{
closed = 1;
nodes = (
"833 729 LINE",
"1461 729 LINE",
"1461 874 LINE",
"978 874 LINE",
"978 1864 LINE",
"833 1864 LINE"
);
}
);
width = 1451;
}
);
note = uni255A;
unicode = 255A;
},
{
glyphname = uni255B;
lastChange = "2025-02-05 21:35:02 +0000";
layers = (
{
layerId = "9CB754D2-AD8E-43A2-9483-C1400C56EABF";
paths = (
{
closed = 1;
nodes = (
"798 369 LINE",
"798 1864 LINE",
"653 1864 LINE",
"653 874 LINE",
"-10 874 LINE",
"-10 729 LINE",
"653 729 LINE",
"653 514 LINE",
"-10 514 LINE",
"-10 369 LINE"
);
}
);
width = 1451;
}
);
note = uni255B;
unicode = 255B;
},
{
glyphname = uni255C;
lastChange = "2025-02-05 21:35:02 +0000";
layers = (
{
layerId = "9CB754D2-AD8E-43A2-9483-C1400C56EABF";
paths = (
{
closed = 1;
nodes = (
"978 1864 LINE",
"833 1864 LINE",
"833 694 LINE",
"618 694 LINE",
"618 1864 LINE",
"473 1864 LINE",
"473 694 LINE",
"-10 694 LINE",
"-10 549 LINE",
"978 549 LINE"
);
}
);
width = 1451;
}
);
note = uni255C;
unicode = 255C;
},
{
glyphname = uni255D;
lastChange = "2025-02-05 21:35:02 +0000";
layers = (
{
layerId = "9CB754D2-AD8E-43A2-9483-C1400C56EABF";
paths = (
{
closed = 1;
nodes = (
"978 1864 LINE",
"833 1864 LINE",
"833 514 LINE",
"-10 514 LINE",
"-10 369 LINE",
"978 369 LINE"
);
},
{
closed = 1;
nodes = (
"473 874 LINE",
"-10 874 LINE",
"-10 729 LINE",
"618 729 LINE",
"618 1864 LINE",
"473 1864 LINE"
);
}
);
width = 1451;
}
);
note = uni255D;
unicode = 255D;
},
{
glyphname = uni255E;
lastChange = "2025-02-05 21:35:02 +0000";
layers = (
{
layerId = "9CB754D2-AD8E-43A2-9483-C1400C56EABF";
paths = (
{
closed = 1;
nodes = (
"653 -621 LINE",
"798 -621 LINE",
"798 369 LINE",
"1461 369 LINE",
"1461 514 LINE",
"798 514 LINE",
"798 729 LINE",
"1461 729 LINE",
"1461 874 LINE",
"798 874 LINE",
"798 1864 LINE",
"653 1864 LINE"
);
}
);
width = 1451;
}
);
note = uni255E;
unicode = 255E;
},
{
glyphname = uni255F;
lastChange = "2025-02-05 21:35:02 +0000";
layers = (
{
layerId = "9CB754D2-AD8E-43A2-9483-C1400C56EABF";
paths = (
{
closed = 1;
nodes = (
"833 -621 LINE",
"978 -621 LINE",
"978 549 LINE",
"1461 549 LINE",
"1461 694 LINE",
"978 694 LINE",
"978 1864 LINE",
"833 1864 LINE"
);
},
{
closed = 1;
nodes = (
"473 -621 LINE",
"618 -621 LINE",
"618 1864 LINE",
"473 1864 LINE"
);
}
);
width = 1451;
}
);
note = uni255F;
unicode = 255F;
},
{
glyphname = uni2560;
lastChange = "2025-02-05 21:35:02 +0000";
layers = (
{
layerId = "9CB754D2-AD8E-43A2-9483-C1400C56EABF";
paths = (
{
closed = 1;
nodes = (
"618 1864 LINE",
"473 1864 LINE",
"473 -621 LINE",
"618 -621 LINE"
);
},
{
closed = 1;
nodes = (
"833 -621 LINE",
"978 -621 LINE",
"978 369 LINE",
"1461 369 LINE",
"1461 514 LINE",
"833 514 LINE"
);
},
{
closed = 1;
nodes = (
"833 729 LINE",
"1461 729 LINE",
"1461 874 LINE",
"978 874 LINE",
"978 1864 LINE",
"833 1864 LINE"
);
}
);
width = 1451;
}
);
note = uni2560;
unicode = 2560;
},
{
glyphname = uni2561;
lastChange = "2025-02-05 21:35:02 +0000";
layers = (
{
layerId = "9CB754D2-AD8E-43A2-9483-C1400C56EABF";
paths = (
{
closed = 1;
nodes = (
"653 369 LINE",
"653 -621 LINE",
"798 -621 LINE",
"798 1864 LINE",
"653 1864 LINE",
"653 874 LINE",
"-10 874 LINE",
"-10 729 LINE",
"653 729 LINE",
"653 514 LINE",
"-10 514 LINE",
"-10 369 LINE"
);
}
);
width = 1451;
}
);
note = uni2561;
unicode = 2561;
},
{
glyphname = uni2562;
lastChange = "2025-02-05 21:35:02 +0000";
layers = (
{
layerId = "9CB754D2-AD8E-43A2-9483-C1400C56EABF";
paths = (
{
closed = 1;
nodes = (
"473 549 LINE",
"473 -621 LINE",
"618 -621 LINE",
"618 1864 LINE",
"473 1864 LINE",
"473 694 LINE",
"-10 694 LINE",
"-10 549 LINE"
);
},
{
closed = 1;
nodes = (
"833 -621 LINE",
"978 -621 LINE",
"978 1864 LINE",
"833 1864 LINE"
);
}
);
width = 1451;
}
);
note = uni2562;
unicode = 2562;
},
{
glyphname = uni2563;
lastChange = "2025-02-05 21:35:02 +0000";
layers = (
{
layerId = "9CB754D2-AD8E-43A2-9483-C1400C56EABF";
paths = (
{
closed = 1;
nodes = (
"833 -621 LINE",
"978 -621 LINE",
"978 1864 LINE",
"833 1864 LINE"
);
},
{
closed = 1;
nodes = (
"473 874 LINE",
"-10 874 LINE",
"-10 729 LINE",
"618 729 LINE",
"618 1864 LINE",
"473 1864 LINE"
);
},
{
closed = 1;
nodes = (
"618 514 LINE",
"-10 514 LINE",
"-10 369 LINE",
"473 369 LINE",
"473 -621 LINE",
"618 -621 LINE"
);
}
);
width = 1451;
}
);
note = uni2563;
unicode = 2563;
},
{
glyphname = uni2564;
lastChange = "2025-02-05 21:35:02 +0000";
layers = (
{
layerId = "9CB754D2-AD8E-43A2-9483-C1400C56EABF";
paths = (
{
closed = 1;
nodes = (
"653 369 LINE",
"653 -621 LINE",
"798 -621 LINE",
"798 369 LINE",
"1461 369 LINE",
"1461 514 LINE",
"-10 514 LINE",
"-10 369 LINE"
);
},
{
closed = 1;
nodes = (
"1461 729 LINE",
"1461 874 LINE",
"-10 874 LINE",
"-10 729 LINE"
);
}
);
width = 1451;
}
);
note = uni2564;
unicode = 2564;
},
{
glyphname = uni2565;
lastChange = "2025-02-05 21:35:02 +0000";
layers = (
{
layerId = "9CB754D2-AD8E-43A2-9483-C1400C56EABF";
paths = (
{
closed = 1;
nodes = (
"473 549 LINE",
"473 -621 LINE",
"618 -621 LINE",
"618 549 LINE",
"833 549 LINE",
"833 -621 LINE",
"978 -621 LINE",
"978 549 LINE",
"1461 549 LINE",
"1461 694 LINE",
"-10 694 LINE",
"-10 549 LINE"
);
}
);
width = 1451;
}
);
note = uni2565;
unicode = 2565;
},
{
glyphname = uni2566;
lastChange = "2025-02-05 21:35:02 +0000";
layers = (
{
layerId = "9CB754D2-AD8E-43A2-9483-C1400C56EABF";
paths = (
{
closed = 1;
nodes = (
"618 514 LINE",
"-10 514 LINE",
"-10 369 LINE",
"473 369 LINE",
"473 -621 LINE",
"618 -621 LINE"
);
},
{
closed = 1;
nodes = (
"833 -621 LINE",
"978 -621 LINE",
"978 369 LINE",
"1461 369 LINE",
"1461 514 LINE",
"833 514 LINE"
);
},
{
closed = 1;
nodes = (
"-10 874 LINE",
"-10 729 LINE",
"1461 729 LINE",
"1461 874 LINE"
);
}
);
width = 1451;
}
);
note = uni2566;
unicode = 2566;
},
{
glyphname = uni2567;
lastChange = "2025-02-05 21:35:02 +0000";
layers = (
{
layerId = "9CB754D2-AD8E-43A2-9483-C1400C56EABF";
paths = (
{
closed = 1;
nodes = (
"1461 729 LINE",
"1461 874 LINE",
"798 874 LINE",
"798 1864 LINE",
"653 1864 LINE",
"653 874 LINE",
"-10 874 LINE",
"-10 729 LINE"
);
},
{
closed = 1;
nodes = (
"1461 369 LINE",
"1461 514 LINE",
"-10 514 LINE",
"-10 369 LINE"
);
}
);
width = 1451;
}
);
note = uni2567;
unicode = 2567;
},
{
glyphname = uni2568;
lastChange = "2025-02-05 21:35:02 +0000";
layers = (
{
layerId = "9CB754D2-AD8E-43A2-9483-C1400C56EABF";
paths = (
{
closed = 1;
nodes = (
"1461 549 LINE",
"1461 694 LINE",
"978 694 LINE",
"978 1864 LINE",
"833 1864 LINE",
"833 694 LINE",
"618 694 LINE",
"618 1864 LINE",
"473 1864 LINE",
"473 694 LINE",
"-10 694 LINE",
"-10 549 LINE"
);
}
);
width = 1451;
}
);
note = uni2568;
unicode = 2568;
},
{
glyphname = uni2569;
lastChange = "2025-02-05 21:35:02 +0000";
layers = (
{
layerId = "9CB754D2-AD8E-43A2-9483-C1400C56EABF";
paths = (
{
closed = 1;
nodes = (
"833 729 LINE",
"1461 729 LINE",
"1461 874 LINE",
"978 874 LINE",
"978 1864 LINE",
"833 1864 LINE"
);
},
{
closed = 1;
nodes = (
"473 874 LINE",
"-10 874 LINE",
"-10 729 LINE",
"618 729 LINE",
"618 1864 LINE",
"473 1864 LINE"
);
},
{
closed = 1;
nodes = (
"1461 369 LINE",
"1461 514 LINE",
"-10 514 LINE",
"-10 369 LINE"
);
}
);
width = 1451;
}
);
note = uni2569;
unicode = 2569;
},
{
glyphname = uni256A;
lastChange = "2025-02-05 21:35:02 +0000";
layers = (
{
layerId = "9CB754D2-AD8E-43A2-9483-C1400C56EABF";
paths = (
{
closed = 1;
nodes = (
"653 369 LINE",
"653 -621 LINE",
"798 -621 LINE",
"798 369 LINE",
"1461 369 LINE",
"1461 514 LINE",
"798 514 LINE",
"798 729 LINE",
"1461 729 LINE",
"1461 874 LINE",
"798 874 LINE",
"798 1864 LINE",
"653 1864 LINE",
"653 874 LINE",
"-10 874 LINE",
"-10 729 LINE",
"653 729 LINE",
"653 514 LINE",
"-10 514 LINE",
"-10 369 LINE"
);
}
);
width = 1451;
}
);
note = uni256A;
unicode = 256A;
},
{
glyphname = uni256B;
lastChange = "2025-02-05 21:35:02 +0000";
layers = (
{
layerId = "9CB754D2-AD8E-43A2-9483-C1400C56EABF";
paths = (
{
closed = 1;
nodes = (
"833 694 LINE",
"618 694 LINE",
"618 1864 LINE",
"473 1864 LINE",
"473 694 LINE",
"-10 694 LINE",
"-10 549 LINE",
"473 549 LINE",
"473 -621 LINE",
"618 -621 LINE",
"618 549 LINE",
"833 549 LINE",
"833 -621 LINE",
"978 -621 LINE",
"978 549 LINE",
"1461 549 LINE",
"1461 694 LINE",
"978 694 LINE",
"978 1864 LINE",
"833 1864 LINE"
);
}
);
width = 1451;
}
);
note = uni256B;
unicode = 256B;
},
{
glyphname = uni256C;
lastChange = "2025-02-05 21:35:02 +0000";
layers = (
{
layerId = "9CB754D2-AD8E-43A2-9483-C1400C56EABF";
paths = (
{
closed = 1;
nodes = (
"833 729 LINE",
"1461 729 LINE",
"1461 874 LINE",
"978 874 LINE",
"978 1864 LINE",
"833 1864 LINE"
);
},
{
closed = 1;
nodes = (
"618 514 LINE",
"-10 514 LINE",
"-10 369 LINE",
"473 369 LINE",
"473 -621 LINE",
"618 -621 LINE"
);
},
{
closed = 1;
nodes = (
"833 -621 LINE",
"978 -621 LINE",
"978 369 LINE",
"1461 369 LINE",
"1461 514 LINE",
"833 514 LINE"
);
},
{
closed = 1;
nodes = (
"473 874 LINE",
"-10 874 LINE",
"-10 729 LINE",
"618 729 LINE",
"618 1864 LINE",
"473 1864 LINE"
);
}
);
width = 1451;
}
);
note = uni256C;
unicode = 256C;
},
{
glyphname = upblock;
lastChange = "2025-02-05 21:35:02 +0000";
layers = (
{
layerId = "9CB754D2-AD8E-43A2-9483-C1400C56EABF";
paths = (
{
closed = 1;
nodes = (
"1451 1864 LINE",
"0 1864 LINE",
"0 621 LINE",
"1451 621 LINE"
);
}
);
width = 1451;
}
);
note = upblock;
unicode = 2580;
},
{
glyphname = dnblock;
lastChange = "2025-02-05 21:35:02 +0000";
layers = (
{
layerId = "9CB754D2-AD8E-43A2-9483-C1400C56EABF";
paths = (
{
closed = 1;
nodes = (
"1451 621 LINE",
"0 621 LINE",
"0 -621 LINE",
"1451 -621 LINE"
);
}
);
width = 1451;
}
);
note = dnblock;
unicode = 2584;
},
{
glyphname = block;
lastChange = "2025-02-05 21:35:02 +0000";
layers = (
{
layerId = "9CB754D2-AD8E-43A2-9483-C1400C56EABF";
paths = (
{
closed = 1;
nodes = (
"1451 1864 LINE",
"0 1864 LINE",
"0 -621 LINE",
"1451 -621 LINE"
);
}
);
width = 1451;
}
);
note = block;
unicode = 2588;
},
{
glyphname = lfblock;
lastChange = "2025-02-05 21:35:02 +0000";
layers = (
{
layerId = "9CB754D2-AD8E-43A2-9483-C1400C56EABF";
paths = (
{
closed = 1;
nodes = (
"726 1864 LINE",
"0 1864 LINE",
"0 -621 LINE",
"726 -621 LINE"
);
}
);
width = 1451;
}
);
note = lfblock;
unicode = 258C;
},
{
glyphname = rtblock;
lastChange = "2025-02-05 21:35:02 +0000";
layers = (
{
layerId = "9CB754D2-AD8E-43A2-9483-C1400C56EABF";
paths = (
{
closed = 1;
nodes = (
"1451 1864 LINE",
"725 1864 LINE",
"725 -621 LINE",
"1451 -621 LINE"
);
}
);
width = 1451;
}
);
note = rtblock;
unicode = 2590;
},
{
glyphname = ltshade;
lastChange = "2025-02-05 21:35:02 +0000";
layers = (
{
layerId = "9CB754D2-AD8E-43A2-9483-C1400C56EABF";
paths = (
{
closed = 1;
nodes = (
"103 1216 LINE",
"207 1216 LINE",
"207 1314 LINE",
"103 1314 LINE"
);
},
{
closed = 1;
nodes = (
"517 1216 LINE",
"621 1216 LINE",
"621 1314 LINE",
"517 1314 LINE"
);
},
{
closed = 1;
nodes = (
"933 1216 LINE",
"1036 1216 LINE",
"1036 1314 LINE",
"933 1314 LINE"
);
},
{
closed = 1;
nodes = (
"310 1023 LINE",
"414 1023 LINE",
"414 1119 LINE",
"310 1119 LINE"
);
},
{
closed = 1;
nodes = (
"725 1023 LINE",
"829 1023 LINE",
"829 1119 LINE",
"725 1119 LINE"
);
},
{
closed = 1;
nodes = (
"1140 1023 LINE",
"1244 1023 LINE",
"1244 1119 LINE",
"1140 1119 LINE"
);
},
{
closed = 1;
nodes = (
"933 831 LINE",
"1036 831 LINE",
"1036 927 LINE",
"933 927 LINE"
);
},
{
closed = 1;
nodes = (
"517 831 LINE",
"621 831 LINE",
"621 927 LINE",
"517 927 LINE"
);
},
{
closed = 1;
nodes = (
"103 831 LINE",
"207 831 LINE",
"207 927 LINE",
"103 927 LINE"
);
},
{
closed = 1;
nodes = (
"1140 636 LINE",
"1244 636 LINE",
"1244 732 LINE",
"1140 732 LINE"
);
},
{
closed = 1;
nodes = (
"725 636 LINE",
"829 636 LINE",
"829 732 LINE",
"725 732 LINE"
);
},
{
closed = 1;
nodes = (
"310 636 LINE",
"414 636 LINE",
"414 732 LINE",
"310 732 LINE"
);
},
{
closed = 1;
nodes = (
"103 444 LINE",
"207 444 LINE",
"207 540 LINE",
"103 540 LINE"
);
},
{
closed = 1;
nodes = (
"517 444 LINE",
"621 444 LINE",
"621 540 LINE",
"517 540 LINE"
);
},
{
closed = 1;
nodes = (
"933 444 LINE",
"1036 444 LINE",
"1036 540 LINE",
"933 540 LINE"
);
},
{
closed = 1;
nodes = (
"1140 249 LINE",
"1244 249 LINE",
"1244 345 LINE",
"1140 345 LINE"
);
},
{
closed = 1;
nodes = (
"725 249 LINE",
"829 249 LINE",
"829 345 LINE",
"725 345 LINE"
);
},
{
closed = 1;
nodes = (
"310 249 LINE",
"414 249 LINE",
"414 345 LINE",
"310 345 LINE"
);
},
{
closed = 1;
nodes = (
"103 56 LINE",
"207 56 LINE",
"207 153 LINE",
"103 153 LINE"
);
},
{
closed = 1;
nodes = (
"517 56 LINE",
"621 56 LINE",
"621 153 LINE",
"517 153 LINE"
);
},
{
closed = 1;
nodes = (
"933 56 LINE",
"1036 56 LINE",
"1036 153 LINE",
"933 153 LINE"
);
},
{
closed = 1;
nodes = (
"310 -136 LINE",
"414 -136 LINE",
"414 -42 LINE",
"310 -42 LINE"
);
},
{
closed = 1;
nodes = (
"725 -136 LINE",
"829 -136 LINE",
"829 -42 LINE",
"725 -42 LINE"
);
},
{
closed = 1;
nodes = (
"1140 -136 LINE",
"1244 -136 LINE",
"1244 -42 LINE",
"1140 -42 LINE"
);
},
{
closed = 1;
nodes = (
"933 -331 LINE",
"1036 -331 LINE",
"1036 -234 LINE",
"933 -234 LINE"
);
},
{
closed = 1;
nodes = (
"517 -331 LINE",
"621 -331 LINE",
"621 -234 LINE",
"517 -234 LINE"
);
},
{
closed = 1;
nodes = (
"103 -331 LINE",
"207 -331 LINE",
"207 -234 LINE",
"103 -234 LINE"
);
},
{
closed = 1;
nodes = (
"310 -523 LINE",
"414 -523 LINE",
"414 -427 LINE",
"310 -427 LINE"
);
},
{
closed = 1;
nodes = (
"725 -523 LINE",
"829 -523 LINE",
"829 -427 LINE",
"725 -427 LINE"
);
},
{
closed = 1;
nodes = (
"1140 -523 LINE",
"1244 -523 LINE",
"1244 -427 LINE",
"1140 -427 LINE"
);
},
{
closed = 1;
nodes = (
"310 1408 LINE",
"414 1408 LINE",
"414 1506 LINE",
"310 1506 LINE"
);
},
{
closed = 1;
nodes = (
"725 1408 LINE",
"829 1408 LINE",
"829 1506 LINE",
"725 1506 LINE"
);
},
{
closed = 1;
nodes = (
"1140 1408 LINE",
"1244 1408 LINE",
"1244 1506 LINE",
"1140 1506 LINE"
);
},
{
closed = 1;
nodes = (
"103 1603 LINE",
"207 1603 LINE",
"207 1699 LINE",
"103 1699 LINE"
);
},
{
closed = 1;
nodes = (
"517 1603 LINE",
"621 1603 LINE",
"621 1699 LINE",
"517 1699 LINE"
);
},
{
closed = 1;
nodes = (
"933 1603 LINE",
"1036 1603 LINE",
"1036 1699 LINE",
"933 1699 LINE"
);
},
{
closed = 1;
nodes = (
"1347 1216 LINE",
"1451 1216 LINE",
"1451 1314 LINE",
"1347 1314 LINE"
);
},
{
closed = 1;
nodes = (
"1347 831 LINE",
"1451 831 LINE",
"1451 927 LINE",
"1347 927 LINE"
);
},
{
closed = 1;
nodes = (
"1347 444 LINE",
"1451 444 LINE",
"1451 540 LINE",
"1347 540 LINE"
);
},
{
closed = 1;
nodes = (
"1347 56 LINE",
"1451 56 LINE",
"1451 153 LINE",
"1347 153 LINE"
);
},
{
closed = 1;
nodes = (
"1347 -331 LINE",
"1451 -331 LINE",
"1451 -234 LINE",
"1347 -234 LINE"
);
},
{
closed = 1;
nodes = (
"1347 1603 LINE",
"1451 1603 LINE",
"1451 1699 LINE",
"1347 1699 LINE"
);
}
);
width = 1451;
}
);
note = ltshade;
unicode = 2591;
},
{
glyphname = shade;
lastChange = "2025-02-05 21:35:02 +0000";
layers = (
{
layerId = "9CB754D2-AD8E-43A2-9483-C1400C56EABF";
paths = (
{
closed = 1;
nodes = (
"103 1216 LINE",
"207 1216 LINE",
"207 1314 LINE",
"103 1314 LINE"
);
},
{
closed = 1;
nodes = (
"310 1216 LINE",
"414 1216 LINE",
"414 1314 LINE",
"310 1314 LINE"
);
},
{
closed = 1;
nodes = (
"517 1216 LINE",
"621 1216 LINE",
"621 1314 LINE",
"517 1314 LINE"
);
},
{
closed = 1;
nodes = (
"725 1216 LINE",
"829 1216 LINE",
"829 1314 LINE",
"725 1314 LINE"
);
},
{
closed = 1;
nodes = (
"933 1216 LINE",
"1037 1216 LINE",
"1037 1314 LINE",
"933 1314 LINE"
);
},
{
closed = 1;
nodes = (
"1140 1216 LINE",
"1244 1216 LINE",
"1244 1314 LINE",
"1140 1314 LINE"
);
},
{
closed = 1;
nodes = (
"0 1023 LINE",
"103 1023 LINE",
"103 1119 LINE",
"0 1119 LINE"
);
},
{
closed = 1;
nodes = (
"207 1023 LINE",
"310 1023 LINE",
"310 1119 LINE",
"207 1119 LINE"
);
},
{
closed = 1;
nodes = (
"414 1023 LINE",
"517 1023 LINE",
"517 1119 LINE",
"414 1119 LINE"
);
},
{
closed = 1;
nodes = (
"621 1023 LINE",
"725 1023 LINE",
"725 1119 LINE",
"621 1119 LINE"
);
},
{
closed = 1;
nodes = (
"829 1023 LINE",
"933 1023 LINE",
"933 1119 LINE",
"829 1119 LINE"
);
},
{
closed = 1;
nodes = (
"1037 1023 LINE",
"1140 1023 LINE",
"1140 1119 LINE",
"1037 1119 LINE"
);
},
{
closed = 1;
nodes = (
"103 831 LINE",
"207 831 LINE",
"207 927 LINE",
"103 927 LINE"
);
},
{
closed = 1;
nodes = (
"310 831 LINE",
"414 831 LINE",
"414 927 LINE",
"310 927 LINE"
);
},
{
closed = 1;
nodes = (
"517 831 LINE",
"621 831 LINE",
"621 927 LINE",
"517 927 LINE"
);
},
{
closed = 1;
nodes = (
"725 831 LINE",
"829 831 LINE",
"829 927 LINE",
"725 927 LINE"
);
},
{
closed = 1;
nodes = (
"933 831 LINE",
"1037 831 LINE",
"1037 927 LINE",
"933 927 LINE"
);
},
{
closed = 1;
nodes = (
"1140 831 LINE",
"1244 831 LINE",
"1244 927 LINE",
"1140 927 LINE"
);
},
{
closed = 1;
nodes = (
"0 636 LINE",
"103 636 LINE",
"103 732 LINE",
"0 732 LINE"
);
},
{
closed = 1;
nodes = (
"207 636 LINE",
"310 636 LINE",
"310 732 LINE",
"207 732 LINE"
);
},
{
closed = 1;
nodes = (
"414 636 LINE",
"517 636 LINE",
"517 732 LINE",
"414 732 LINE"
);
},
{
closed = 1;
nodes = (
"621 636 LINE",
"725 636 LINE",
"725 732 LINE",
"621 732 LINE"
);
},
{
closed = 1;
nodes = (
"829 636 LINE",
"933 636 LINE",
"933 732 LINE",
"829 732 LINE"
);
},
{
closed = 1;
nodes = (
"1037 636 LINE",
"1140 636 LINE",
"1140 732 LINE",
"1037 732 LINE"
);
},
{
closed = 1;
nodes = (
"103 444 LINE",
"207 444 LINE",
"207 540 LINE",
"103 540 LINE"
);
},
{
closed = 1;
nodes = (
"310 444 LINE",
"414 444 LINE",
"414 540 LINE",
"310 540 LINE"
);
},
{
closed = 1;
nodes = (
"517 444 LINE",
"621 444 LINE",
"621 540 LINE",
"517 540 LINE"
);
},
{
closed = 1;
nodes = (
"725 444 LINE",
"829 444 LINE",
"829 540 LINE",
"725 540 LINE"
);
},
{
closed = 1;
nodes = (
"933 444 LINE",
"1037 444 LINE",
"1037 540 LINE",
"933 540 LINE"
);
},
{
closed = 1;
nodes = (
"1140 444 LINE",
"1244 444 LINE",
"1244 540 LINE",
"1140 540 LINE"
);
},
{
closed = 1;
nodes = (
"0 249 LINE",
"103 249 LINE",
"103 345 LINE",
"0 345 LINE"
);
},
{
closed = 1;
nodes = (
"414 249 LINE",
"517 249 LINE",
"517 345 LINE",
"414 345 LINE"
);
},
{
closed = 1;
nodes = (
"621 249 LINE",
"725 249 LINE",
"725 345 LINE",
"621 345 LINE"
);
},
{
closed = 1;
nodes = (
"829 249 LINE",
"933 249 LINE",
"933 345 LINE",
"829 345 LINE"
);
},
{
closed = 1;
nodes = (
"1037 249 LINE",
"1140 249 LINE",
"1140 345 LINE",
"1037 345 LINE"
);
},
{
closed = 1;
nodes = (
"207 249 LINE",
"310 249 LINE",
"310 345 LINE",
"207 345 LINE"
);
},
{
closed = 1;
nodes = (
"1140 56 LINE",
"1244 56 LINE",
"1244 153 LINE",
"1140 153 LINE"
);
},
{
closed = 1;
nodes = (
"933 56 LINE",
"1037 56 LINE",
"1037 153 LINE",
"933 153 LINE"
);
},
{
closed = 1;
nodes = (
"725 56 LINE",
"829 56 LINE",
"829 153 LINE",
"725 153 LINE"
);
},
{
closed = 1;
nodes = (
"517 56 LINE",
"621 56 LINE",
"621 153 LINE",
"517 153 LINE"
);
},
{
closed = 1;
nodes = (
"310 56 LINE",
"414 56 LINE",
"414 153 LINE",
"310 153 LINE"
);
},
{
closed = 1;
nodes = (
"103 56 LINE",
"207 56 LINE",
"207 153 LINE",
"103 153 LINE"
);
},
{
closed = 1;
nodes = (
"0 -136 LINE",
"103 -136 LINE",
"103 -42 LINE",
"0 -42 LINE"
);
},
{
closed = 1;
nodes = (
"207 -136 LINE",
"310 -136 LINE",
"310 -42 LINE",
"207 -42 LINE"
);
},
{
closed = 1;
nodes = (
"414 -136 LINE",
"517 -136 LINE",
"517 -42 LINE",
"414 -42 LINE"
);
},
{
closed = 1;
nodes = (
"621 -136 LINE",
"725 -136 LINE",
"725 -42 LINE",
"621 -42 LINE"
);
},
{
closed = 1;
nodes = (
"829 -136 LINE",
"933 -136 LINE",
"933 -42 LINE",
"829 -42 LINE"
);
},
{
closed = 1;
nodes = (
"1037 -136 LINE",
"1140 -136 LINE",
"1140 -42 LINE",
"1037 -42 LINE"
);
},
{
closed = 1;
nodes = (
"1140 -331 LINE",
"1244 -331 LINE",
"1244 -234 LINE",
"1140 -234 LINE"
);
},
{
closed = 1;
nodes = (
"933 -331 LINE",
"1037 -331 LINE",
"1037 -234 LINE",
"933 -234 LINE"
);
},
{
closed = 1;
nodes = (
"725 -331 LINE",
"829 -331 LINE",
"829 -234 LINE",
"725 -234 LINE"
);
},
{
closed = 1;
nodes = (
"517 -331 LINE",
"621 -331 LINE",
"621 -234 LINE",
"517 -234 LINE"
);
},
{
closed = 1;
nodes = (
"310 -331 LINE",
"414 -331 LINE",
"414 -234 LINE",
"310 -234 LINE"
);
},
{
closed = 1;
nodes = (
"103 -331 LINE",
"207 -331 LINE",
"207 -234 LINE",
"103 -234 LINE"
);
},
{
closed = 1;
nodes = (
"0 -523 LINE",
"103 -523 LINE",
"103 -427 LINE",
"0 -427 LINE"
);
},
{
closed = 1;
nodes = (
"207 -523 LINE",
"310 -523 LINE",
"310 -427 LINE",
"207 -427 LINE"
);
},
{
closed = 1;
nodes = (
"414 -523 LINE",
"517 -523 LINE",
"517 -427 LINE",
"414 -427 LINE"
);
},
{
closed = 1;
nodes = (
"621 -523 LINE",
"725 -523 LINE",
"725 -427 LINE",
"621 -427 LINE"
);
},
{
closed = 1;
nodes = (
"829 -523 LINE",
"933 -523 LINE",
"933 -427 LINE",
"829 -427 LINE"
);
},
{
closed = 1;
nodes = (
"1037 -523 LINE",
"1140 -523 LINE",
"1140 -427 LINE",
"1037 -427 LINE"
);
},
{
closed = 1;
nodes = (
"0 1408 LINE",
"103 1408 LINE",
"103 1506 LINE",
"0 1506 LINE"
);
},
{
closed = 1;
nodes = (
"207 1408 LINE",
"310 1408 LINE",
"310 1506 LINE",
"207 1506 LINE"
);
},
{
closed = 1;
nodes = (
"414 1408 LINE",
"517 1408 LINE",
"517 1506 LINE",
"414 1506 LINE"
);
},
{
closed = 1;
nodes = (
"621 1408 LINE",
"725 1408 LINE",
"725 1506 LINE",
"621 1506 LINE"
);
},
{
closed = 1;
nodes = (
"829 1408 LINE",
"933 1408 LINE",
"933 1506 LINE",
"829 1506 LINE"
);
},
{
closed = 1;
nodes = (
"1037 1408 LINE",
"1140 1408 LINE",
"1140 1506 LINE",
"1037 1506 LINE"
);
},
{
closed = 1;
nodes = (
"103 1603 LINE",
"207 1603 LINE",
"207 1699 LINE",
"103 1699 LINE"
);
},
{
closed = 1;
nodes = (
"310 1603 LINE",
"414 1603 LINE",
"414 1699 LINE",
"310 1699 LINE"
);
},
{
closed = 1;
nodes = (
"517 1603 LINE",
"621 1603 LINE",
"621 1699 LINE",
"517 1699 LINE"
);
},
{
closed = 1;
nodes = (
"725 1603 LINE",
"829 1603 LINE",
"829 1699 LINE",
"725 1699 LINE"
);
},
{
closed = 1;
nodes = (
"933 1603 LINE",
"1037 1603 LINE",
"1037 1699 LINE",
"933 1699 LINE"
);
},
{
closed = 1;
nodes = (
"1140 1603 LINE",
"1244 1603 LINE",
"1244 1699 LINE",
"1140 1699 LINE"
);
},
{
closed = 1;
nodes = (
"1347 1216 LINE",
"1451 1216 LINE",
"1451 1314 LINE",
"1347 1314 LINE"
);
},
{
closed = 1;
nodes = (
"1244 1023 LINE",
"1347 1023 LINE",
"1347 1119 LINE",
"1244 1119 LINE"
);
},
{
closed = 1;
nodes = (
"1347 831 LINE",
"1451 831 LINE",
"1451 927 LINE",
"1347 927 LINE"
);
},
{
closed = 1;
nodes = (
"1244 636 LINE",
"1347 636 LINE",
"1347 732 LINE",
"1244 732 LINE"
);
},
{
closed = 1;
nodes = (
"1347 444 LINE",
"1451 444 LINE",
"1451 540 LINE",
"1347 540 LINE"
);
},
{
closed = 1;
nodes = (
"1244 249 LINE",
"1347 249 LINE",
"1347 345 LINE",
"1244 345 LINE"
);
},
{
closed = 1;
nodes = (
"1347 56 LINE",
"1451 56 LINE",
"1451 153 LINE",
"1347 153 LINE"
);
},
{
closed = 1;
nodes = (
"1244 -136 LINE",
"1347 -136 LINE",
"1347 -42 LINE",
"1244 -42 LINE"
);
},
{
closed = 1;
nodes = (
"1347 -331 LINE",
"1451 -331 LINE",
"1451 -234 LINE",
"1347 -234 LINE"
);
},
{
closed = 1;
nodes = (
"1244 -523 LINE",
"1347 -523 LINE",
"1347 -427 LINE",
"1244 -427 LINE"
);
},
{
closed = 1;
nodes = (
"1244 1408 LINE",
"1347 1408 LINE",
"1347 1506 LINE",
"1244 1506 LINE"
);
},
{
closed = 1;
nodes = (
"1347 1603 LINE",
"1451 1603 LINE",
"1451 1699 LINE",
"1347 1699 LINE"
);
}
);
width = 1451;
}
);
note = shade;
unicode = 2592;
},
